<svg width="33" height="21" viewBox="0 0 33 21" fill="none" xmlns="http://www.w3.org/2000/svg">
<g clip-path="url(#clip0)">
<path d="M32.3054 1.91932C32.5364 1.14386 32.3054 0.575195 31.2131 0.575195H27.5946C26.6739 0.575195 26.2532 1.06715 26.0222 1.60747C26.0222 1.60747 24.1824 6.1418 21.5754 9.08186C20.7339 9.93737 20.3495 10.2075 19.8908 10.2075C19.6614 10.2075 19.3281 9.93737 19.3281 9.16191V1.91932C19.3281 0.988772 19.0625 0.575195 18.2952 0.575195H12.6093C12.0351 0.575195 11.6886 1.00545 11.6886 1.41569C11.6886 2.29621 12.9921 2.49966 13.1258 4.98112V10.3643C13.1258 11.5433 12.9162 11.7584 12.4542 11.7584C11.2283 11.7584 8.24505 7.20743 6.4746 1.9977C6.12975 0.985437 5.7816 0.576864 4.8576 0.576864H1.2408C0.20625 0.576864 0 1.06882 0 1.60914C0 2.57971 1.22595 7.38253 5.71065 13.7346C8.70045 18.0721 12.9096 20.4235 16.7442 20.4235C19.0427 20.4235 19.3265 19.9016 19.3265 19.001V15.7224C19.3265 14.6785 19.5459 14.4684 20.2736 14.4684C20.8082 14.4684 21.7288 14.7419 23.8755 16.8314C26.3274 19.3095 26.7333 20.4219 28.1111 20.4219H31.7279C32.7608 20.4219 33.2772 19.8999 32.9802 18.8693C32.6552 17.8437 31.4837 16.3511 29.9294 14.5851C29.0846 13.5778 27.8223 12.4939 27.4379 11.9519C26.9016 11.2531 27.0567 10.9446 27.4379 10.3243C27.4395 10.3259 31.8467 4.05224 32.3054 1.91932Z" fill="white"/>
</g>
<defs>
<clipPath id="clip0">
<rect width="33" height="21" fill="white"/>
</clipPath>
</defs>
</svg>
