<svg width="30" height="30" viewBox="0 0 30 30" fill="none" xmlns="http://www.w3.org/2000/svg">
<path d="M23.007 8.79336C24.0011 8.79336 24.807 7.98747 24.807 6.99336C24.807 5.99925 24.0011 5.19336 23.007 5.19336C22.0129 5.19336 21.207 5.99925 21.207 6.99336C21.207 7.98747 22.0129 8.79336 23.007 8.79336Z" fill="white"/>
<path d="M14.9994 7.29688C13.476 7.29687 11.9868 7.74862 10.7201 8.59498C9.45343 9.44134 8.46618 10.6443 7.8832 12.0518C7.30021 13.4592 7.14768 15.0079 7.44488 16.5021C7.74208 17.9962 8.47567 19.3686 9.55289 20.4459C10.6301 21.5231 12.0026 22.2567 13.4967 22.5539C14.9908 22.8511 16.5395 22.6985 17.947 22.1156C19.3544 21.5326 20.5574 20.5453 21.4038 19.2787C22.2501 18.012 22.7019 16.5228 22.7019 14.9994C22.7019 12.9565 21.8904 10.9974 20.4459 9.55288C19.0014 8.10839 17.0422 7.29688 14.9994 7.29688ZM14.9994 19.9994C14.0105 19.9994 13.0438 19.7061 12.2215 19.1567C11.3993 18.6073 10.7584 17.8264 10.38 16.9128C10.0015 15.9992 9.90253 14.9938 10.0955 14.0239C10.2884 13.054 10.7646 12.1631 11.4638 11.4638C12.1631 10.7646 13.054 10.2884 14.0239 10.0954C14.9938 9.90252 15.9992 10.0015 16.9128 10.38C17.8264 10.7584 18.6073 11.3993 19.1567 12.2215C19.7061 13.0438 19.9994 14.0105 19.9994 14.9994C19.9994 16.3255 19.4726 17.5972 18.5349 18.5349C17.5972 19.4726 16.3255 19.9994 14.9994 19.9994Z" fill="white"/>
<path d="M15 2.7025C19.005 2.7025 19.48 2.7175 21.0613 2.79C22.0123 2.80129 22.9543 2.97591 23.8462 3.30625C24.4933 3.55587 25.081 3.93818 25.5714 4.4286C26.0618 4.91902 26.4441 5.50667 26.6937 6.15375C27.0241 7.04566 27.1987 7.9877 27.21 8.93875C27.2825 10.52 27.2975 10.995 27.2975 15.0012C27.2975 19.0075 27.2825 19.48 27.21 21.0613C27.1987 22.0123 27.0241 22.9543 26.6937 23.8462C26.4441 24.4933 26.0618 25.081 25.5714 25.5714C25.081 26.0618 24.4933 26.4441 23.8462 26.6937C22.9543 27.0241 22.0123 27.1987 21.0613 27.21C19.48 27.2825 19.005 27.2975 15 27.2975C10.995 27.2975 10.52 27.2825 8.93875 27.21C7.9877 27.1987 7.04566 27.0241 6.15375 26.6937C5.50667 26.4441 4.91902 26.0618 4.4286 25.5714C3.93818 25.081 3.55587 24.4933 3.30625 23.8462C2.97591 22.9543 2.80129 22.0123 2.79 21.0613C2.7175 19.48 2.7025 19.005 2.7025 15C2.7025 10.995 2.7175 10.52 2.79 8.93875C2.80129 7.9877 2.97591 7.04566 3.30625 6.15375C3.55587 5.50667 3.93818 4.91902 4.4286 4.4286C4.91902 3.93818 5.50667 3.55587 6.15375 3.30625C7.04566 2.97591 7.9877 2.80129 8.93875 2.79C10.52 2.7175 10.995 2.7025 15 2.7025ZM15 0C10.9262 0 10.415 0.0175 8.815 0.09C7.57097 0.11512 6.3402 0.350962 5.175 0.7875C4.1784 1.17287 3.27332 1.76222 2.51777 2.51777C1.76222 3.27332 1.17287 4.1784 0.7875 5.175C0.350823 6.34059 0.114979 7.5718 0.09 8.81625C0.0175 10.4163 0 10.925 0 15C0 19.075 0.0175 19.585 0.09 21.185C0.11512 22.429 0.350962 23.6598 0.7875 24.825C1.17287 25.8216 1.76222 26.7267 2.51777 27.4822C3.27332 28.2378 4.1784 28.8271 5.175 29.2125C6.34059 29.6492 7.5718 29.885 8.81625 29.91C10.4163 29.9825 10.9262 30 15 30C19.0737 30 19.585 29.9825 21.185 29.91C22.4295 29.885 23.6607 29.6492 24.8263 29.2125C25.8228 28.8271 26.7279 28.2378 27.4835 27.4822C28.239 26.7267 28.8284 25.8216 29.2138 24.825C29.65 23.6593 29.8854 22.4281 29.91 21.1838C29.9825 19.5837 30 19.075 30 15C30 10.925 29.9825 10.415 29.91 8.815C29.8849 7.57097 29.649 6.3402 29.2125 5.175C28.8271 4.1784 28.2378 3.27332 27.4822 2.51777C26.7267 1.76222 25.8216 1.17287 24.825 0.7875C23.6593 0.35125 22.4281 0.115829 21.1838 0.0912499C19.5837 0.0162499 19.075 0 15 0Z" fill="white"/>
</svg>
