<svg width="105" height="105" viewBox="0 0 105 105" fill="none" xmlns="http://www.w3.org/2000/svg">
<circle cx="52.5" cy="52.5" r="51.5" fill="#F5F9FF" stroke="#224156" stroke-width="2"/>
<g clip-path="url(#clip0)">
<path d="M70.3313 71.3233L54.9429 62.2106C54.1538 61.7429 53.8931 60.7241 54.3607 59.9349C54.3607 59.9349 54.7409 59.293 55.148 58.6059L52.0347 56.7642C49.981 55.5855 49.0205 55.3677 47.1676 56.084L45.1482 56.8647C43.9193 57.3398 42.5404 57.2251 41.4069 56.5536L36.0019 53.3668L28.3253 66.3244L35.2463 70.4093C35.7152 70.687 36.1269 71.0514 36.4595 71.4829L38.7917 74.5074C40.0799 76.014 42.7383 77.9682 44.4438 78.9786L53.3451 84.252C54.5201 84.948 56.0368 84.5599 56.7328 83.3849C57.4288 82.2099 57.0407 80.6933 55.8657 79.9972L58.6466 81.6447C59.8216 82.3408 61.3383 81.9526 62.0343 80.7777C62.7303 79.6027 62.3422 78.086 61.1672 77.39L63.0211 78.4883C64.1961 79.1843 65.7128 78.7962 66.4088 77.6212C67.1048 76.4462 66.7167 74.9296 65.5417 74.2335L67.8108 75.5777C68.9857 76.2737 70.5022 75.8855 71.1982 74.7108C71.8943 73.5359 71.5062 72.0192 70.3313 71.3233V71.3233Z" fill="#F9EAE2"/>
<path d="M70.3313 71.3232L64.6977 67.987C64.6278 67.9456 64.5376 67.9675 64.4944 68.0362C64.4643 68.0842 64.465 68.1444 64.4939 68.1931C64.9777 69.0077 64.9929 70.064 64.4175 70.9177C63.6942 71.9909 62.2315 72.2721 61.1179 71.6124L60.2753 71.1133C60.1004 71.0097 59.8746 71.0684 59.7722 71.2441C59.7144 71.3432 59.7067 71.4644 59.7516 71.57C60.0306 72.2273 59.97 73.144 59.656 73.8419C59.2054 74.8435 58.0289 75.5306 56.771 74.7854L56.4051 74.5687C56.1544 74.4201 55.8374 74.4446 55.6125 74.6299C55.3772 74.6299 55.2487 74.8117 55.3136 75.0378C55.504 75.7003 55.4267 76.4382 55.0363 77.0746C54.3031 78.2699 52.7173 78.6152 51.5108 77.9005L50.518 77.3123C50.328 77.1997 50.0838 77.2459 49.9481 77.4201C49.8654 77.5262 49.8357 77.6644 49.8692 77.7947C50.0317 78.4268 49.9539 79.1206 49.5949 79.7265C49.1865 80.4158 48.5038 80.8411 47.7682 80.9482L53.294 84.2219C54.4476 84.9054 55.9615 84.5903 56.6855 83.4617C57.4456 82.2769 57.0665 80.7086 55.8658 79.9972L58.5957 81.6145C59.7492 82.298 61.2633 81.9829 61.9872 80.8544C62.7472 79.6696 62.3681 78.1012 61.1675 77.3899L63.0213 78.4882C64.1963 79.1842 65.713 78.7961 66.409 77.6211C67.1051 76.4461 66.7169 74.9294 65.542 74.2334L67.7598 75.5474C68.9133 76.2307 70.4271 75.9157 71.1508 74.7873C71.9109 73.6027 71.5318 72.0344 70.3313 71.3232V71.3232Z" fill="#F5DBCC"/>
<path d="M68.9982 54.1402L64.847 56.5531C63.7135 57.2247 62.3345 57.3393 61.1057 56.8643L58.8284 55.9696C58.1161 55.6898 57.334 55.6402 56.5921 55.828L53.1028 56.7111C51.4784 57.1221 50.3406 58.5838 50.3406 60.2593V64.9173C50.3406 65.5759 50.8742 66.1115 51.5328 66.1119C53.5188 66.1132 55.1291 64.5036 55.1291 62.5179V62.3207L70.0647 71.1654C70.3414 70.8707 70.6586 70.6158 71.0076 70.409L76.6748 67.0979L68.9982 54.1402Z" fill="#F0C6B4"/>
<path d="M38.2794 73.1534L36.8792 75.1039C36.0831 76.2129 34.5385 76.4665 33.4295 75.6703C32.3205 74.8742 32.0669 73.3297 32.863 72.2206L34.2632 70.2702C35.0594 69.1611 36.6039 68.9075 37.7129 69.7037C38.8219 70.4998 39.0755 72.0444 38.2794 73.1534V73.1534Z" fill="#F0C6B4"/>
<path d="M43.8404 73.884L40.8948 77.987C40.0986 79.096 38.5541 79.3496 37.4451 78.5534C36.336 77.7573 36.0824 76.2128 36.8786 75.1037L39.8242 71.0008C40.6204 69.8917 42.1649 69.6381 43.2739 70.4343C44.383 71.2305 44.6366 72.775 43.8404 73.884Z" fill="#F0C6B4"/>
<path d="M47.8571 76.767L44.9115 80.8699C44.1153 81.979 42.5708 82.2326 41.4618 81.4364C40.3527 80.6403 40.0991 79.0958 40.8953 77.9867L43.8409 73.8838C44.6371 72.7747 46.1816 72.5211 47.2906 73.3173C48.3997 74.1135 48.6533 75.6579 47.8571 76.767Z" fill="#F0C6B4"/>
<path d="M50.5648 81.4737L49.5853 82.838C48.7892 83.947 47.2446 84.2006 46.1356 83.4045C45.0266 82.6083 44.7729 81.0638 45.5691 79.9548L46.5486 78.5904C47.3447 77.4814 48.8893 77.2278 49.9983 78.0239C51.1073 78.8201 51.3609 80.3646 50.5648 81.4737Z" fill="#F0C6B4"/>
<path d="M83.3361 42.5293L65.7317 53.0229C64.7421 53.6128 64.4163 54.8925 65.0036 55.8838L73.0535 69.4717C73.643 70.4667 74.9285 70.7939 75.922 70.2018L83.6083 65.6201C84.4831 65.0986 85.019 64.1554 85.019 63.1369V43.4855C85.0191 42.6217 84.0781 42.0871 83.3361 42.5293V42.5293Z" fill="#2A4E96"/>
<path d="M76.675 46.4995V59.2711C76.675 62.6868 74.8778 65.8505 71.9438 67.5993L73.0531 69.4716C73.6426 70.4667 74.9281 70.7938 75.9216 70.2017L83.6079 65.62C84.4827 65.0985 85.0186 64.1553 85.0186 63.1368V43.4854C85.0186 42.6216 84.0776 42.0871 83.3356 42.5294L76.675 46.4995Z" fill="#2A4E96"/>
<path d="M21.6644 42.5293L39.2688 53.0228C40.2585 53.6127 40.5842 54.8924 39.9969 55.8836L31.9471 69.4717C31.3576 70.4667 30.072 70.7939 29.0785 70.2018L21.3921 65.62C20.5173 65.0985 19.9814 64.1553 19.9814 63.1368V43.4855C19.9814 42.6217 20.9225 42.0871 21.6644 42.5293V42.5293Z" fill="#2A4E96"/>
<path d="M63.751 44.015H41.2506C39.7521 44.015 38.5375 42.8002 38.5375 41.3019V27.9146C38.5375 26.4161 39.7522 25.2015 41.2506 25.2015H63.7512C65.2496 25.2015 66.4643 26.4162 66.4643 27.9146V41.3019C66.4643 42.8002 65.2495 44.015 63.751 44.015Z" fill="#DDB7A0"/>
<path d="M63.75 25.2006H55.4712C56.9697 25.2006 58.1843 26.4153 58.1843 27.9137V41.301C58.1843 42.7994 56.9696 44.0141 55.4712 44.0141H63.75C65.2485 44.0141 66.4631 42.7995 66.4631 41.301V27.9137C66.4633 26.4154 65.2485 25.2006 63.75 25.2006V25.2006Z" fill="#D6A889"/>
<path d="M66.4635 29.0758V27.9145C66.4633 26.4161 65.2487 25.2015 63.7504 25.2015H41.2496C39.7513 25.2015 38.5366 26.4161 38.5365 27.9145V29.0758C38.5365 31.791 40.7377 33.9922 43.4529 33.9922H61.5471C64.2623 33.9921 66.4635 31.791 66.4635 29.0758V29.0758Z" fill="#CC9675"/>
<path d="M58.1845 27.9137V33.9912H61.5469C64.2621 33.9912 66.4633 31.7901 66.4633 29.0749V27.9135C66.4632 26.4151 65.2485 25.2005 63.7502 25.2005H55.4714C56.9697 25.2006 58.1845 26.4154 58.1845 27.9137V27.9137Z" fill="#C4845C"/>
<path d="M82.8331 41.6866L65.2287 52.1801C63.929 52.9548 63.4084 54.5486 63.9327 55.917C63.1478 56.2463 62.2693 56.2617 61.4647 55.9508L59.1873 55.0561C58.2787 54.699 57.298 54.6368 56.3513 54.8766L52.8621 55.7596C52.7268 55.7938 52.5942 55.8338 52.4645 55.8792C50.3328 54.6622 49.063 54.2984 46.8135 55.1683L44.794 55.949C43.8396 56.3179 42.7874 56.2303 41.905 55.7077L41.2304 55.31C41.4239 54.1031 40.8822 52.8424 39.7713 52.1802L22.1669 41.6866C20.7711 40.8549 19 41.8588 19 43.4858V63.1372C19 64.4942 19.724 65.7687 20.8896 66.4634L28.576 71.0452C30.0058 71.8972 31.8437 71.4554 32.7337 70.0659L33.0623 70.2599L32.0657 71.6482C30.9524 73.1985 31.3064 75.3541 32.857 76.4675C33.6234 77.0177 34.5575 77.2253 35.4727 77.0627C35.6129 77.9888 36.1117 78.8041 36.8732 79.3508C37.6375 79.8995 38.5775 80.106 39.4902 79.9441C39.6246 80.8332 40.1029 81.6695 40.8894 82.234C41.9491 82.9947 43.263 83.0568 44.3297 82.5753C44.5643 83.2257 44.9889 83.7898 45.5626 84.2018C47.0531 85.2717 49.1199 84.9829 50.2628 83.5667L52.8446 85.0962C53.3956 85.4227 54.0012 85.5779 54.5994 85.5779C55.7804 85.5779 56.9326 84.9728 57.577 83.8851C57.849 83.4259 58.0022 82.9285 58.0457 82.4293L58.1462 82.4888C58.9401 82.9591 59.8697 83.0923 60.7632 82.8633C61.6571 82.6346 62.4084 82.0714 62.8786 81.2777C63.1694 80.787 63.3311 80.2445 63.3583 79.6907C63.9336 79.8514 64.5436 79.8588 65.1379 79.7069C66.0318 79.4781 66.783 78.9149 67.2532 78.1213C67.5268 77.6596 67.6864 77.152 67.7267 76.6321C69.2932 77.2951 71.1523 76.7132 72.0425 75.2107C72.8243 73.8911 72.6239 72.2573 71.6604 71.1643L72.6722 70.5732C73.6316 71.5417 75.1757 71.789 76.4241 71.045L78.2823 69.9373C78.748 69.6598 78.9005 69.0573 78.6229 68.5918C78.3453 68.126 77.7424 67.9738 77.2774 68.2512L75.4192 69.3589C74.9811 69.6202 74.4477 69.5405 74.104 69.2261C74.0976 69.1709 65.8475 55.3837 65.8475 55.3837C65.5367 54.859 65.71 54.1783 66.2337 53.8661L83.8381 43.3726C83.9278 43.3197 84.0371 43.3828 84.0371 43.4857V63.1371C84.0371 63.8062 83.68 64.4347 83.1054 64.7771L81.2499 65.8832C80.7842 66.1607 80.6318 66.7632 80.9093 67.2287C81.1867 67.6944 81.7896 67.8463 82.2548 67.5693L84.1103 66.4633C85.2758 65.7685 85.9999 64.4941 85.9999 63.1371V43.4858C86 41.861 84.2307 40.8534 82.8331 41.6866V41.6866ZM56.8328 56.7794C57.3791 56.6412 57.9451 56.6771 58.4695 56.883L60.7519 57.7797C62.1141 58.3064 63.6018 58.2486 64.8997 57.6355L71.5917 68.9313L70.5073 69.5649C70.3102 69.6816 70.1213 69.8109 69.9415 69.952L55.6292 61.4763C55.3258 61.2967 54.9493 61.2937 54.6432 61.4682C54.3369 61.6428 54.1478 61.9682 54.1478 62.3209V62.5181C54.1478 63.2162 53.8759 63.8726 53.382 64.3661C52.8885 64.8593 52.2327 65.1307 51.5353 65.1307C51.422 65.1265 51.3221 65.0356 51.322 64.9174V60.2595C51.322 59.2447 51.8901 58.3389 52.7594 57.8852C52.8025 57.8678 52.8447 57.8472 52.8853 57.8237C53.0308 57.7572 53.184 57.703 53.3435 57.6626L56.8328 56.7794ZM30.4223 69.4811C30.1348 69.5539 29.8359 69.5111 29.581 69.3589L21.8946 64.7773C21.3199 64.4347 20.9629 63.8063 20.9629 63.1372V43.4858C20.9629 43.4649 20.9629 43.4092 21.0295 43.3714C21.0544 43.3573 21.0767 43.3523 21.0958 43.3523C21.1278 43.3523 21.1507 43.3659 21.1619 43.3726L38.7664 53.8661C39.2901 54.1783 39.4635 54.859 39.1526 55.3838L31.1027 68.9718C30.9515 69.227 30.7098 69.408 30.4223 69.4811V69.4811ZM35.1125 75.133C34.7196 75.1976 34.3252 75.1051 34.0016 74.8729C33.6782 74.6408 33.4645 74.2966 33.4 73.9038C33.3355 73.5108 33.4278 73.1164 33.66 72.7931L35.0602 70.8426C35.0944 70.795 35.131 70.7501 35.1695 70.7078C35.1986 70.6818 35.2262 70.6536 35.2523 70.6238C35.761 70.1473 36.5533 70.0797 37.1404 70.5011C37.808 70.9804 37.9613 71.9136 37.4819 72.5812C37.4811 72.5822 37.4804 72.5834 37.4796 72.5845L36.0816 74.5317C35.8496 74.8549 35.5053 75.0684 35.1125 75.133V75.133ZM38.0178 77.7562C37.6944 77.524 37.4807 77.1799 37.4162 76.787C37.3517 76.394 37.444 75.9996 37.6763 75.6763L39.0764 73.7258C39.0764 73.7258 39.0764 73.7257 39.0766 73.7257L40.6218 71.5733C40.8539 71.2498 41.1981 71.0363 41.591 70.9716C41.6728 70.9581 41.7545 70.9516 41.8357 70.9516C42.145 70.9516 42.4457 71.0478 42.7019 71.2318C43.3695 71.711 43.5228 72.6441 43.0434 73.3119L40.0978 77.4149C39.6185 78.0824 38.6853 78.2351 38.0178 77.7562V77.7562ZM43.1447 80.8994C42.752 80.9639 42.3575 80.8715 42.034 80.6394C41.3664 80.1602 41.2131 79.227 41.6925 78.5594C41.6932 78.5582 41.694 78.5572 41.6948 78.556L44.6381 74.4563C45.1173 73.7885 46.0505 73.6357 46.7182 74.1147C47.0416 74.3469 47.2553 74.691 47.3198 75.084C47.3843 75.4769 47.2919 75.8714 47.0598 76.1947L44.1141 80.2977C43.8819 80.6212 43.5376 80.8349 43.1447 80.8994V80.8994ZM46.7072 82.6071C46.3839 82.375 46.1702 82.0308 46.1057 81.6378C46.0412 81.245 46.1334 80.8506 46.3657 80.5272C46.3668 80.5258 46.3677 80.5245 46.3686 80.5231L47.3462 79.1613C47.826 78.495 48.7581 78.3423 49.4252 78.8212C50.0928 79.3006 50.2461 80.2337 49.7667 80.9014L49.2067 81.6816C49.2008 81.6894 49.195 81.6975 49.1894 81.7056L48.7873 82.2658C48.3082 82.9332 47.3752 83.0866 46.7072 82.6071V82.6071ZM70.3538 74.2103C69.9347 74.9176 69.0177 75.1522 68.311 74.7331L66.042 73.389C66.0409 73.3885 66.04 73.3878 66.039 73.3873L59.0118 69.2241C58.5453 68.9479 57.9434 69.1019 57.6672 69.5682C57.391 70.0345 57.5449 70.6366 58.0113 70.9127L65.0416 75.0777C65.0416 75.0777 65.0416 75.0777 65.0417 75.0779L65.0426 75.0784C65.7492 75.4978 65.9834 76.4138 65.5646 77.1208C65.3615 77.4636 65.0372 77.7067 64.6513 77.8054C64.2654 77.904 63.8641 77.8468 63.5214 77.6436L61.6719 76.5481C61.6704 76.5472 61.6691 76.5462 61.6675 76.5453C61.6666 76.5448 61.6655 76.5441 61.6646 76.5436L56.4877 73.4767C56.0212 73.2003 55.4193 73.3544 55.1431 73.8207C54.8669 74.2871 55.0207 74.8892 55.4871 75.1653L60.6642 78.2324C60.6652 78.233 60.6663 78.2337 60.6672 78.2342C61.0098 78.4372 61.2531 78.7614 61.3517 79.1473C61.4505 79.5332 61.3929 79.9346 61.19 80.2773C60.987 80.62 60.6627 80.8632 60.2767 80.9618C59.8909 81.0606 59.4895 81.0032 59.1469 80.8002L56.3712 79.1558C56.3694 79.1548 56.3677 79.1536 56.366 79.1526L54.3361 77.9501C53.87 77.6741 53.2679 77.8279 52.9915 78.2944C52.7154 78.7606 52.8693 79.3627 53.3358 79.639L55.3656 80.8414L55.3683 80.843C56.0738 81.2628 56.3072 82.1779 55.8887 82.8845C55.4693 83.592 54.5528 83.8263 53.8456 83.4076L51.4161 81.9683C52.4602 80.4274 52.0916 78.3187 50.5705 77.2266C50.1055 76.8929 49.5851 76.6916 49.0543 76.6152C49.2891 76.0348 49.3611 75.3996 49.257 74.7662C49.1076 73.8559 48.6126 73.0583 47.8633 72.5203C47.0769 71.956 46.1316 71.7701 45.2462 71.927C45.1118 71.038 44.6335 70.2016 43.8471 69.6371C43.0976 69.0992 42.184 68.8853 41.2734 69.0346C40.5132 69.1595 39.8316 69.5254 39.3142 70.0792C39.0732 69.6282 38.7281 69.2243 38.2855 68.9064C37.1126 68.0645 35.586 68.065 34.4321 68.789L33.7362 68.3783L40.4137 57.1069L40.9068 57.3976C41.736 57.889 42.6611 58.1383 43.5931 58.1383C44.236 58.1383 44.8822 58.0196 45.5023 57.7798L47.5217 56.9991C48.7289 56.5327 49.3772 56.5106 50.596 57.1035C49.8212 57.9396 49.3595 59.0552 49.3595 60.2595V64.9174C49.3595 66.1165 50.3343 67.0927 51.5326 67.0936H51.5356C52.7571 67.0936 53.9057 66.6181 54.7699 65.7545C55.2944 65.2304 55.676 64.6014 55.8951 63.9149L69.5652 72.0101C69.6104 72.037 69.657 72.0596 69.7046 72.0784C69.7439 72.1109 69.786 72.1407 69.8313 72.1676C70.5382 72.5866 70.7728 73.503 70.3538 74.2103V74.2103Z" fill="#224156"/>
<path d="M41.2496 44.9954H63.7503C65.7875 44.9954 67.4448 43.338 67.4448 41.3008V27.9136C67.4448 25.8764 65.7875 24.2191 63.7503 24.2191H58.3337V22.6639C58.3337 20.8767 56.8799 19.4224 55.0927 19.4224H49.9069C48.1199 19.4224 46.6659 20.8765 46.6659 22.6639V24.2191H41.2494C39.2121 24.2191 37.5548 25.8764 37.5548 27.9136V35.2882C37.5548 35.8304 37.9942 36.2697 38.5363 36.2697C39.0783 36.2697 39.5177 35.8304 39.5177 35.2882V33.4642C40.5622 34.4015 41.942 34.9724 43.4525 34.9724H44.2207V36.052C44.2207 36.5942 44.6601 37.0335 45.2021 37.0335C45.7441 37.0335 46.1836 36.5942 46.1836 36.052V34.9724H58.8158V36.052C58.8158 36.5942 59.2551 37.0335 59.7973 37.0335C60.3394 37.0335 60.7787 36.5942 60.7787 36.052V34.9724H61.5467C63.0574 34.9724 64.4371 34.4015 65.4817 33.4642V41.3007C65.4817 42.2556 64.7047 43.0323 63.75 43.0323H41.2496C40.2947 43.0323 39.518 42.2554 39.518 41.3007V39.8764C39.518 39.3343 39.0785 38.895 38.5365 38.895C37.9945 38.895 37.5551 39.3343 37.5551 39.8764V41.3007C37.5551 43.338 39.2124 44.9954 41.2496 44.9954V44.9954ZM48.6291 22.6639C48.6291 21.9589 49.2023 21.3853 49.9072 21.3853H55.093C55.7978 21.3853 56.3711 21.9589 56.3711 22.6639V24.2191H48.6292V22.6639H48.6291ZM61.5471 33.0096H60.7791V31.93C60.7791 31.3878 60.3398 30.9485 59.7976 30.9485C59.2555 30.9485 58.8162 31.3878 58.8162 31.93V33.0096H46.1839V31.93C46.1839 31.3878 45.7445 30.9485 45.2025 30.9485C44.6605 30.9485 44.2211 31.3878 44.2211 31.93V33.0096H43.4529C41.2833 33.0096 39.5181 31.2444 39.5181 29.0747V27.9136C39.5181 26.9587 40.2949 26.182 41.2498 26.182H63.7504C64.7053 26.182 65.4821 26.9589 65.4821 27.9136V29.0747C65.4821 31.2444 63.7169 33.0096 61.5471 33.0096Z" fill="#224156"/>
</g>
<defs>
<clipPath id="clip0">
<rect width="67" height="67" fill="white" transform="translate(19 19)"/>
</clipPath>
</defs>
</svg>
