<svg width="105" height="105" viewBox="0 0 105 105" fill="none" xmlns="http://www.w3.org/2000/svg">
<circle cx="52.5" cy="52.5" r="51.5" fill="#F5F9FF" stroke="#224156" stroke-width="2"/>
<path d="M59.0282 72.2992L64.1537 67.1649L65.4689 66.811L69.7512 82.7926L62.7275 80.5601L57.7617 86.0056L53.7073 70.8786L59.0282 72.2992Z" fill="#F07281"/>
<path d="M66.1552 69.3708L65.5272 69.5391L59.822 75.2536L54.4995 73.832L53.7073 70.8786L59.0283 72.2989L64.1533 67.1648L65.4689 66.811L66.1552 69.3708Z" fill="#FEC86A"/>
<path d="M59.3119 72.0166L61.8571 81.5151L57.7617 86.0067L53.7073 70.8797L59.0283 72.3L59.3119 72.0166Z" fill="#EB5569"/>
<path d="M39.8797 67.1872L45.0141 72.3128L50.2849 70.8961L46.2359 86.0071L41.27 80.5617L34.2464 82.7941L38.526 66.8258L39.8797 67.1872Z" fill="#F07281"/>
<path d="M50.2847 70.8961L49.4925 73.852L44.2245 75.2698L38.51 69.5645L37.8395 69.3856L38.5258 66.8258L39.8799 67.1876L45.0141 72.3124L50.2847 70.8961Z" fill="#FEC86A"/>
<path d="M43.9623 71.2593L41.4237 80.7288L41.27 80.5592L34.2464 82.7917L38.526 66.8234L39.8801 67.1851L43.9623 71.2593Z" fill="#EB5569"/>
<path d="M66.1574 69.3708L65.5295 69.5391L59.8243 75.2536L54.5018 73.832L53.7096 70.8786L59.0306 72.2989L64.1556 67.1648L65.4712 66.811L66.1574 69.3708Z" fill="#EB5569"/>
<path d="M50.287 70.8945L49.4948 73.8503L44.2268 75.2681L38.5122 69.5629L37.8418 69.384L38.528 66.8242L39.8822 67.1859L45.0163 72.3108L50.287 70.8945Z" fill="#EB5569"/>
<path d="M71.1605 65.2825L64.1543 67.1662L59.0288 72.3005L52.0195 70.4289L45.0134 72.3125L39.879 67.1869L32.8697 65.3152L30.986 58.3091L25.8517 53.1836L27.7233 46.1743L25.8397 39.1681L30.9653 34.0337L32.837 27.0244L39.8431 25.1407L44.9686 20.0065L51.978 21.8781L58.9841 19.9944L64.1185 25.12L71.1278 26.9917L73.0115 33.9979L78.1457 39.1234L76.2741 46.1327L78.1578 53.1388L73.0322 58.2732L71.1605 65.2825Z" fill="#FFB93E"/>
<path d="M51.9989 66.0284C62.9752 66.0284 71.8732 57.1303 71.8732 46.1541C71.8732 35.1778 62.9752 26.2797 51.9989 26.2797C41.0226 26.2797 32.1245 35.1778 32.1245 46.1541C32.1245 57.1303 41.0226 66.0284 51.9989 66.0284Z" fill="#FFB93E"/>
<path d="M56.6361 65.4839C55.1483 65.8404 53.5954 66.0284 51.9989 66.0284C41.023 66.0284 32.1245 57.13 32.1245 46.1541C32.1245 35.1782 41.023 26.2798 51.9989 26.2798C53.5954 26.2798 55.1483 26.468 56.6361 26.8243C47.8968 28.9124 41.3992 36.7748 41.3992 46.1541C41.3991 55.5336 47.8967 63.3958 56.6361 65.4839V65.4839Z" fill="#FEC86A"/>
<path d="M44.7089 41.0106V58.5199H36.4412C33.7383 55.1253 32.1245 50.8273 32.1245 46.1528C32.1245 44.3747 32.3578 42.6509 32.7963 41.0107H44.7089V41.0106Z" fill="#2A4E96"/>
<path d="M44.7089 41.0106V58.5199H36.4412C33.7383 55.1253 32.1245 50.8273 32.1245 46.1528C32.1245 44.3747 32.3578 42.6509 32.7963 41.0107H44.7089V41.0106Z" fill="#2A4E96"/>
<path d="M59.9964 53.9052H61.0156C62.1414 53.9052 63.054 54.8177 63.054 55.9436C63.054 57.0693 62.1415 57.982 61.0156 57.982H50.0829C49.5324 57.982 48.9996 57.7955 48.5626 57.4604C47.4102 56.5768 46.1908 56.3897 44.7086 56.3017V43.3398C48.1943 39.3572 52.6115 38.983 52.3025 33.0317C52.2489 32.0019 53.0696 31.1373 54.1009 31.1373C54.8897 31.1373 55.5909 31.6493 55.8211 32.4036C56.7566 35.47 56.9906 38.5134 55.7555 41.6751H63.2098C64.3355 41.6751 65.2482 42.5877 65.2482 43.7136C65.2482 44.8393 64.3357 45.752 63.2098 45.752H60.674H62.5196C63.6453 45.752 64.558 46.6645 64.558 47.7904C64.558 48.9161 63.6455 49.8288 62.5196 49.8288H60.674H61.842C62.9677 49.8288 63.8804 50.7413 63.8804 51.8672C63.8804 52.9929 62.9678 53.9056 61.842 53.9056H59.9964V53.9052Z" fill="#FFF3DE"/>
<path d="M59.9964 53.9052H61.0156C62.1414 53.9052 63.054 54.8177 63.054 55.9436C63.054 57.0693 62.1415 57.982 61.0156 57.982H50.0829C49.5324 57.982 48.9996 57.7955 48.5626 57.4604C47.4102 56.5768 46.1908 56.3897 44.7086 56.3017V43.3398C48.1943 39.3572 52.6115 38.983 52.3025 33.0317C52.2489 32.0019 53.0696 31.1373 54.1009 31.1373C54.8897 31.1373 55.5909 31.6493 55.8211 32.4036C56.7566 35.47 56.9906 38.5134 55.7555 41.6751H63.2098C64.3355 41.6751 65.2482 42.5877 65.2482 43.7136C65.2482 44.8393 64.3357 45.752 63.2098 45.752H60.674H62.5196C63.6453 45.752 64.558 46.6645 64.558 47.7904C64.558 48.9161 63.6455 49.8288 62.5196 49.8288H60.674H61.842C62.9677 49.8288 63.8804 50.7413 63.8804 51.8672C63.8804 52.9929 62.9678 53.9056 61.842 53.9056H59.9964V53.9052Z" fill="#F1B0A2"/>
<path d="M56.573 38.0572C55.2163 39.6386 53.1552 40.6733 51.2449 42.546C50.7665 43.015 50.4933 43.6546 50.4933 44.3245V54.1057C50.4933 55.2577 51.2723 56.2772 52.3928 56.5448C53.305 56.7626 54.1299 57.1698 54.9376 57.9817H50.0827C49.5323 57.9817 48.9996 57.7954 48.5628 57.4606C47.4103 56.5772 46.1907 56.39 44.7088 56.3018V43.3402C48.1969 39.3546 52.6179 38.9828 52.3014 33.019C52.2478 31.9943 53.0741 31.1373 54.1004 31.1373C54.4946 31.1373 54.868 31.2653 55.1706 31.4876C55.473 31.71 55.7061 32.0255 55.821 32.4032C56.3953 34.2857 56.7051 36.159 56.573 38.0572V38.0572Z" fill="#F0C6B4"/>
<path d="M79.1196 52.8797L77.3055 46.1316L79.108 39.3809C79.1998 39.037 79.1013 38.6704 78.8495 38.4189L73.9038 33.4823L72.0898 26.7343C71.9974 26.3905 71.7286 26.1223 71.3847 26.0305L64.6342 24.228L59.6884 19.2912C59.4364 19.0398 59.0696 18.9416 58.7261 19.0343L51.9779 20.8483L45.2274 19.0459C44.8838 18.9542 44.517 19.0525 44.2654 19.3046L39.3289 24.2501L32.5807 26.0642C32.237 26.1565 31.9689 26.4253 31.877 26.7692L30.0744 33.5199L25.1378 38.4656C24.8862 38.7174 24.7884 39.0842 24.8807 39.4279L26.6947 46.1748L25.5775 50.3594C25.4357 50.8909 25.7515 51.4368 26.283 51.5788C26.8145 51.721 27.3604 51.4048 27.5024 50.8733L28.6885 46.4307C28.7337 46.2618 28.7336 46.0839 28.6881 45.9151L26.954 39.4659L31.6728 34.7384C31.7965 34.6147 31.8852 34.4606 31.9302 34.2918L33.6534 27.8387L40.1039 26.1047C40.2727 26.0593 40.4267 25.9703 40.5503 25.8465L45.2691 21.1191L51.7219 22.8421C51.8907 22.8872 52.0685 22.8869 52.2375 22.8417L58.688 21.1077L63.4155 25.8266C63.5393 25.9501 63.6933 26.0388 63.8621 26.084L70.3151 27.807L72.0491 34.2574C72.0945 34.4262 72.1836 34.5803 72.3073 34.7038L77.0348 39.4227L75.3117 45.8755C75.2666 46.0445 75.2667 46.2223 75.3121 46.3911L77.0463 52.8417L72.3273 57.5693C72.2038 57.693 72.1151 57.8471 72.0699 58.0159L70.3468 64.4687L63.8967 66.2026C63.7277 66.248 63.5735 66.3371 63.45 66.4609L58.7312 71.1884L52.2789 69.4643C52.1096 69.419 51.9316 69.4192 51.7624 69.4647L45.3122 71.1999L40.5848 66.481C40.4609 66.3575 40.3068 66.2686 40.138 66.2236L38.7881 65.8629C38.7872 65.8626 38.7864 65.8622 38.7854 65.8621C38.7845 65.8618 38.7836 65.8617 38.7827 65.8614L33.6853 64.4994L31.9512 58.0502C31.9056 57.8812 31.8167 57.7273 31.6929 57.6038L28.3341 54.2516C27.9445 53.863 27.3138 53.8637 26.9254 54.2531C26.5368 54.6425 26.5375 55.2731 26.9269 55.6617L30.0967 58.8253L31.9107 65.5719C32.0031 65.9155 32.2718 66.1837 32.6155 66.2755L37.3075 67.5293L33.2864 82.5333C33.1921 82.8849 33.2972 83.2601 33.5605 83.5115C33.8237 83.7629 34.2032 83.851 34.5502 83.7405L40.9653 81.7013L45.501 86.6751C45.6921 86.8846 45.9605 86.9999 46.237 86.9999C46.3154 86.9999 46.3945 86.9906 46.4725 86.9716C46.8263 86.8856 47.1049 86.6133 47.1991 86.2616L51.0994 71.7058L52.0223 71.4576L52.8962 71.6911L56.8008 86.2616C56.8949 86.6132 57.1736 86.8854 57.5274 86.9716C57.6055 86.9906 57.6845 86.9999 57.7629 86.9999C58.0394 86.9999 58.3078 86.8846 58.4989 86.6751L63.0348 81.7011L69.4501 83.7405C69.7971 83.851 70.1767 83.7629 70.4398 83.5115C70.703 83.2601 70.8082 82.885 70.7139 82.5333L69.0989 76.5063C68.9567 75.9751 68.4103 75.6598 67.8789 75.802C67.3475 75.9444 67.0322 76.4906 67.1746 77.022L68.3182 81.2903L63.0305 79.6093C62.66 79.4915 62.2547 79.6 61.9927 79.8874L58.2537 83.9875L55.1176 72.2849L58.7728 73.2614C59.1162 73.3532 59.4833 73.2548 59.7349 73.0027L64.6714 68.0572L64.7658 68.0318L66.0113 72.6816C66.1304 73.1268 66.533 73.4203 66.9727 73.4203C67.0581 73.4203 67.1448 73.4093 67.231 73.3861C67.7624 73.2438 68.0779 72.6976 67.9355 72.1663L66.6894 67.5148L71.4194 66.2432C71.7631 66.1508 72.0313 65.8821 72.1232 65.5383L73.9257 58.7876L78.8625 53.8419C79.114 53.5901 79.2119 53.2233 79.1196 52.8797V52.8797ZM45.7461 83.9873L42.0076 79.8876C41.7454 79.6003 41.3404 79.4918 40.9698 79.6095L35.682 81.2902L39.2322 68.0434L39.3665 68.0792L44.312 73.0159C44.5013 73.2047 44.7554 73.307 45.0158 73.307C45.102 73.307 45.189 73.2958 45.2744 73.2729L48.8769 72.3039L45.7461 83.9873Z" fill="#224156"/>
<path d="M52.0003 27.2776C54.7696 27.2776 57.4366 27.8632 59.9272 29.018C60.4267 29.2496 61.0185 29.0323 61.2499 28.5333C61.4814 28.0342 61.2644 27.442 60.7654 27.2107C58.01 25.9331 55.0612 25.2854 52.0004 25.2854C42.5755 25.2854 34.2952 31.628 31.8485 40.7144C31.8476 40.7174 31.8468 40.7206 31.8459 40.7238C31.8431 40.7342 31.84 40.7444 31.8372 40.7546C31.3691 42.5072 31.1316 44.3239 31.1316 46.1542C31.1316 50.9267 32.6992 55.4175 35.6646 59.1405C35.6666 59.143 35.6687 59.1454 35.6706 59.1478C35.6735 59.1514 35.6764 59.1551 35.6795 59.1587C39.6647 64.1568 45.6119 67.0231 52.0003 67.0231C63.5074 67.0231 72.8691 57.6614 72.8691 46.1542C72.8691 39.9288 70.1191 34.0743 65.3243 30.0919C64.9012 29.7405 64.2731 29.7985 63.9215 30.2218C63.57 30.645 63.6282 31.273 64.0514 31.6245C68.3891 35.2272 70.8769 40.5231 70.8769 46.1544C70.8769 56.563 62.4089 65.031 52.0003 65.031C46.9423 65.031 42.1898 63.0445 38.6652 59.5166H44.7109C45.2611 59.5166 45.707 59.0706 45.707 58.5205V57.3915C46.6028 57.5122 47.2957 57.7424 47.9584 58.2504C48.5699 58.7192 49.325 58.9774 50.0846 58.9774H61.0167C62.6898 58.9774 64.051 57.6162 64.051 55.943C64.051 55.3564 63.8837 54.808 63.5943 54.3433C64.3702 53.7931 64.8774 52.888 64.8774 51.8666C64.8774 51.2483 64.6914 50.6725 64.3726 50.1923C65.0912 49.6368 65.5549 48.7667 65.5549 47.7902C65.5549 47.1746 65.3705 46.6011 65.0542 46.1224C65.7776 45.5673 66.245 44.6941 66.245 43.7138C66.245 42.0406 64.8838 40.6794 63.2106 40.6794H57.1365C57.8625 38.0391 57.7411 35.2801 56.7752 32.1141C56.4154 30.9347 55.3413 30.1424 54.1023 30.1424C53.339 30.1424 52.5998 30.4599 52.0741 31.0135C51.5485 31.5672 51.2695 32.3221 51.3091 33.0845C51.4915 36.5937 49.9323 37.7574 47.5719 39.5188C46.979 39.9612 46.3449 40.4351 45.7052 40.9796C45.6877 40.4449 45.2498 40.0164 44.7107 40.0164H34.1442C36.7385 32.4538 43.902 27.2776 52.0003 27.2776ZM48.7634 41.1152C51.2178 39.2834 53.5363 37.5534 53.2987 32.9811C53.2871 32.7585 53.3652 32.5468 53.5187 32.385C53.6721 32.2234 53.8793 32.1344 54.1022 32.1344C54.4533 32.1344 54.7689 32.365 54.8694 32.6953C55.8645 35.9565 55.8516 38.6948 54.8288 41.3131C54.7091 41.6196 54.7486 41.9655 54.9341 42.2372C55.1197 42.5089 55.4276 42.6715 55.7566 42.6715H63.2103C63.785 42.6715 64.2525 43.139 64.2525 43.7137C64.2525 44.2883 63.785 44.7558 63.2103 44.7558H60.6748C60.1246 44.7558 59.6787 45.2018 59.6787 45.7519C59.6787 46.302 60.1246 46.748 60.6748 46.748H62.5202C63.0948 46.748 63.5624 47.2155 63.5624 47.7901C63.5624 48.3648 63.0948 48.8323 62.5202 48.8323H60.6748C60.1246 48.8323 59.6787 49.2782 59.6787 49.8284C59.6787 50.3785 60.1246 50.8244 60.6748 50.8244H61.8426C62.4173 50.8244 62.8848 51.2919 62.8848 51.8666C62.8848 52.4413 62.4173 52.9088 61.8426 52.9088H59.9971C59.4468 52.9088 59.001 53.3548 59.001 53.9049C59.001 54.455 59.4468 54.901 59.9971 54.901H61.0163C61.5909 54.901 62.0584 55.3685 62.0584 55.9432C62.0584 56.5179 61.5909 56.9854 61.0163 56.9854H50.0842C49.7604 56.9854 49.4357 56.8731 49.1701 56.6695C48.0419 55.8044 46.8594 55.5113 45.7066 55.3835V43.7234C46.6878 42.6651 47.7415 41.8779 48.7634 41.1152V41.1152ZM43.7148 43.5688C43.7148 43.5697 43.7146 43.5705 43.7146 43.5713V56.5322C43.7146 56.5331 43.7148 56.5339 43.7148 56.5347V57.5242H36.9322C34.4392 54.2324 33.1236 50.3118 33.1236 46.1541C33.1236 44.7536 33.2789 43.3626 33.5822 42.0084H43.7148V43.5688Z" fill="#224156"/>
</svg>
