<svg width="120" height="53" viewBox="0 0 120 53" fill="none" xmlns="http://www.w3.org/2000/svg">
<path d="M4.788 40.18C4.236 40.18 3.792 40.012 3.456 39.676C3.12 39.34 2.952 38.884 2.952 38.308V16.312C2.952 15.76 3.12 15.316 3.456 14.98C3.792 14.62 4.236 14.44 4.788 14.44C5.364 14.44 5.82 14.608 6.156 14.944C6.492 15.28 6.66 15.736 6.66 16.312V38.308C6.66 38.884 6.492 39.34 6.156 39.676C5.844 40.012 5.388 40.18 4.788 40.18Z" fill="#1F5FBF"/>
<path d="M19.2097 40.252C17.4817 40.252 15.9577 39.88 14.6377 39.136C13.3417 38.392 12.3337 37.336 11.6137 35.968C10.9177 34.576 10.5697 32.968 10.5697 31.144C10.5697 29.296 10.9177 27.688 11.6137 26.32C12.3337 24.928 13.3417 23.86 14.6377 23.116C15.9577 22.372 17.4817 22 19.2097 22C20.9377 22 22.4497 22.372 23.7457 23.116C25.0657 23.86 26.0737 24.928 26.7697 26.32C27.4897 27.688 27.8497 29.296 27.8497 31.144C27.8497 32.968 27.4897 34.576 26.7697 35.968C26.0737 37.336 25.0657 38.392 23.7457 39.136C22.4497 39.88 20.9377 40.252 19.2097 40.252ZM19.2097 37.372C20.8177 37.372 22.0417 36.844 22.8817 35.788C23.7457 34.732 24.1777 33.184 24.1777 31.144C24.1777 29.128 23.7457 27.592 22.8817 26.536C22.0177 25.456 20.7937 24.916 19.2097 24.916C17.6257 24.916 16.4017 25.456 15.5377 26.536C14.6737 27.592 14.2417 29.128 14.2417 31.144C14.2417 33.184 14.6617 34.732 15.5017 35.788C16.3657 36.844 17.6017 37.372 19.2097 37.372ZM33.122 40.18C32.57 40.18 32.126 40.024 31.79 39.712C31.454 39.4 31.286 38.98 31.286 38.452V23.8C31.286 23.272 31.454 22.852 31.79 22.54C32.126 22.228 32.57 22.072 33.122 22.072C33.674 22.072 34.106 22.228 34.418 22.54C34.754 22.852 34.922 23.272 34.922 23.8V29.56H43.562V23.8C43.562 23.272 43.73 22.852 44.066 22.54C44.402 22.228 44.846 22.072 45.398 22.072C45.95 22.072 46.382 22.228 46.694 22.54C47.03 22.852 47.198 23.272 47.198 23.8L47.234 38.344C47.234 38.896 47.066 39.34 46.73 39.676C46.394 40.012 45.95 40.18 45.398 40.18C44.846 40.18 44.402 40.012 44.066 39.676C43.73 39.34 43.562 38.896 43.562 38.344V32.44H34.922V38.452C34.922 38.98 34.754 39.4 34.418 39.712C34.106 40.024 33.674 40.18 33.122 40.18ZM86.1542 40.252C84.4262 40.252 82.9022 39.88 81.5822 39.136C80.2862 38.392 79.2782 37.336 78.5582 35.968C77.8622 34.576 77.5142 32.968 77.5142 31.144C77.5142 29.296 77.8622 27.688 78.5582 26.32C79.2782 24.928 80.2862 23.86 81.5822 23.116C82.9022 22.372 84.4262 22 86.1542 22C87.8822 22 89.3942 22.372 90.6902 23.116C92.0102 23.86 93.0182 24.928 93.7142 26.32C94.4342 27.688 94.7942 29.296 94.7942 31.144C94.7942 32.968 94.4342 34.576 93.7142 35.968C93.0182 37.336 92.0102 38.392 90.6902 39.136C89.3942 39.88 87.8822 40.252 86.1542 40.252ZM86.1542 37.372C87.7622 37.372 88.9862 36.844 89.8262 35.788C90.6902 34.732 91.1222 33.184 91.1222 31.144C91.1222 29.128 90.6902 27.592 89.8262 26.536C88.9622 25.456 87.7382 24.916 86.1542 24.916C84.5702 24.916 83.3462 25.456 82.4822 26.536C81.6182 27.592 81.1862 29.128 81.1862 31.144C81.1862 33.184 81.6062 34.732 82.4462 35.788C83.3102 36.844 84.5462 37.372 86.1542 37.372ZM115.043 22.072C115.619 22.072 116.075 22.228 116.411 22.54C116.747 22.852 116.915 23.284 116.915 23.836V38.524C116.915 39.004 116.759 39.4 116.447 39.712C116.135 40.024 115.727 40.18 115.223 40.18C114.743 40.18 114.335 40.024 113.999 39.712C113.687 39.4 113.531 38.992 113.531 38.488L113.567 28.084L109.211 36.112C109.043 36.424 108.815 36.676 108.527 36.868C108.239 37.036 107.927 37.12 107.591 37.12C107.231 37.12 106.907 37.036 106.619 36.868C106.331 36.676 106.103 36.424 105.935 36.112L101.579 28.084L101.615 38.488C101.615 38.992 101.447 39.4 101.111 39.712C100.799 40.024 100.403 40.18 99.9225 40.18C99.4185 40.18 99.0105 40.024 98.6985 39.712C98.3865 39.4 98.2305 39.004 98.2305 38.524V23.944C98.2305 23.392 98.3865 22.948 98.6985 22.612C99.0345 22.252 99.4665 22.072 99.9945 22.072C100.475 22.072 100.883 22.156 101.219 22.324C101.579 22.492 101.879 22.828 102.119 23.332L107.591 33.628L112.919 23.512C113.207 22.984 113.507 22.612 113.819 22.396C114.131 22.18 114.539 22.072 115.043 22.072Z" fill="#224156"/>
<g clip-path="url(#clip0)">
<path d="M74.2264 26.5116C74.2259 26.5111 74.2253 26.5105 74.2248 26.51L64.4873 16.7729C64.0722 16.3577 63.5204 16.1289 62.9334 16.1289C62.3465 16.1289 61.7946 16.3575 61.3794 16.7727L51.647 26.5049C51.6438 26.5082 51.6405 26.5116 51.6372 26.5149C50.7849 27.3721 50.7863 28.763 51.6414 29.6181C52.032 30.0089 52.548 30.2353 53.0996 30.2589C53.122 30.2611 53.1446 30.2622 53.1674 30.2622H53.5555V37.4281C53.5555 38.8461 54.7092 39.9999 56.1276 39.9999H59.9372C60.3233 39.9999 60.6365 39.6868 60.6365 39.3005V33.6825C60.6365 33.0354 61.1629 32.5091 61.8099 32.5091H64.0569C64.704 32.5091 65.2303 33.0354 65.2303 33.6825V39.3005C65.2303 39.6868 65.5434 39.9999 65.9297 39.9999H69.7393C71.1577 39.9999 72.3114 38.8461 72.3114 37.4281V30.2622H72.6713C73.2581 30.2622 73.8099 30.0337 74.2253 29.6184C75.0813 28.7619 75.0816 27.3687 74.2264 26.5116Z" fill="#224156"/>
</g>
<path d="M63.9302 4.98925C66.3043 4.98925 68.5812 5.93236 70.2599 7.61111C71.9387 9.28987 72.8818 11.5667 72.8818 13.9409C72.8818 14.2047 72.9866 14.4576 73.1731 14.6442C73.3596 14.8307 73.6126 14.9355 73.8764 14.9355C74.1402 14.9355 74.3932 14.8307 74.5797 14.6442C74.7662 14.4576 74.871 14.2047 74.871 13.9409C74.871 11.0392 73.7183 8.25631 71.6665 6.2045C69.6147 4.15269 66.8319 3 63.9302 3C63.6664 3 63.4134 3.10479 63.2269 3.29132C63.0403 3.47785 62.9355 3.73083 62.9355 3.99462C62.9355 4.25841 63.0403 4.5114 63.2269 4.69793C63.4134 4.88446 63.6664 4.98925 63.9302 4.98925Z" fill="#224156"/>
<path d="M63.9799 8.66928C65.3648 8.66928 66.693 9.21943 67.6723 10.1987C68.6515 11.178 69.2017 12.5061 69.2017 13.8911C69.2017 14.168 69.3117 14.4337 69.5076 14.6295C69.7034 14.8254 69.9691 14.9354 70.246 14.9354C70.523 14.9354 70.7886 14.8254 70.9845 14.6295C71.1804 14.4337 71.2904 14.168 71.2904 13.8911C71.2904 11.9522 70.5202 10.0927 69.1492 8.72176C67.7782 7.35078 65.9188 6.58057 63.9799 6.58057C63.7029 6.58057 63.4373 6.6906 63.2414 6.88645C63.0456 7.08231 62.9355 7.34794 62.9355 7.62492C62.9355 7.9019 63.0456 8.16754 63.2414 8.36339C63.4373 8.55925 63.7029 8.66928 63.9799 8.66928Z" fill="#224156"/>
<path d="M63.8307 13.1453C64.0681 13.1453 64.2958 13.2396 64.4637 13.4075C64.6316 13.5754 64.7259 13.8031 64.7259 14.0405C64.7259 14.2779 64.8202 14.5056 64.9881 14.6734C65.1559 14.8413 65.3836 14.9356 65.621 14.9356C65.8584 14.9356 66.0861 14.8413 66.254 14.6734C66.4219 14.5056 66.5162 14.2779 66.5162 14.0405C66.5162 13.3282 66.2333 12.6452 65.7296 12.1415C65.226 11.6379 64.5429 11.355 63.8307 11.355C63.5933 11.355 63.3656 11.4493 63.1977 11.6172C63.0299 11.785 62.9355 12.0127 62.9355 12.2501C62.9355 12.4876 63.0299 12.7152 63.1977 12.8831C63.3656 13.051 63.5933 13.1453 63.8307 13.1453Z" fill="#224156"/>
<defs>
<clipPath id="clip0">
<rect width="23.871" height="23.871" fill="white" transform="translate(51 16.1289)"/>
</clipPath>
</defs>
</svg>
