<svg width="139" height="53" viewBox="0 0 139 53" fill="none" xmlns="http://www.w3.org/2000/svg">
<path d="M20.376 15.484C20.64 15.1 20.928 14.836 21.24 14.692C21.552 14.524 21.984 14.44 22.536 14.44C23.088 14.44 23.52 14.596 23.832 14.908C24.168 15.22 24.336 15.664 24.336 16.24V38.344C24.336 38.896 24.168 39.34 23.832 39.676C23.496 40.012 23.052 40.18 22.5 40.18C21.948 40.18 21.504 40.012 21.168 39.676C20.832 39.34 20.664 38.896 20.664 38.344V20.128L7.128 38.848C6.744 39.376 6.384 39.736 6.048 39.928C5.712 40.096 5.28 40.18 4.752 40.18C4.2 40.18 3.756 40.024 3.42 39.712C3.108 39.4 2.952 38.956 2.952 38.38V16.276C2.952 15.724 3.12 15.28 3.456 14.944C3.792 14.608 4.236 14.44 4.788 14.44C5.34 14.44 5.784 14.608 6.12 14.944C6.456 15.28 6.624 15.724 6.624 16.276V34.456L20.376 15.484ZM36.1732 40.252C34.4453 40.252 32.9212 39.88 31.6012 39.136C30.3052 38.392 29.2972 37.336 28.5772 35.968C27.8812 34.576 27.5332 32.968 27.5332 31.144C27.5332 29.296 27.8812 27.688 28.5772 26.32C29.2972 24.928 30.3052 23.86 31.6012 23.116C32.9212 22.372 34.4453 22 36.1732 22C37.9012 22 39.4133 22.372 40.7093 23.116C42.0293 23.86 43.0373 24.928 43.7333 26.32C44.4533 27.688 44.8133 29.296 44.8133 31.144C44.8133 32.968 44.4533 34.576 43.7333 35.968C43.0373 37.336 42.0293 38.392 40.7093 39.136C39.4133 39.88 37.9012 40.252 36.1732 40.252ZM36.1732 37.372C37.7812 37.372 39.0052 36.844 39.8452 35.788C40.7093 34.732 41.1413 33.184 41.1413 31.144C41.1413 29.128 40.7093 27.592 39.8452 26.536C38.9813 25.456 37.7573 24.916 36.1732 24.916C34.5892 24.916 33.3652 25.456 32.5013 26.536C31.6373 27.592 31.2053 29.128 31.2053 31.144C31.2053 33.184 31.6253 34.732 32.4652 35.788C33.3292 36.844 34.5652 37.372 36.1732 37.372ZM49.3656 40.18C48.8136 40.18 48.3696 40.024 48.0336 39.712C47.6976 39.4 47.5296 38.98 47.5296 38.452V23.8C47.5296 23.272 47.6976 22.852 48.0336 22.54C48.3696 22.228 48.8136 22.072 49.3656 22.072C49.9176 22.072 50.3496 22.228 50.6616 22.54C50.9976 22.852 51.1656 23.272 51.1656 23.8V29.56H59.8056V23.8C59.8056 23.272 59.9736 22.852 60.3096 22.54C60.6456 22.228 61.0896 22.072 61.6416 22.072C62.1936 22.072 62.6256 22.228 62.9376 22.54C63.2736 22.852 63.4416 23.272 63.4416 23.8L63.4776 38.344C63.4776 38.896 63.3096 39.34 62.9736 39.676C62.6376 40.012 62.1936 40.18 61.6416 40.18C61.0896 40.18 60.6456 40.012 60.3096 39.676C59.9736 39.34 59.8056 38.896 59.8056 38.344V32.44H51.1656V38.452C51.1656 38.98 50.9976 39.4 50.6616 39.712C50.3496 40.024 49.9176 40.18 49.3656 40.18ZM99.5178 40.252C97.7898 40.252 96.2658 39.88 94.9458 39.136C93.6498 38.392 92.6418 37.336 91.9218 35.968C91.2258 34.576 90.8778 32.968 90.8778 31.144C90.8778 29.296 91.2258 27.688 91.9218 26.32C92.6418 24.928 93.6498 23.86 94.9458 23.116C96.2658 22.372 97.7898 22 99.5178 22C101.246 22 102.758 22.372 104.054 23.116C105.374 23.86 106.382 24.928 107.078 26.32C107.798 27.688 108.158 29.296 108.158 31.144C108.158 32.968 107.798 34.576 107.078 35.968C106.382 37.336 105.374 38.392 104.054 39.136C102.758 39.88 101.246 40.252 99.5178 40.252ZM99.5178 37.372C101.126 37.372 102.35 36.844 103.19 35.788C104.054 34.732 104.486 33.184 104.486 31.144C104.486 29.128 104.054 27.592 103.19 26.536C102.326 25.456 101.102 24.916 99.5178 24.916C97.9338 24.916 96.7098 25.456 95.8458 26.536C94.9818 27.592 94.5498 29.128 94.5498 31.144C94.5498 33.184 94.9698 34.732 95.8098 35.788C96.6738 36.844 97.9098 37.372 99.5178 37.372ZM127.686 22.072C128.262 22.072 128.718 22.228 129.054 22.54C129.39 22.852 129.558 23.284 129.558 23.836V38.524C129.558 39.004 129.402 39.4 129.09 39.712C128.778 40.024 128.37 40.18 127.866 40.18C127.386 40.18 126.978 40.024 126.642 39.712C126.33 39.4 126.174 38.992 126.174 38.488L126.21 28.084L121.854 36.112C121.686 36.424 121.458 36.676 121.17 36.868C120.882 37.036 120.57 37.12 120.234 37.12C119.874 37.12 119.55 37.036 119.262 36.868C118.974 36.676 118.746 36.424 118.578 36.112L114.222 28.084L114.258 38.488C114.258 38.992 114.09 39.4 113.754 39.712C113.442 40.024 113.046 40.18 112.566 40.18C112.062 40.18 111.654 40.024 111.342 39.712C111.03 39.4 110.874 39.004 110.874 38.524V23.944C110.874 23.392 111.03 22.948 111.342 22.612C111.678 22.252 112.11 22.072 112.638 22.072C113.118 22.072 113.526 22.156 113.862 22.324C114.222 22.492 114.522 22.828 114.762 23.332L120.234 33.628L125.562 23.512C125.85 22.984 126.15 22.612 126.462 22.396C126.774 22.18 127.182 22.072 127.686 22.072Z" fill="white"/>
<g clip-path="url(#clip0)">
<path d="M88.2443 26.876C88.2437 26.8755 88.2432 26.875 88.2427 26.8744L78.7684 17.4005C78.3645 16.9965 77.8276 16.7739 77.2565 16.7739C76.6854 16.7739 76.1485 16.9963 75.7445 17.4003L66.2752 26.8695C66.272 26.8727 66.2688 26.876 66.2656 26.8792C65.4363 27.7133 65.4377 29.0666 66.2697 29.8985C66.6497 30.2788 67.1518 30.499 67.6885 30.5221C67.7103 30.5242 67.7323 30.5253 67.7544 30.5253H68.132V37.4975C68.132 38.8772 69.2546 39.9997 70.6346 39.9997H74.3412C74.7169 39.9997 75.0217 39.6951 75.0217 39.3193V33.8531C75.0217 33.2235 75.5338 32.7114 76.1634 32.7114H78.3497C78.9792 32.7114 79.4913 33.2235 79.4913 33.8531V39.3193C79.4913 39.6951 79.796 39.9997 80.1718 39.9997H83.8784C85.2585 39.9997 86.381 38.8772 86.381 37.4975V30.5253H86.7312C87.3021 30.5253 87.839 30.3029 88.2432 29.8989C89.076 29.0655 89.0764 27.7099 88.2443 26.876Z" fill="white"/>
</g>
<path d="M78.2259 5.93548C80.5358 5.93548 82.7512 6.85311 84.3845 8.48649C86.0179 10.1199 86.9356 12.3352 86.9356 14.6452C86.9356 14.9018 87.0375 15.148 87.219 15.3295C87.4005 15.5109 87.6466 15.6129 87.9033 15.6129C88.16 15.6129 88.4061 15.5109 88.5876 15.3295C88.7691 15.148 88.871 14.9018 88.871 14.6452C88.871 11.8219 87.7495 9.11425 85.7531 7.1179C83.7568 5.12154 81.0491 4 78.2259 4C77.9692 4 77.7231 4.10196 77.5416 4.28345C77.3601 4.46493 77.2581 4.71108 77.2581 4.96774C77.2581 5.2244 77.3601 5.47055 77.5416 5.65204C77.7231 5.83353 77.9692 5.93548 78.2259 5.93548Z" fill="white"/>
<path d="M78.2743 9.51663C79.6217 9.51663 80.914 10.0519 81.8668 11.0047C82.8196 11.9575 83.3549 13.2498 83.3549 14.5973C83.3549 14.8668 83.462 15.1252 83.6525 15.3158C83.8431 15.5064 84.1015 15.6134 84.371 15.6134C84.6405 15.6134 84.899 15.5064 85.0895 15.3158C85.2801 15.1252 85.3872 14.8668 85.3872 14.5973C85.3872 12.7108 84.6378 10.9016 83.3038 9.5677C81.9699 8.23377 80.1607 7.48438 78.2743 7.48438C78.0048 7.48437 77.7463 7.59143 77.5557 7.78199C77.3652 7.97255 77.2581 8.23101 77.2581 8.5005C77.2581 8.77 77.3652 9.02845 77.5557 9.21902C77.7463 9.40958 78.0048 9.51663 78.2743 9.51663Z" fill="white"/>
<path d="M78.1291 13.8718C78.3601 13.8718 78.5816 13.9636 78.745 14.1269C78.9083 14.2903 79.0001 14.5118 79.0001 14.7428C79.0001 14.9738 79.0918 15.1953 79.2552 15.3587C79.4185 15.522 79.64 15.6138 79.871 15.6138C80.102 15.6138 80.3236 15.522 80.4869 15.3587C80.6502 15.1953 80.742 14.9738 80.742 14.7428C80.742 14.0498 80.4667 13.3852 79.9767 12.8952C79.4867 12.4052 78.8221 12.1299 78.1291 12.1299C77.8981 12.1299 77.6766 12.2216 77.5132 12.385C77.3499 12.5483 77.2581 12.7699 77.2581 13.0009C77.2581 13.2318 77.3499 13.4534 77.5132 13.6167C77.6766 13.7801 77.8981 13.8718 78.1291 13.8718Z" fill="white"/>
<defs>
<clipPath id="clip0">
<rect width="23.2258" height="23.2258" fill="white" transform="translate(65.6452 16.7739)"/>
</clipPath>
</defs>
</svg>
