<svg width="115" height="27" viewBox="0 0 115 27" fill="none" xmlns="http://www.w3.org/2000/svg">
<path d="M2.788 26.18C2.236 26.18 1.792 26.012 1.456 25.676C1.12 25.34 0.952 24.884 0.952 24.308V2.312C0.952 1.76 1.12 1.316 1.456 0.979998C1.792 0.619998 2.236 0.439999 2.788 0.439999C3.364 0.439999 3.82 0.607999 4.156 0.943999C4.492 1.28 4.66 1.736 4.66 2.312V24.308C4.66 24.884 4.492 25.34 4.156 25.676C3.844 26.012 3.388 26.18 2.788 26.18ZM17.2097 26.252C15.4817 26.252 13.9577 25.88 12.6377 25.136C11.3417 24.392 10.3337 23.336 9.61366 21.968C8.91766 20.576 8.56966 18.968 8.56966 17.144C8.56966 15.296 8.91766 13.688 9.61366 12.32C10.3337 10.928 11.3417 9.86 12.6377 9.116C13.9577 8.372 15.4817 8 17.2097 8C18.9377 8 20.4497 8.372 21.7457 9.116C23.0657 9.86 24.0737 10.928 24.7697 12.32C25.4897 13.688 25.8497 15.296 25.8497 17.144C25.8497 18.968 25.4897 20.576 24.7697 21.968C24.0737 23.336 23.0657 24.392 21.7457 25.136C20.4497 25.88 18.9377 26.252 17.2097 26.252ZM17.2097 23.372C18.8177 23.372 20.0417 22.844 20.8817 21.788C21.7457 20.732 22.1777 19.184 22.1777 17.144C22.1777 15.128 21.7457 13.592 20.8817 12.536C20.0177 11.456 18.7937 10.916 17.2097 10.916C15.6257 10.916 14.4017 11.456 13.5377 12.536C12.6737 13.592 12.2417 15.128 12.2417 17.144C12.2417 19.184 12.6617 20.732 13.5017 21.788C14.3657 22.844 15.6017 23.372 17.2097 23.372ZM31.122 26.18C30.57 26.18 30.126 26.024 29.79 25.712C29.454 25.4 29.286 24.98 29.286 24.452V9.8C29.286 9.272 29.454 8.852 29.79 8.54C30.126 8.228 30.57 8.072 31.122 8.072C31.674 8.072 32.106 8.228 32.418 8.54C32.754 8.852 32.922 9.272 32.922 9.8V15.56H41.562V9.8C41.562 9.272 41.73 8.852 42.066 8.54C42.402 8.228 42.846 8.072 43.398 8.072C43.95 8.072 44.382 8.228 44.694 8.54C45.03 8.852 45.198 9.272 45.198 9.8L45.234 24.344C45.234 24.896 45.066 25.34 44.73 25.676C44.394 26.012 43.95 26.18 43.398 26.18C42.846 26.18 42.402 26.012 42.066 25.676C41.73 25.34 41.562 24.896 41.562 24.344V18.44H32.922V24.452C32.922 24.98 32.754 25.4 32.418 25.712C32.106 26.024 31.674 26.18 31.122 26.18ZM84.1542 26.252C82.4262 26.252 80.9022 25.88 79.5822 25.136C78.2862 24.392 77.2782 23.336 76.5582 21.968C75.8622 20.576 75.5142 18.968 75.5142 17.144C75.5142 15.296 75.8622 13.688 76.5582 12.32C77.2782 10.928 78.2862 9.86 79.5822 9.116C80.9022 8.372 82.4262 8 84.1542 8C85.8822 8 87.3942 8.372 88.6902 9.116C90.0102 9.86 91.0182 10.928 91.7142 12.32C92.4342 13.688 92.7942 15.296 92.7942 17.144C92.7942 18.968 92.4342 20.576 91.7142 21.968C91.0182 23.336 90.0102 24.392 88.6902 25.136C87.3942 25.88 85.8822 26.252 84.1542 26.252ZM84.1542 23.372C85.7622 23.372 86.9862 22.844 87.8262 21.788C88.6902 20.732 89.1222 19.184 89.1222 17.144C89.1222 15.128 88.6902 13.592 87.8262 12.536C86.9622 11.456 85.7382 10.916 84.1542 10.916C82.5702 10.916 81.3462 11.456 80.4822 12.536C79.6182 13.592 79.1862 15.128 79.1862 17.144C79.1862 19.184 79.6062 20.732 80.4462 21.788C81.3102 22.844 82.5462 23.372 84.1542 23.372ZM113.043 8.072C113.619 8.072 114.075 8.228 114.411 8.54C114.747 8.852 114.915 9.284 114.915 9.836V24.524C114.915 25.004 114.759 25.4 114.447 25.712C114.135 26.024 113.727 26.18 113.223 26.18C112.743 26.18 112.335 26.024 111.999 25.712C111.687 25.4 111.531 24.992 111.531 24.488L111.567 14.084L107.211 22.112C107.043 22.424 106.815 22.676 106.527 22.868C106.239 23.036 105.927 23.12 105.591 23.12C105.231 23.12 104.907 23.036 104.619 22.868C104.331 22.676 104.103 22.424 103.935 22.112L99.5785 14.084L99.6145 24.488C99.6145 24.992 99.4465 25.4 99.1105 25.712C98.7985 26.024 98.4025 26.18 97.9225 26.18C97.4185 26.18 97.0105 26.024 96.6985 25.712C96.3865 25.4 96.2305 25.004 96.2305 24.524V9.944C96.2305 9.392 96.3865 8.948 96.6985 8.612C97.0345 8.252 97.4665 8.072 97.9945 8.072C98.4745 8.072 98.8825 8.156 99.2185 8.324C99.5785 8.492 99.8785 8.828 100.119 9.332L105.591 19.628L110.919 9.512C111.207 8.984 111.507 8.612 111.819 8.396C112.131 8.18 112.539 8.072 113.043 8.072Z" fill="white"/>
</svg>
