<svg width="27" height="27" viewBox="0 0 27 27" fill="none" xmlns="http://www.w3.org/2000/svg">
<g clip-path="url(#clip0)">
<path fill-rule="evenodd" clip-rule="evenodd" d="M23.037 3.97093C21.7951 2.72132 20.3176 1.73054 18.6901 1.05596C17.0625 0.381385 15.3173 0.0364251 13.5556 0.0410618C6.17022 0.0410618 0.153169 6.05251 0.153169 13.4378C0.147572 15.7894 0.764359 18.1007 1.9409 20.1368L0.0410156 27.0802L7.14708 25.214C9.11201 26.2844 11.3135 26.8461 13.5511 26.8481H13.5567C20.9431 26.8481 26.9535 20.8378 26.9579 13.4468C26.9579 9.86798 25.565 6.50337 23.037 3.96981V3.97093ZM13.5556 24.5837H13.5511C11.5565 24.5837 9.59849 24.048 7.88169 23.0326L7.47457 22.7915L3.25535 23.8962L4.38137 19.7857L4.11893 19.3652C3.00255 17.5899 2.41152 15.5349 2.41419 13.4378C2.41419 7.30078 7.41289 2.30657 13.56 2.30657C15.023 2.30291 16.4721 2.58949 17.8236 3.1497C19.175 3.70992 20.4019 4.53264 21.4332 5.57025C22.4696 6.60287 23.2912 7.83061 23.8504 9.18254C24.4096 10.5345 24.6954 11.9838 24.6913 13.4468C24.6913 19.5895 19.6926 24.5837 13.5544 24.5837H13.5556ZM19.6623 16.2417C19.3292 16.0757 17.6817 15.2659 17.3755 15.156C17.0693 15.0416 16.845 14.9889 16.6218 15.322C16.3975 15.6585 15.7583 16.4133 15.562 16.6365C15.3691 16.8552 15.1717 16.8866 14.8386 16.7195C14.5021 16.5535 13.4243 16.1979 12.1447 15.0551C11.1499 14.1691 10.4758 13.07 10.2829 12.7369C10.0855 12.4004 10.2605 12.221 10.4276 12.0527C10.5801 11.9047 10.764 11.6636 10.9312 11.4662C11.0971 11.2744 11.1555 11.1342 11.2676 10.9099C11.3775 10.6867 11.3215 10.4893 11.2373 10.3233C11.1543 10.1573 10.4848 8.50531 10.2044 7.83463C9.93186 7.1819 9.65597 7.27386 9.45072 7.26153C9.25782 7.25255 9.03463 7.25255 8.81145 7.25255C8.58714 7.25255 8.22376 7.33555 7.91646 7.67313C7.61028 8.00623 6.74669 8.8171 6.74669 10.4635C6.74669 12.1111 7.94674 13.7048 8.11497 13.9291C8.28096 14.1478 10.4758 17.5292 13.8348 18.9805C14.6334 19.3259 15.2547 19.5323 15.7414 19.6859C16.5433 19.9394 17.2746 19.9046 17.8533 19.8205C18.4971 19.7252 19.8328 19.0108 20.1132 18.2268C20.3902 17.4473 20.3902 16.7767 20.3061 16.6365C20.2231 16.4963 19.9999 16.4122 19.6623 16.2417Z" fill="white"/>
</g>
<defs>
<clipPath id="clip0">
<rect width="27" height="27" fill="white"/>
</clipPath>
</defs>
</svg>
