<svg width="74" height="74" viewBox="0 0 74 74" fill="none" xmlns="http://www.w3.org/2000/svg">
<path d="M8.67153 30.0627C8.67153 30.9827 9.03698 31.865 9.6875 32.5155C10.338 33.166 11.2203 33.5315 12.1403 33.5315C13.0602 33.5315 13.9425 33.166 14.5931 32.5155C15.2436 31.865 15.609 30.9827 15.609 30.0627C15.6146 29.9973 15.6146 29.9316 15.609 29.8662C16.2856 29.627 16.8714 29.1838 17.2855 28.5977C17.6997 28.0117 17.9219 27.3116 17.9215 26.594C17.9335 26.4478 17.9335 26.3008 17.9215 26.1546C19.2428 24.9896 20.1781 23.4499 20.6027 21.7403C21.0273 20.0307 20.9212 18.2323 20.2985 16.5845C19.6758 14.9367 18.5661 13.5176 17.117 12.516C15.6678 11.5145 13.9481 10.978 12.1865 10.978C10.425 10.978 8.7052 11.5145 7.25608 12.516C5.80695 13.5176 4.6972 14.9367 4.07452 16.5845C3.45183 18.2323 3.34574 20.0307 3.77037 21.7403C4.195 23.4499 5.1302 24.9896 6.45152 26.1546C6.43956 26.3008 6.43956 26.4478 6.45152 26.594C6.45115 27.3116 6.67336 28.0117 7.08753 28.5977C7.5017 29.1838 8.08744 29.627 8.76403 29.8662C8.72173 29.9257 8.69041 29.9922 8.67153 30.0627ZM12.1403 31.219C11.8336 31.219 11.5395 31.0972 11.3227 30.8803C11.1058 30.6635 10.984 30.3694 10.984 30.0627H13.2965C13.2965 30.3694 13.1747 30.6635 12.9579 30.8803C12.741 31.0972 12.4469 31.219 12.1403 31.219ZM5.7809 19.6565C5.77798 18.617 6.02991 17.5926 6.51464 16.6731C6.99938 15.7536 7.70213 14.9669 8.56139 14.3819C9.42064 13.7969 10.4102 13.4314 11.4434 13.3175C12.4767 13.2036 13.522 13.3447 14.4881 13.7285C15.4541 14.1123 16.3114 14.727 16.9848 15.5189C17.6582 16.3108 18.1272 17.2556 18.3508 18.2708C18.5744 19.286 18.5457 20.3404 18.2673 21.342C17.9888 22.3435 17.4692 23.2614 16.7537 24.0155C16.1188 23.4442 15.2954 23.1272 14.4412 23.1252H9.81621C8.96205 23.1272 8.13864 23.4442 7.50371 24.0155C6.39838 22.833 5.7827 21.2752 5.7809 19.6565ZM9.82778 25.4377H14.4528C14.7594 25.4377 15.0535 25.5596 15.2704 25.7764C15.4872 25.9932 15.609 26.2873 15.609 26.594C15.609 26.9006 15.4872 27.1947 15.2704 27.4116C15.0535 27.6284 14.7594 27.7502 14.4528 27.7502H9.82778C9.52112 27.7502 9.22702 27.6284 9.01018 27.4116C8.79334 27.1947 8.67153 26.9006 8.67153 26.594C8.67153 26.2873 8.79334 25.9932 9.01018 25.7764C9.22702 25.5596 9.52112 25.4377 9.82778 25.4377Z" fill="#6F1FBF"/>
<path d="M48.5625 33.5312H43.9375C43.6308 33.5312 43.3367 33.6531 43.1199 33.8699C42.9031 34.0867 42.7812 34.3808 42.7812 34.6875V39.3125C42.7812 39.6192 42.9031 39.9133 43.1199 40.1301C43.3367 40.3469 43.6308 40.4688 43.9375 40.4688H48.5625C48.8692 40.4688 49.1633 40.3469 49.3801 40.1301C49.5969 39.9133 49.7188 39.6192 49.7188 39.3125V34.6875C49.7188 34.3808 49.5969 34.0867 49.3801 33.8699C49.1633 33.6531 48.8692 33.5312 48.5625 33.5312ZM47.4062 38.1562H45.0938V35.8438H47.4062V38.1562Z" fill="#6F1FBF"/>
<path d="M34.6875 40.4688H39.3125C39.6192 40.4688 39.9133 40.3469 40.1301 40.1301C40.3469 39.9133 40.4688 39.6192 40.4688 39.3125V34.6875C40.4688 34.3808 40.3469 34.0867 40.1301 33.8699C39.9133 33.6531 39.6192 33.5312 39.3125 33.5312H34.6875C34.3808 33.5312 34.0867 33.6531 33.8699 33.8699C33.6531 34.0867 33.5312 34.3808 33.5312 34.6875V39.3125C33.5312 39.6192 33.6531 39.9133 33.8699 40.1301C34.0867 40.3469 34.3808 40.4688 34.6875 40.4688ZM35.8438 35.8438H38.1562V38.1562H35.8438V35.8438Z" fill="#6F1FBF"/>
<path d="M48.5625 42.7812H43.9375C43.6308 42.7812 43.3367 42.9031 43.1199 43.1199C42.9031 43.3367 42.7812 43.6308 42.7812 43.9375V48.5625C42.7812 48.8692 42.9031 49.1633 43.1199 49.3801C43.3367 49.5969 43.6308 49.7188 43.9375 49.7188H48.5625C48.8692 49.7188 49.1633 49.5969 49.3801 49.3801C49.5969 49.1633 49.7188 48.8692 49.7188 48.5625V43.9375C49.7188 43.6308 49.5969 43.3367 49.3801 43.1199C49.1633 42.9031 48.8692 42.7812 48.5625 42.7812ZM47.4062 47.4062H45.0938V45.0938H47.4062V47.4062Z" fill="#6F1FBF"/>
<path d="M40.4688 48.5625V43.9375C40.4688 43.6308 40.3469 43.3367 40.1301 43.1199C39.9133 42.9031 39.6192 42.7812 39.3125 42.7812H34.6875C34.3808 42.7812 34.0867 42.9031 33.8699 43.1199C33.6531 43.3367 33.5312 43.6308 33.5312 43.9375V48.5625C33.5312 48.8692 33.6531 49.1633 33.8699 49.3801C34.0867 49.5969 34.3808 49.7188 34.6875 49.7188H39.3125C39.6192 49.7188 39.9133 49.5969 40.1301 49.3801C40.3469 49.1633 40.4688 48.8692 40.4688 48.5625ZM38.1562 47.4062H35.8438V45.0938H38.1562V47.4062Z" fill="#6F1FBF"/>
<path d="M12.1406 9.25C12.4473 9.25 12.7414 9.12818 12.9582 8.91134C13.1751 8.6945 13.2969 8.40041 13.2969 8.09375V4.625C13.2969 4.31834 13.1751 4.02425 12.9582 3.80741C12.7414 3.59057 12.4473 3.46875 12.1406 3.46875C11.834 3.46875 11.5399 3.59057 11.323 3.80741C11.1062 4.02425 10.9844 4.31834 10.9844 4.625V8.09375C10.9844 8.40041 11.1062 8.6945 11.323 8.91134C11.5399 9.12818 11.834 9.25 12.1406 9.25Z" fill="#6F1FBF"/>
<path d="M17.3433 10.649C17.4753 10.7254 17.6211 10.775 17.7723 10.7949C17.9235 10.8148 18.0772 10.8045 18.2244 10.7648C18.3716 10.725 18.5096 10.6565 18.6302 10.5632C18.7509 10.4699 18.8519 10.3537 18.9274 10.2212L20.6618 7.21492C20.8151 6.94813 20.8562 6.63136 20.7759 6.33429C20.6957 6.03722 20.5007 5.78419 20.234 5.63086C19.9672 5.47753 19.6504 5.43647 19.3533 5.5167C19.0563 5.59693 18.8032 5.79188 18.6499 6.05867L16.9155 9.06492C16.8391 9.19689 16.7895 9.34268 16.7696 9.49389C16.7498 9.6451 16.76 9.79875 16.7998 9.94599C16.8395 10.0932 16.908 10.2311 17.0013 10.3518C17.0946 10.4724 17.2108 10.5734 17.3433 10.649Z" fill="#6F1FBF"/>
<path d="M5.35352 10.2212C5.50684 10.488 5.75988 10.6829 6.05694 10.7632C6.35401 10.8434 6.67079 10.8023 6.93758 10.649C7.20437 10.4957 7.39933 10.2426 7.47956 9.94556C7.55979 9.64849 7.51872 9.33172 7.36539 9.06492L5.63102 6.05867C5.47769 5.79188 5.22466 5.59693 4.92759 5.5167C4.63052 5.43647 4.31375 5.47753 4.04695 5.63086C3.78016 5.78419 3.58521 6.03722 3.50498 6.33429C3.42475 6.63136 3.46581 6.94813 3.61914 7.21492L5.35352 10.2212Z" fill="#6F1FBF"/>
<path d="M57.8125 13.875C60.5724 13.875 63.2193 14.9714 65.1708 16.9229C67.1224 18.8745 68.2188 21.5213 68.2188 24.2812C68.2188 24.5879 68.3406 24.882 68.5574 25.0988C68.7742 25.3157 69.0683 25.4375 69.375 25.4375C69.6817 25.4375 69.9758 25.3157 70.1926 25.0988C70.4094 24.882 70.5312 24.5879 70.5312 24.2812C70.5312 20.908 69.1912 17.673 66.806 15.2877C64.4208 12.9025 61.1857 11.5625 57.8125 11.5625C57.5058 11.5625 57.2117 11.6843 56.9949 11.9012C56.7781 12.118 56.6562 12.4121 56.6562 12.7188C56.6562 13.0254 56.7781 13.3195 56.9949 13.5363C57.2117 13.7532 57.5058 13.875 57.8125 13.875Z" fill="#6F1FBF"/>
<path d="M57.8125 18.5C59.3458 18.5 60.8163 19.1091 61.9005 20.1933C62.9847 21.2775 63.5938 22.748 63.5938 24.2812C63.5938 24.5879 63.7156 24.882 63.9324 25.0988C64.1492 25.3157 64.4433 25.4375 64.75 25.4375C65.0567 25.4375 65.3508 25.3157 65.5676 25.0988C65.7844 24.882 65.9062 24.5879 65.9062 24.2812C65.9062 22.1347 65.0535 20.076 63.5356 18.5581C62.0178 17.0402 59.9591 16.1875 57.8125 16.1875C57.5058 16.1875 57.2117 16.3093 56.9949 16.5262C56.7781 16.743 56.6562 17.0371 56.6562 17.3438C56.6562 17.6504 56.7781 17.9445 56.9949 18.1613C57.2117 18.3782 57.5058 18.5 57.8125 18.5Z" fill="#6F1FBF"/>
<path d="M57.8125 23.125C58.1192 23.125 58.4133 23.2468 58.6301 23.4637C58.8469 23.6805 58.9688 23.9746 58.9688 24.2812C58.9688 24.5879 59.0906 24.882 59.3074 25.0988C59.5242 25.3157 59.8183 25.4375 60.125 25.4375C60.4317 25.4375 60.7258 25.3157 60.9426 25.0988C61.1594 24.882 61.2812 24.5879 61.2812 24.2812C61.2812 23.3613 60.9158 22.479 60.2653 21.8285C59.6148 21.178 58.7325 20.8125 57.8125 20.8125C57.5058 20.8125 57.2117 20.9343 56.9949 21.1512C56.7781 21.368 56.6562 21.6621 56.6562 21.9688C56.6562 22.2754 56.7781 22.5695 56.9949 22.7863C57.2117 23.0032 57.5058 23.125 57.8125 23.125Z" fill="#6F1FBF"/>
<path d="M69.375 68.2187H65.9062V41.6249C66.4034 41.6294 66.8958 41.5269 67.3499 41.3244C67.804 41.1219 68.2093 40.8241 68.5382 40.4513C68.8672 40.0785 69.1122 39.6393 69.2565 39.1635C69.4009 38.6877 69.4413 38.1864 69.375 37.6937C69.3207 37.2385 69.175 36.799 68.9465 36.4015C68.718 36.0041 68.4114 35.6571 68.0453 35.3812L43.7641 16.8812C43.1595 16.4198 42.4201 16.1699 41.6597 16.1699C40.8992 16.1699 40.1598 16.4198 39.5553 16.8812L15.2741 35.3812C14.908 35.6571 14.6014 36.0041 14.3729 36.4015C14.1444 36.799 13.9986 37.2385 13.9444 37.6937C13.819 38.6044 14.0602 39.5276 14.615 40.2605C15.3094 41.0569 16.29 41.5472 17.3438 41.6249V63.5937H12.7188C12.4121 63.5937 12.118 63.7155 11.9012 63.9323C11.6843 64.1492 11.5625 64.4433 11.5625 64.7499C11.5625 65.0566 11.6843 65.3507 11.9012 65.5675C12.118 65.7843 12.4121 65.9062 12.7188 65.9062H17.3438V68.2187H9.25C8.94334 68.2187 8.64925 68.3405 8.43241 68.5573C8.21557 68.7742 8.09375 69.0683 8.09375 69.3749C8.09375 69.6816 8.21557 69.9757 8.43241 70.1925C8.64925 70.4093 8.94334 70.5312 9.25 70.5312H69.375C69.6817 70.5312 69.9758 70.4093 70.1926 70.1925C70.4094 69.9757 70.5312 69.6816 70.5312 69.3749C70.5312 69.0683 70.4094 68.7742 70.1926 68.5573C69.9758 68.3405 69.6817 68.2187 69.375 68.2187ZM16.4187 38.8615C16.3252 38.7404 16.2567 38.6019 16.2171 38.4541C16.1775 38.3063 16.1676 38.1521 16.1881 38.0004C16.2085 37.8488 16.2588 37.7027 16.3361 37.5707C16.4134 37.4386 16.5162 37.3232 16.6384 37.2312L40.9197 18.7312C41.1142 18.5589 41.3651 18.4637 41.625 18.4637C41.8849 18.4637 42.1358 18.5589 42.3303 18.7312L66.6116 37.2312C66.7338 37.3232 66.8366 37.4386 66.9139 37.5707C66.9912 37.7027 67.0415 37.8488 67.0619 38.0004C67.0824 38.1521 67.0725 38.3063 67.0329 38.4541C66.9933 38.6019 66.9248 38.7404 66.8312 38.8615C66.7392 38.9837 66.6238 39.0865 66.4918 39.1638C66.3597 39.2411 66.2136 39.2914 66.062 39.3119C65.9103 39.3323 65.7561 39.3224 65.6083 39.2828C65.4605 39.2432 65.3221 39.1747 65.2009 39.0812L42.3303 21.6449C42.1281 21.4893 41.8801 21.4049 41.625 21.4049C41.3699 21.4049 41.1219 21.4893 40.9197 21.6449L18.0491 39.0812C17.9279 39.1747 17.7895 39.2432 17.6417 39.2828C17.4939 39.3224 17.3397 39.3323 17.188 39.3119C17.0364 39.2914 16.8903 39.2411 16.7582 39.1638C16.6262 39.0865 16.5108 38.9837 16.4187 38.8615ZM19.6562 68.2187V65.9062H35.8438C36.1504 65.9062 36.4445 65.7843 36.6613 65.5675C36.8782 65.3507 37 65.0566 37 64.7499C37 64.4433 36.8782 64.1492 36.6613 63.9323C36.4445 63.7155 36.1504 63.5937 35.8438 63.5937H19.6562V40.7577L41.625 24.0152L63.5938 40.7577V68.2187H19.6562Z" fill="#6F1FBF"/>
<path d="M48.5625 63.5938H40.4688C40.1621 63.5938 39.868 63.7156 39.6512 63.9324C39.4343 64.1492 39.3125 64.4433 39.3125 64.75C39.3125 65.0567 39.4343 65.3508 39.6512 65.5676C39.868 65.7844 40.1621 65.9062 40.4688 65.9062H48.5625C48.8692 65.9062 49.1633 65.7844 49.3801 65.5676C49.5969 65.3508 49.7188 65.0567 49.7188 64.75C49.7188 64.4433 49.5969 64.1492 49.3801 63.9324C49.1633 63.7156 48.8692 63.5938 48.5625 63.5938Z" fill="#6F1FBF"/>
<path d="M12.1406 43.9375C12.7792 43.9375 13.2969 43.4198 13.2969 42.7812C13.2969 42.1427 12.7792 41.625 12.1406 41.625C11.502 41.625 10.9844 42.1427 10.9844 42.7812C10.9844 43.4198 11.502 43.9375 12.1406 43.9375Z" fill="#6F1FBF"/>
<path d="M12.1406 57.8125C12.7792 57.8125 13.2969 57.2948 13.2969 56.6562C13.2969 56.0177 12.7792 55.5 12.1406 55.5C11.502 55.5 10.9844 56.0177 10.9844 56.6562C10.9844 57.2948 11.502 57.8125 12.1406 57.8125Z" fill="#6F1FBF"/>
<path d="M12.1406 48.5625C12.7792 48.5625 13.2969 48.0448 13.2969 47.4062C13.2969 46.7677 12.7792 46.25 12.1406 46.25C11.502 46.25 10.9844 46.7677 10.9844 47.4062C10.9844 48.0448 11.502 48.5625 12.1406 48.5625Z" fill="#6F1FBF"/>
<path d="M12.1406 53.1875C12.7792 53.1875 13.2969 52.6698 13.2969 52.0312C13.2969 51.3927 12.7792 50.875 12.1406 50.875C11.502 50.875 10.9844 51.3927 10.9844 52.0312C10.9844 52.6698 11.502 53.1875 12.1406 53.1875Z" fill="#6F1FBF"/>
<path d="M57.2344 46.25C56.1611 46.25 55.1317 46.6764 54.3728 47.4353C53.6139 48.1942 53.1875 49.2236 53.1875 50.2969V58.3906C53.1875 59.4639 53.6139 60.4933 54.3728 61.2522C55.1317 62.0111 56.1611 62.4375 57.2344 62.4375C58.3077 62.4375 59.337 62.0111 60.0959 61.2522C60.8549 60.4933 61.2812 59.4639 61.2812 58.3906V50.2969C61.2812 49.2236 60.8549 48.1942 60.0959 47.4353C59.337 46.6764 58.3077 46.25 57.2344 46.25ZM58.9688 58.3906C58.9688 58.8506 58.786 59.2918 58.4608 59.617C58.1355 59.9423 57.6944 60.125 57.2344 60.125C56.7744 60.125 56.3332 59.9423 56.008 59.617C55.6827 59.2918 55.5 58.8506 55.5 58.3906V50.2969C55.5 49.8369 55.6827 49.3957 56.008 49.0705C56.3332 48.7452 56.7744 48.5625 57.2344 48.5625C57.6944 48.5625 58.1355 48.7452 58.4608 49.0705C58.786 49.3957 58.9688 49.8369 58.9688 50.2969V58.3906Z" fill="#6F1FBF"/>
</svg>
