<svg width="16" height="16" viewBox="0 0 16 16" fill="none" xmlns="http://www.w3.org/2000/svg">
<path d="M13.656 2.3418C10.5314 -0.781914 5.46601 -0.781164 2.34229 2.34352C-0.781426 5.46821 -0.780676 10.5335 2.34401 13.6572C5.4687 16.781 10.534 16.7802 13.6577 13.6555C15.1579 12.1549 16.0005 10.1197 16 7.99781C15.9996 5.87624 15.1564 3.84174 13.656 2.3418ZM12.1157 11.1434C12.1154 11.1438 12.115 11.1441 12.1147 11.1445V11.1418L11.7093 11.5445C11.1851 12.0753 10.4216 12.2937 9.69598 12.1205C8.96489 11.9248 8.26989 11.6133 7.63732 11.1978C7.04964 10.8222 6.50501 10.3832 6.01332 9.88849C5.56092 9.4394 5.15448 8.94627 4.79998 8.41649C4.41223 7.84643 4.10532 7.22543 3.88798 6.57115C3.63882 5.80252 3.84529 4.95912 4.42132 4.39249L4.89598 3.91784C5.02795 3.78527 5.24239 3.7848 5.37492 3.91677C5.37526 3.91712 5.37564 3.91746 5.37598 3.91784L6.87464 5.41649C7.0072 5.54846 7.00767 5.7629 6.8757 5.89543C6.87536 5.89577 6.87501 5.89612 6.87464 5.89649L5.99464 6.77649C5.74214 7.02624 5.71039 7.42312 5.91998 7.70984C6.23826 8.14665 6.59048 8.55768 6.97332 8.93918C7.40017 9.36787 7.8642 9.75784 8.35998 10.1045C8.64645 10.3043 9.03482 10.2706 9.28264 10.0245L10.1333 9.16052C10.2653 9.02796 10.4797 9.02749 10.6122 9.15946C10.6126 9.1598 10.6129 9.16015 10.6133 9.16052L12.1146 10.6645C12.2472 10.7965 12.2477 11.0109 12.1157 11.1434Z" fill="#1F5FBF"/>
</svg>
