<svg width="15" height="14" viewBox="0 0 15 14" fill="none" xmlns="http://www.w3.org/2000/svg">
<g clip-path="url(#clip0)">
<path d="M6.54883 -0.03125H7.7207C7.82487 -0.03125 7.87695 0.0208333 7.87695 0.125V13.875C7.87695 13.9792 7.82487 14.0312 7.7207 14.0312H6.54883C6.44466 14.0312 6.39258 13.9792 6.39258 13.875V0.125C6.39258 0.0208333 6.44466 -0.03125 6.54883 -0.03125Z" fill="#224156"/>
<path d="M0.572266 6.25781H13.6973C13.8014 6.25781 13.8535 6.3099 13.8535 6.41406V7.58594C13.8535 7.6901 13.8014 7.74219 13.6973 7.74219H0.572266C0.468099 7.74219 0.416016 7.6901 0.416016 7.58594V6.41406C0.416016 6.3099 0.468099 6.25781 0.572266 6.25781Z" fill="#224156"/>
</g>
<defs>
<clipPath id="clip0">
<rect width="14" height="14" fill="white" transform="translate(0.134766)"/>
</clipPath>
</defs>
</svg>
