<svg width="105" height="105" viewBox="0 0 105 105" fill="none" xmlns="http://www.w3.org/2000/svg">
<circle cx="52.5" cy="52.5" r="51.5" fill="#F5F9FF" stroke="#224156" stroke-width="2"/>
<path d="M40.25 73.625H63.625V77.875H40.25V73.625Z" fill="#4A5160"/>
<path d="M63.0938 62H82.6225C82.0463 64.1492 80.777 66.0483 79.0116 67.4027C77.2462 68.7571 75.0832 69.4913 72.8581 69.4913C70.633 69.4913 68.47 68.7571 66.7046 67.4027C64.9392 66.0483 63.67 64.1492 63.0938 62V62Z" fill="#2A4E96"/>
<path d="M62.75 58.625V59.3838C62.7495 60.2671 62.8651 61.1467 63.0938 62H82.6225C82.8624 61.1482 82.9894 60.2686 83 59.3838V58.625H62.75Z" fill="#80AAFF"/>
<path d="M21.3779 62H40.9067C40.3304 64.1492 39.0612 66.0483 37.2958 67.4027C35.5304 68.7571 33.3674 69.4913 31.1423 69.4913C28.9172 69.4913 26.7542 68.7571 24.9888 67.4027C23.2234 66.0483 21.9542 64.1492 21.3779 62V62Z" fill="#2A4E96"/>
<path d="M21 58.625V59.3838C21.0106 60.2686 21.1376 61.1482 21.3775 62H40.9062C41.1349 61.1467 41.2505 60.2671 41.25 59.3838V58.625H21Z" fill="#80AAFF"/>
<path d="M77.0647 33.0487C76.1955 33.4544 75.4862 34.1379 75.0484 34.9913C74.8505 35.3934 74.5435 35.7319 74.1624 35.9679C73.7814 36.204 73.3416 36.3282 72.8934 36.3263C72.4451 36.3244 72.0064 36.1965 71.6274 35.9573C71.2483 35.718 70.9442 35.377 70.7497 34.9731C70.3968 34.273 69.858 33.6835 69.1924 33.2693C68.5267 32.8551 67.7599 32.6322 66.9759 32.625H53.4997V24.125H50.4997V32.625H37.0322C36.2493 32.6322 35.4835 32.8546 34.8186 33.2679C34.1536 33.6811 33.6152 34.2694 33.2622 34.9681C33.064 35.3703 32.7576 35.7092 32.3772 35.9467C31.9969 36.1841 31.5579 36.3107 31.1095 36.3121C30.6611 36.3135 30.2213 36.1898 29.8395 35.9547C29.4577 35.7197 29.1491 35.3827 28.9484 34.9817C28.5107 34.1314 27.8027 33.4506 26.9359 33.0465C26.6388 32.9109 26.3002 32.8978 25.9935 33.0101C25.6868 33.1225 25.4367 33.3511 25.2975 33.6465C25.1582 33.9419 25.1409 34.2803 25.2494 34.5884C25.358 34.8964 25.5835 35.1493 25.8772 35.2922C26.2529 35.4654 26.5594 35.76 26.7472 36.1286C27.1562 36.9335 27.7802 37.6094 28.55 38.0811C29.3198 38.5529 30.2053 38.8021 31.1081 38.8011C32.011 38.8002 32.8959 38.5491 33.6647 38.0757C34.4335 37.6023 35.0561 36.9251 35.4634 36.1194C35.6087 35.8258 35.8318 35.5778 36.1085 35.4024C36.3851 35.2271 36.7047 35.1311 37.0322 35.125H50.4997V63.125H53.4997V35.125H66.9759C67.3041 35.1314 67.6243 35.2279 67.9014 35.4039C68.1784 35.58 68.4018 35.8288 68.5472 36.1231C68.9536 36.9282 69.5754 37.6048 70.3433 38.0778C71.1112 38.5507 71.9953 38.8014 72.8971 38.8021C73.799 38.8027 74.6834 38.5532 75.452 38.0814C76.2206 37.6095 76.8433 36.9338 77.2509 36.1292C77.4387 35.7606 77.7452 35.4659 78.1209 35.2927C78.335 35.1955 78.5142 35.0352 78.6347 34.8333C78.7568 34.6312 78.8212 34.3996 78.8209 34.1635C78.8205 33.9561 78.7679 33.7522 78.6679 33.5706C78.5678 33.389 78.4236 33.2355 78.2485 33.1244C78.0735 33.0133 77.8732 32.9481 77.6663 32.9349C77.4594 32.9216 77.2524 32.9608 77.0647 33.0487V33.0487Z" fill="#FEC86A"/>
<path d="M53.4878 37.8849C52.5833 38.2197 51.5921 38.2386 50.6754 37.9386C49.7587 37.6386 48.9705 37.0373 48.4389 36.2325C47.9073 35.4277 47.6637 34.4667 47.7475 33.5058C47.8314 32.5449 48.2378 31.6407 48.9008 30.9401C49.5637 30.2396 50.4442 29.7839 51.399 29.6472C52.3538 29.5105 53.3267 29.7008 54.1596 30.1873C54.9925 30.6737 55.6363 31.4275 55.9864 32.3263C56.3365 33.225 56.3722 34.2158 56.0878 35.1374C55.8962 35.7651 55.5616 36.3398 55.1105 36.8165C54.6594 37.2932 54.104 37.6589 53.4878 37.8849V37.8849Z" fill="#E9594E"/>
<path d="M52 35.7127C53.0155 35.7127 53.8387 34.8894 53.8387 33.8739C53.8387 32.8584 53.0155 32.0352 52 32.0352C50.9844 32.0352 50.1612 32.8584 50.1612 33.8739C50.1612 34.8894 50.9844 35.7127 52 35.7127Z" fill="#C66177"/>
<path d="M44 69.75H60V73.625H44V69.75Z" fill="#6D7486"/>
<path d="M49.125 63.125H54.875V69.75H49.125V63.125Z" fill="#E9594E"/>
<path d="M40.25 73.625H44V77.875H40.25V73.625Z" fill="#6D7486"/>
<path d="M25.1279 62H21.3779C22.0376 64.4625 23.6036 66.5848 25.7621 67.9414C27.9205 69.2981 30.5119 69.7889 33.0169 69.3155C31.1471 68.9613 29.4151 68.087 28.0197 66.793C26.6242 65.499 25.622 63.8378 25.1279 62V62Z" fill="#233862"/>
<path d="M24.75 59.3838V58.625H21V59.3838C21.0106 60.2686 21.1376 61.1482 21.3775 62H25.1275C24.8876 61.1482 24.7606 60.2686 24.75 59.3838V59.3838Z" fill="#2A4E96"/>
<path d="M44 69.75H47.75V73.625H44V69.75Z" fill="#B0B5CA"/>
<path d="M52 31.2849C51.488 31.2849 50.9875 31.4367 50.5618 31.7212C50.1361 32.0056 49.8044 32.4099 49.6084 32.8829C49.4125 33.3559 49.3612 33.8764 49.4611 34.3786C49.561 34.8807 49.8075 35.3419 50.1696 35.704C50.5316 36.066 50.9928 36.3125 51.495 36.4124C51.9971 36.5123 52.5176 36.461 52.9906 36.2651C53.4636 36.0692 53.8679 35.7374 54.1524 35.3117C54.4368 34.886 54.5886 34.3855 54.5886 33.8735C54.5879 33.1872 54.3149 32.5292 53.8296 32.0439C53.3443 31.5586 52.6863 31.2857 52 31.2849V31.2849ZM52 34.9622C51.7847 34.9622 51.5742 34.8983 51.3952 34.7787C51.2162 34.6591 51.0766 34.4891 50.9942 34.2901C50.9118 34.0912 50.8903 33.8723 50.9323 33.6612C50.9743 33.45 51.078 33.256 51.2302 33.1038C51.3825 32.9515 51.5764 32.8478 51.7876 32.8058C51.9988 32.7638 52.2177 32.7854 52.4166 32.8678C52.6155 32.9502 52.7855 33.0897 52.9052 33.2687C53.0248 33.4478 53.0886 33.6582 53.0886 33.8735C53.0883 34.1622 52.9735 34.4389 52.7694 34.643C52.5654 34.8471 52.2886 34.962 52 34.9623V34.9622Z" fill="#224156"/>
<path d="M82.9655 58.2498H81.7332L73.8725 39.4636C74.7315 39.3111 75.5435 38.9619 76.2451 38.4434C76.9467 37.925 77.5188 37.2512 77.9168 36.4748C78.0276 36.2554 78.2087 36.0793 78.4313 35.9748C78.9008 35.7465 79.2618 35.3428 79.4365 34.8507C79.6111 34.3587 79.5853 33.8177 79.3648 33.3444C79.1442 32.8712 78.7464 32.5036 78.2573 32.3209C77.7681 32.1383 77.2268 32.1552 76.75 32.368C75.7315 32.8457 74.8994 33.6468 74.3834 34.6465C74.2455 34.9228 74.034 35.1558 73.7723 35.3198C73.5105 35.4838 73.2086 35.5724 72.8997 35.5758C72.5895 35.5687 72.2871 35.4765 72.0255 35.3095C71.764 35.1424 71.5532 34.9068 71.4162 34.6283C71.0005 33.8059 70.3663 33.1138 69.5831 32.6281C68.8 32.1424 67.8982 31.8817 66.9766 31.8748H56.6285C56.159 30.7498 55.25 29.9067 54.25 29.3735V24.101C54.2481 24.0031 54.2269 23.9065 54.1874 23.8169C54.148 23.7272 54.0912 23.6463 54.0203 23.5788C53.9494 23.5113 53.8658 23.4585 53.7743 23.4235C53.6829 23.3885 53.5854 23.3719 53.4875 23.3748H50.5125C50.4146 23.3719 50.3171 23.3885 50.2257 23.4235C50.1342 23.4585 50.0506 23.5113 49.9797 23.5788C49.9088 23.6463 49.852 23.7272 49.8126 23.8169C49.7731 23.9065 49.7519 24.0031 49.75 24.101V29.3735C48.75 29.9067 47.841 30.7498 47.3715 31.8748H37.0327C36.1123 31.8816 35.2116 32.1416 34.4291 32.6263C33.6466 33.111 33.0127 33.8017 32.5966 34.6227C32.4619 34.903 32.251 35.1398 31.9881 35.306C31.7252 35.4722 31.4208 35.5611 31.1098 35.5625C30.7988 35.564 30.4936 35.4779 30.2292 35.3141C29.9647 35.1504 29.7517 34.9155 29.6144 34.6365C29.0986 33.6399 28.2681 32.8417 27.2519 32.366C27.0149 32.2554 26.7584 32.1927 26.4971 32.1813C26.2359 32.1699 25.9749 32.2101 25.7292 32.2995C25.2329 32.4802 24.8287 32.8505 24.6055 33.3292C24.3823 33.8079 24.3584 34.3556 24.539 34.8519C24.7197 35.3482 25.0901 35.7524 25.5687 35.9756C25.7904 36.0796 25.9708 36.2548 26.0813 36.4732C26.48 37.2495 27.0527 37.9231 27.7547 38.4416C28.4567 38.9601 29.2689 39.3094 30.1281 39.4623L22.2668 58.2498H21.0345C20.8326 58.2472 20.6377 58.3234 20.4912 58.4623C20.3447 58.6012 20.2582 58.7918 20.25 58.9935V59.7591C20.25 65.7458 25.1382 70.6163 31.125 70.6163C37.1118 70.6163 42 65.7458 42 59.7591V58.9935C41.9998 58.8952 41.9801 58.798 41.9422 58.7074C41.9043 58.6168 41.8488 58.5346 41.779 58.4655C41.7092 58.3964 41.6264 58.3418 41.5355 58.3048C41.4445 58.2678 41.3471 58.2491 41.2489 58.2498H40.0168L32.15 39.4498C32.9962 39.2867 33.7942 38.9331 34.4835 38.4159C35.1729 37.8988 35.7356 37.2316 36.129 36.4648C36.2113 36.2933 36.3391 36.1476 36.4984 36.0435C36.6578 35.9395 36.8426 35.8812 37.0327 35.8748H47.3964C47.868 36.9552 48.6998 37.8384 49.75 38.3737V62.3748H49.1484C48.9471 62.3738 48.7534 62.4517 48.6089 62.5917C48.4643 62.7318 48.3804 62.9229 48.375 63.1241V68.9998H44.0289C43.8224 69.009 43.6271 69.0962 43.4825 69.2439C43.3379 69.3915 43.2548 69.5886 43.25 69.7952V72.8748H40.2292C40.1342 72.8704 40.0393 72.8854 39.9503 72.919C39.8613 72.9526 39.7802 73.0041 39.7118 73.0703C39.6435 73.1365 39.5895 73.2159 39.553 73.3038C39.5166 73.3917 39.4985 73.4861 39.5 73.5812V77.8987C39.4981 77.9948 39.5157 78.0904 39.5518 78.1795C39.5878 78.2687 39.6415 78.3496 39.7096 78.4174C39.7778 78.4853 39.8589 78.5386 39.9482 78.5743C40.0375 78.6099 40.1331 78.6271 40.2292 78.6248H63.6468C63.7428 78.6271 63.8384 78.6099 63.9276 78.5742C64.0168 78.5385 64.0979 78.4852 64.1659 78.4173C64.234 78.3495 64.2876 78.2685 64.3235 78.1794C64.3595 78.0903 64.377 77.9948 64.375 77.8987V73.5812C64.3766 73.4862 64.3586 73.3918 64.3223 73.3039C64.2859 73.2161 64.232 73.1366 64.1638 73.0704C64.0955 73.0042 64.0144 72.9527 63.9255 72.9191C63.8366 72.8854 63.7417 72.8704 63.6468 72.8748H60.75V69.7952C60.7452 69.5886 60.6621 69.3915 60.5175 69.2439C60.3729 69.0962 60.1776 69.009 59.9711 68.9998H55.625V63.1241C55.6196 62.9229 55.5357 62.7318 55.3911 62.5917C55.2466 62.4517 55.0529 62.3738 54.8516 62.3748H54.25V38.3737C55.3002 37.8384 56.132 36.9552 56.6036 35.8748H66.9766C67.1673 35.8816 67.3525 35.9406 67.5121 36.0453C67.6716 36.1499 67.7995 36.2964 67.8816 36.4686C68.2736 37.234 68.8346 37.9002 69.5221 38.4167C70.2097 38.9332 71.0057 39.2865 71.85 39.4498L63.9832 58.2498H62.7511C62.6529 58.2491 62.5555 58.2678 62.4645 58.3048C62.3736 58.3418 62.2908 58.3964 62.221 58.4655C62.1512 58.5346 62.0957 58.6168 62.0578 58.7074C62.0199 58.798 62.0002 58.8952 62 58.9935V59.7591C62 65.7458 66.8882 70.6163 72.875 70.6163C78.8618 70.6163 83.75 65.7458 83.75 59.7591V58.9935C83.7418 58.7918 83.6553 58.6012 83.5088 58.4623C83.3623 58.3234 83.1674 58.2472 82.9655 58.2498V58.2498ZM31.1418 69.1161C29.2525 69.1136 27.4081 68.5401 25.8505 67.471C24.2929 66.4018 23.0948 64.8869 22.4132 63.1248H39.8701C39.1886 64.8869 37.9905 66.4018 36.4329 67.471C34.8753 68.5401 33.031 69.1136 31.1418 69.1161V69.1161ZM40.5 59.7498V59.7591C40.4987 60.3857 40.4356 61.0106 40.3116 61.6248H21.9719C21.8368 61.0117 21.7625 60.3868 21.75 59.7591V59.7498H40.5ZM38.3906 58.2498H23.8928L31.1418 40.9285L38.3906 58.2498ZM37.0327 34.3748C36.5676 34.3806 36.1131 34.5143 35.7189 34.7612C35.3246 35.0082 35.006 35.3588 34.7979 35.7748C34.4529 36.4578 33.9254 37.0317 33.274 37.4329C32.6225 37.8341 31.8725 38.0469 31.1074 38.0475C30.3423 38.0482 29.592 37.8367 28.9398 37.4366C28.2877 37.0365 27.7592 36.4634 27.4131 35.7811C27.147 35.2642 26.7155 34.8513 26.1873 34.6085C26.1067 34.5665 26.0397 34.5027 25.9939 34.4244C25.9481 34.346 25.9253 34.2563 25.9282 34.1656C25.9276 34.0847 25.9476 34.0049 25.9864 33.9339C26.0252 33.8629 26.0815 33.803 26.15 33.7598C26.2194 33.715 26.2991 33.6887 26.3815 33.6833C26.4639 33.6779 26.5464 33.6937 26.621 33.7291C27.3363 34.0656 27.9203 34.629 28.2825 35.3316C28.5453 35.8561 28.9493 36.2968 29.449 36.6042C29.9487 36.9116 30.5242 37.0735 31.1109 37.0716C31.6976 37.0697 32.2721 36.9041 32.7698 36.5935C33.2674 36.2829 33.6686 35.8395 33.928 35.3133C34.218 34.7366 34.661 34.2507 35.2086 33.9088C35.7562 33.5669 36.3872 33.3822 37.0327 33.3748H46.9946C46.9806 33.6248 46.9725 33.6915 46.9725 33.8475C46.9713 34.0236 46.9802 34.1997 46.999 34.3748H37.0327ZM51.25 24.8748H52.75V28.9007C52.2527 28.8279 51.7473 28.8279 51.25 28.9007V24.8748ZM62.875 74.3748V77.1248H41V74.3748H62.875ZM59.25 70.4998V72.8748H44.75V70.4998H59.25ZM54.125 63.8748V68.9998H49.875V63.8748H54.125ZM51.25 62.3748V38.8465C51.7473 38.9193 52.2527 38.9193 52.75 38.8465V62.3748H51.25ZM52 37.4011C51.3023 37.4011 50.6203 37.1942 50.0402 36.8066C49.4601 36.419 49.008 35.8681 48.741 35.2235C48.474 34.5789 48.4042 33.8697 48.5403 33.1854C48.6764 32.5011 49.0124 31.8726 49.5057 31.3793C49.999 30.8859 50.6276 30.55 51.3118 30.4139C51.9961 30.2778 52.7053 30.3476 53.3499 30.6146C53.9945 30.8816 54.5454 31.3337 54.933 31.9138C55.3206 32.4939 55.5275 33.1759 55.5275 33.8736C55.5265 34.8088 55.1545 35.7055 54.4932 36.3668C53.8319 37.0281 52.9352 37.4001 52 37.4011V37.4011ZM69.2136 35.7788C69.0057 35.3619 68.6869 35.0104 68.2923 34.7627C67.8977 34.515 67.4425 34.3808 66.9766 34.3748H57.001C57.0198 34.1997 57.0287 34.0236 57.0275 33.8475C57.0275 33.6915 57.0194 33.6248 57.0054 33.3748H66.9766C67.6229 33.3825 68.2547 33.5679 68.8027 33.9106C69.3507 34.2534 69.7939 34.7403 70.0836 35.3181C70.3434 35.8421 70.7441 36.2833 71.2407 36.5922C71.7373 36.9011 72.3101 37.0655 72.895 37.0669C73.4798 37.0683 74.0535 36.9067 74.5516 36.6002C75.0496 36.2937 75.4524 35.8544 75.7147 35.3317C76.0775 34.6276 76.6629 34.0633 77.3799 33.7267C77.4545 33.6914 77.537 33.6758 77.6193 33.6814C77.7017 33.687 77.7813 33.7136 77.8505 33.7586C77.9187 33.8017 77.9749 33.8615 78.0136 33.9324C78.0523 34.0032 78.0723 34.0827 78.0718 34.1635C78.0746 34.2548 78.0517 34.3452 78.0057 34.4242C77.9597 34.5032 77.8924 34.5676 77.8115 34.6102C77.2827 34.8544 76.8508 35.2685 76.5848 35.7867C76.2406 36.4695 75.7135 37.0431 75.0623 37.4437C74.4111 37.8443 73.6613 38.056 72.8968 38.0551C72.1322 38.0543 71.3829 37.841 70.7325 37.4391C70.0821 37.0371 69.5563 36.4623 69.2136 35.7788V35.7788ZM72.8582 40.9288L80.1073 58.2498H65.6094L72.8582 40.9288ZM72.8582 69.1163C70.969 69.1138 69.1246 68.5403 67.567 67.4711C66.0094 66.4019 64.8113 64.8869 64.1299 63.1248H81.5868C80.9052 64.8869 79.7071 66.4018 78.1495 67.471C76.5919 68.5401 74.7475 69.1136 72.8582 69.1161V69.1163ZM82.25 59.7591C82.2375 60.3868 82.1632 61.0117 82.0281 61.6248H63.6884C63.5644 61.0106 63.5013 60.3857 63.5 59.7591V59.7498H82.25V59.7591Z" fill="#224156"/>
</svg>
