<svg width="105" height="105" viewBox="0 0 105 105" fill="none" xmlns="http://www.w3.org/2000/svg">
<circle cx="52.5" cy="52.5" r="51.5" fill="#F5F9FF" stroke="#224156" stroke-width="2"/>
<g clip-path="url(#clip0)">
<path d="M50.1402 80.4144C48.7668 80.4144 47.6537 79.3009 47.6537 77.9273V72.453H56.6086V77.9273C56.6086 79.3008 55.4952 80.4144 54.1221 80.4144H50.1402Z" fill="#EBEBEB" stroke="#224156"/>
<path d="M31.8479 50.5215C32.3127 50.3358 32.6535 49.9296 32.7564 49.4399C32.7564 49.4399 32.7564 49.4399 32.7564 49.4399L33.3607 46.5646H33.7288C33.784 48.6091 34.1797 50.6293 34.8984 52.5427C32.1954 52.6903 29.9857 54.8076 29.7512 57.5361C29.5078 60.3682 31.4732 62.9148 34.2744 63.3964C36.8123 63.8328 39.2702 62.4413 40.2413 60.1295C40.8588 60.6539 41.5105 61.1375 42.1917 61.5765L42.1917 61.5766L31.6624 50.0571M31.8479 50.5215L31.6624 50.0571M31.8479 50.5215C31.848 50.5214 31.8481 50.5214 31.8482 50.5213L31.6624 50.0571M31.8479 50.5215C31.3828 50.7075 30.8562 50.6483 30.4443 50.3642L30.7277 49.9532L30.4442 50.3642L28.0365 48.7041L28.331 48.4095L27.9774 48.056L30.7281 49.9526C31.0023 50.1417 31.3527 50.1811 31.6624 50.0571M27.2942 53.5105L26.8826 53.7937L27.2943 53.5107L27.2942 53.5105ZM27.2942 53.5105C27.5778 53.9225 27.6373 54.449 27.4511 54.914M27.4511 54.914C27.4511 54.9138 27.4512 54.9137 27.4513 54.9136L26.9868 54.7284L27.4509 54.9144C27.451 54.9143 27.451 54.9141 27.4511 54.914ZM25.6386 51.1025L25.403 50.7598L24.991 51.0431L25.3446 51.3966L25.6386 51.1025Z" fill="#E4EFFF" stroke="#224156"/>
<path d="M69.5502 46.0648V46.065C69.5535 51.9786 66.5552 57.4891 61.5892 60.6974C59.7532 61.8459 58.6273 63.8488 58.5999 66.0144L58.5999 66.0144V66.0207V69.9617C58.5999 71.3353 57.4864 72.4488 56.1134 72.4488H48.1495C46.7761 72.4488 45.6631 71.3353 45.6631 69.9617L45.6631 65.938L45.663 65.9318C45.6366 63.8117 44.5304 61.8516 42.7295 60.7334C35.7004 56.2259 32.858 47.3624 35.9545 39.6054C39.0514 31.8473 47.2178 27.3801 55.4192 28.9568C63.6205 30.5334 69.5493 37.7111 69.5502 46.0648Z" fill="#FFB93E" stroke="#224156"/>
<path d="M57.5428 26.5148L59.5895 29.2451C59.5896 29.2451 59.5896 29.2451 59.5896 29.2451C60.1941 30.0517 61.225 30.4143 62.2012 30.1636C63.1772 29.9135 63.9063 29.0997 64.0481 28.1018L57.5428 26.5148ZM57.5428 26.5148L53.5646 29.4993L55.6111 32.23L55.6113 32.2302C56.215 33.0366 56.2741 34.1266 55.7608 34.9933C55.2475 35.8602 54.263 36.3321 53.2663 36.1904L53.266 36.1904L49.8893 35.7082L49.1855 40.6327L52.563 41.1149C53.5604 41.2572 54.3741 41.9865 54.6241 42.9629C54.874 43.939 54.5116 44.9699 53.7052 45.5746L50.9763 47.6223L53.9602 51.6015L56.689 49.5548C56.689 49.5548 56.6891 49.5548 56.6891 49.5547C57.4949 48.9501 58.5859 48.8906 59.453 49.4039L59.4532 49.404C60.3198 49.9174 60.7922 50.9027 60.6499 51.9001L60.6498 51.9007L60.1636 55.2768L65.0868 55.9808L65.5731 52.6024C65.5731 52.6023 65.5731 52.6023 65.5731 52.6023L65.5731 52.6018L66.068 52.673L57.5428 26.5148ZM77.058 39.5898L80.4346 40.0723L64.0481 28.1014L64.5301 24.7249L69.4533 25.4284L68.9712 28.806L68.9712 28.8063C68.8295 29.803 69.3013 30.7877 70.168 31.3012C71.0345 31.8145 72.125 31.7556 72.931 31.1514L72.9311 31.1513L75.6609 29.1036L78.6448 33.0833L75.9149 35.1311L76.2149 35.5311L75.9147 35.1312C75.1094 35.736 74.7476 36.7664 74.9975 37.7419L74.9976 37.7421C75.2481 38.7181 76.0611 39.4468 77.0578 39.5897L77.058 39.5898ZM57.3422 40.3521C57.3422 44.4777 60.6856 47.822 64.8106 47.822C68.9356 47.822 72.279 44.4777 72.279 40.3521C72.279 36.2269 68.9356 32.8821 64.8106 32.8821C60.6855 32.8821 57.3422 36.2269 57.3422 40.3521Z" fill="#E9594E" stroke="#224156"/>
<path d="M47.1537 74.9403H57.1086V76.9317H47.1537V74.9403Z" fill="#9E9E9E"/>
<path d="M51.1356 66.9745H53.1266V69.9616H51.1356V66.9745Z" fill="#FF933D"/>
<path d="M53.1264 64.9831H51.1355C51.1345 62.3504 49.5115 59.9905 47.0539 59.0482C42.1547 57.1322 38.7512 52.6204 38.2544 47.3822C37.7576 42.144 40.2517 37.0726 44.7032 34.2693L45.7595 35.9539C41.9428 38.3562 39.8035 42.7036 40.2293 47.1945C40.6547 51.6849 43.5721 55.553 47.7723 57.1954C50.9989 58.4298 53.1289 61.5278 53.1264 64.9831V64.9831Z" fill="#FF933D"/>
<path d="M72.0407 60.0046H77.0182C77.5679 60.0046 78.0137 60.45 78.0137 61.0004C78.0137 61.5502 77.5679 61.9961 77.0182 61.9961H72.0407C71.491 61.9961 71.0453 61.5502 71.0453 61.0004C71.0453 60.45 71.491 60.0046 72.0407 60.0046Z" fill="#FF933D"/>
<path d="M70.0497 65.9792C70.4016 65.5567 71.0291 65.4994 71.4515 65.8514L75.8952 69.5546C76.3176 69.9066 76.375 70.5343 76.0231 70.9568C75.6707 71.3793 75.0431 71.4367 74.6207 71.0847L70.177 67.3814C69.7546 67.0294 69.6978 66.4017 70.0497 65.9792V65.9792Z" fill="#FF933D"/>
<path d="M66.068 67.9702C66.6177 67.9702 67.0634 68.4156 67.0634 68.9659V73.9445C67.0634 74.4943 66.6177 74.9402 66.068 74.9402C65.5182 74.9402 65.0725 74.4943 65.0725 73.9445V68.9659C65.0725 68.4156 65.5182 67.9702 66.068 67.9702Z" fill="#FF933D"/>
<path d="M23.9867 39.8774L30.0189 38.3702C30.5526 38.237 31.0926 38.5613 31.2258 39.0947C31.359 39.628 31.0348 40.1682 30.5011 40.3014L24.4689 41.8085C23.9352 41.9418 23.3951 41.6175 23.2619 41.0841C23.1288 40.5508 23.453 40.0106 23.9867 39.8774Z" fill="#FF933D"/>
<path d="M25.2529 29.1381C25.5722 28.6908 26.1939 28.5877 26.6411 28.9071L31.9889 32.7281C32.4366 33.0475 32.5401 33.6693 32.2208 34.1166C31.9014 34.5639 31.2797 34.6675 30.8326 34.3476L25.4847 30.5266C25.0371 30.2072 24.9335 29.5854 25.2529 29.1381V29.1381Z" fill="#FF933D"/>
<path d="M34.1677 23.1623C34.7005 23.0262 35.2424 23.3476 35.3785 23.8804L36.9213 29.9164C37.0575 30.4493 36.7362 30.9919 36.2034 31.128C35.6707 31.2641 35.1287 30.9423 34.9926 30.4099L33.4498 24.3739C33.3137 23.8411 33.635 23.2985 34.1677 23.1623V23.1623Z" fill="#FF933D"/>
</g>
<defs>
<clipPath id="clip0">
<rect width="58" height="58" fill="white" transform="translate(23 23)"/>
</clipPath>
</defs>
</svg>
