<svg width="19" height="20" viewBox="0 0 19 20" fill="none" xmlns="http://www.w3.org/2000/svg">
<path d="M18.5729 17.8975L15.0313 14.225C16.1739 12.711 16.794 10.8414 16.7917 8.91667C16.7917 7.20257 16.3029 5.52695 15.3873 4.10173C14.4716 2.6765 13.1701 1.56567 11.6474 0.909715C10.1246 0.253755 8.44909 0.0821262 6.83259 0.416531C5.21608 0.750937 3.73122 1.57636 2.56578 2.78841C1.40034 4.00047 0.60667 5.54472 0.285126 7.22589C-0.0364171 8.90706 0.128611 10.6496 0.759341 12.2333C1.39007 13.8169 2.45818 15.1704 3.82859 16.1227C5.199 17.075 6.81016 17.5833 8.45834 17.5833C10.309 17.5857 12.1067 16.9409 13.5625 15.7525L17.0938 19.4358C17.1906 19.5374 17.3058 19.618 17.4327 19.673C17.5597 19.728 17.6958 19.7563 17.8333 19.7563C17.9709 19.7563 18.107 19.728 18.2339 19.673C18.3609 19.618 18.4761 19.5374 18.5729 19.4358C18.6706 19.3351 18.7481 19.2153 18.8009 19.0833C18.8538 18.9513 18.881 18.8097 18.881 18.6667C18.881 18.5237 18.8538 18.3821 18.8009 18.25C18.7481 18.118 18.6706 17.9982 18.5729 17.8975ZM2.20834 8.91667C2.20834 7.63109 2.57489 6.37438 3.26165 5.30546C3.94841 4.23655 4.92453 3.40342 6.06657 2.91145C7.2086 2.41948 8.46527 2.29076 9.67765 2.54157C10.89 2.79237 12.0037 3.41144 12.8778 4.32048C13.7518 5.22952 14.3471 6.38771 14.5882 7.64858C14.8294 8.90946 14.7056 10.2164 14.2326 11.4041C13.7595 12.5918 12.9585 13.607 11.9307 14.3212C10.9028 15.0355 9.69447 15.4167 8.45834 15.4167C6.80073 15.4167 5.21102 14.7319 4.03892 13.5129C2.86682 12.2939 2.20834 10.6406 2.20834 8.91667Z" fill="#1F5FBF"/>
</svg>
