<svg width="26" height="26" viewBox="0 0 26 26" fill="none" xmlns="http://www.w3.org/2000/svg">
<path d="M19.6362 24.7054C19.9063 24.7079 20.1733 24.6482 20.4166 24.531C20.6602 24.4137 20.8734 24.2419 21.0398 24.0289C21.2062 23.8159 21.3214 23.5674 21.3763 23.3028C21.4313 23.0381 21.4245 22.7644 21.3566 22.5027L21.3567 22.5027L21.3558 22.4995L19.5863 16.2595L19.5863 16.2595L19.5857 16.2574C19.5852 16.2556 19.5852 16.2538 19.5858 16.252C19.5864 16.2503 19.5875 16.2488 19.5889 16.2477L19.589 16.2477L19.5925 16.245L24.6899 12.2378C24.9826 12.0192 25.1998 11.7146 25.311 11.3666C25.4224 11.018 25.4219 10.6432 25.3095 10.2948C25.1972 9.94643 24.9786 9.64196 24.6845 9.42408C24.3908 9.20653 24.0365 9.08619 23.6711 9.07988L17.1762 8.83452C17.1735 8.83414 17.171 8.83309 17.1688 8.83145C17.1663 8.82959 17.1644 8.82704 17.1633 8.82413L14.9246 2.7361C14.8011 2.39858 14.577 2.10713 14.2825 1.90121C13.9879 1.6953 13.6372 1.58486 13.2778 1.58486C12.9185 1.58486 12.5678 1.6953 12.2732 1.90121C11.9787 2.10713 11.7545 2.39858 11.6311 2.7361L9.39236 8.82412C9.39128 8.82704 9.38939 8.82959 9.3869 8.83145C9.38472 8.83309 9.38215 8.83414 9.37945 8.83452L2.88458 9.07988C2.51917 9.08619 2.16486 9.20653 1.87118 9.42408C1.57706 9.64196 1.3585 9.94643 1.24616 10.2948C1.13381 10.6432 1.1333 11.018 1.24471 11.3666C1.35592 11.7146 1.57306 12.0192 1.86579 12.2378L6.96313 16.2449C6.96315 16.2449 6.96317 16.245 6.96319 16.245C6.96564 16.2469 6.96747 16.2495 6.96846 16.2525C6.96939 16.2553 6.96953 16.2583 6.96887 16.2612C6.96883 16.2614 6.96879 16.2616 6.96874 16.2617L5.19992 22.4995L5.19989 22.4995L5.19915 22.5023C5.10881 22.8464 5.12528 23.2098 5.24637 23.5443C5.36746 23.8788 5.58744 24.1686 5.8771 24.3751C6.16676 24.5817 6.5124 24.6952 6.86811 24.7007C7.22382 24.7061 7.57278 24.6032 7.86864 24.4057L7.86885 24.4055L13.2566 20.7944L13.2583 20.7933C13.2598 20.7922 13.2616 20.7917 13.2634 20.7917C13.2652 20.7917 13.267 20.7922 13.2684 20.7933L13.2702 20.7944L18.6575 24.4053C18.6576 24.4053 18.6576 24.4053 18.6576 24.4053C18.9467 24.6005 19.2874 24.7049 19.6362 24.7054ZM19.6362 24.7054C19.636 24.7054 19.6358 24.7054 19.6356 24.7054L19.637 24.5554L19.6369 24.7054C19.6367 24.7054 19.6364 24.7054 19.6362 24.7054ZM13.1508 19.0429L13.2716 19.0466C13.6205 19.0572 13.9582 19.1723 14.2411 19.3767L19.6266 22.9863L19.634 22.9913L19.6339 22.9915C19.6348 22.9922 19.6358 22.9927 19.6369 22.993C19.6376 22.9932 19.6384 22.9933 19.6392 22.9933C19.6411 22.9934 19.643 22.9927 19.6445 22.9916C19.6461 22.9905 19.6472 22.9889 19.6478 22.987C19.6483 22.9852 19.6483 22.9832 19.6476 22.9814L19.644 22.9714L19.6444 22.9713L17.875 16.7314L13.1508 19.0429ZM13.1508 19.0429L13.1417 19.0792M13.1508 19.0429L13.1417 19.0792M13.1417 19.0792C12.8377 19.0994 12.5435 19.1985 12.2885 19.3676L12.2879 19.368L6.90016 22.9791L6.89286 22.984L6.88979 22.9866L6.88741 22.9846L6.88092 22.9801C6.88062 22.9799 6.8804 22.9796 6.88028 22.9793C6.88017 22.979 6.88017 22.9786 6.88028 22.9782L6.88046 22.9783L6.88247 22.9712L8.6447 16.7312L8.64474 16.731C8.73888 16.3962 8.73132 16.041 8.62303 15.7105C8.51476 15.38 8.3107 15.0893 8.03677 14.8751C8.03671 14.8751 8.03666 14.875 8.0366 14.875L2.93084 10.8597L2.93098 10.8595L2.92434 10.8549C2.92278 10.8538 2.92161 10.8522 2.92101 10.8504C2.92041 10.8486 2.9204 10.8467 2.92099 10.8448C2.92158 10.843 2.92273 10.8415 2.92428 10.8404C2.92582 10.8393 2.92769 10.8387 2.92959 10.8387L2.92958 10.8389L2.93767 10.8386L9.43767 10.5931L9.43785 10.5931C9.7859 10.5795 10.122 10.4626 10.4033 10.2572C10.6846 10.0519 10.8984 9.7674 11.0174 9.4401L13.1417 19.0792ZM11.0174 9.43996L13.2346 3.35899L13.2348 3.35905L13.2369 3.35232C13.2374 3.35052 13.2385 3.34893 13.2401 3.34781C13.2416 3.34669 13.2434 3.34608 13.2453 3.34608C13.2472 3.34608 13.2491 3.34669 13.2506 3.34781C13.2521 3.34893 13.2533 3.35051 13.2538 3.35232L13.2537 3.35238L13.2562 3.35938L15.4949 9.44718C15.4949 9.44722 15.495 9.44727 15.495 9.44731C15.614 9.77462 15.8277 10.0591 16.109 10.2644C16.3903 10.4698 16.7265 10.5867 17.0745 10.6003L17.0747 10.6003L23.5747 10.8458L23.5747 10.8461L23.5828 10.8459C23.5847 10.8459 23.5865 10.8465 23.5881 10.8476C23.5896 10.8487 23.5908 10.8503 23.5914 10.8521C23.592 10.8539 23.5919 10.8558 23.5913 10.8576C23.5907 10.8594 23.5896 10.861 23.588 10.8621L23.5879 10.8619L23.5815 10.8669L18.4833 14.8747C18.4832 14.8748 18.4831 14.8749 18.483 14.875C18.2082 15.0885 18.0035 15.3793 17.8951 15.71C17.7867 16.0408 17.7797 16.3965 17.8749 16.7313L11.0174 9.43996Z" fill="#1F5FBF" stroke="#1F5FBF" stroke-width="0.3"/>
</svg>
