<svg width="15" height="14" viewBox="0 0 15 14" fill="none" xmlns="http://www.w3.org/2000/svg">
<path d="M14.3014 5.99186C14.4562 5.8765 14.5711 5.71556 14.6299 5.53161C14.6886 5.34767 14.6884 5.14994 14.6291 4.96616C14.5698 4.78237 14.4545 4.62174 14.2994 4.5068C14.1442 4.39185 13.9569 4.32835 13.7639 4.32519L10.0139 4.18353C9.99543 4.18225 9.97775 4.17568 9.96297 4.16459C9.94818 4.1535 9.93692 4.13837 9.93053 4.12103L8.6347 0.621027C8.56959 0.44296 8.45134 0.289201 8.29595 0.180567C8.14056 0.0719329 7.95555 0.0136719 7.76595 0.0136719C7.57635 0.0136719 7.39134 0.0719329 7.23595 0.180567C7.08056 0.289201 6.96231 0.44296 6.8972 0.621027L5.60553 4.13353C5.59915 4.15087 5.58788 4.166 5.5731 4.17709C5.55831 4.18818 5.54064 4.19475 5.5222 4.19603L1.7722 4.33769C1.57912 4.34085 1.39187 4.40435 1.2367 4.5193C1.08153 4.63424 0.966224 4.79487 0.906953 4.97866C0.847683 5.16244 0.847417 5.36017 0.906193 5.54411C0.964969 5.72806 1.07984 5.889 1.2347 6.00436L4.17637 8.31686C4.19109 8.32845 4.20209 8.34409 4.20802 8.36187C4.21394 8.37964 4.21453 8.39876 4.2097 8.41686L3.1972 12.0044C3.14473 12.187 3.14982 12.3815 3.21176 12.5611C3.2737 12.7408 3.38949 12.8971 3.54339 13.0086C3.69728 13.1202 3.8818 13.1816 4.07185 13.1846C4.26189 13.1875 4.44824 13.1319 4.60553 13.0252L7.71387 10.9419C7.72918 10.9313 7.74734 10.9256 7.76595 10.9256C7.78456 10.9256 7.80272 10.9313 7.81803 10.9419L10.9264 13.0252C11.0815 13.1355 11.2672 13.1948 11.4576 13.1948C11.648 13.1948 11.8337 13.1355 11.9889 13.0252C12.1428 12.9147 12.2587 12.7592 12.3206 12.5801C12.3826 12.401 12.3875 12.2072 12.3347 12.0252L11.3139 8.42519C11.3085 8.40712 11.3088 8.38782 11.3147 8.36992C11.3207 8.35203 11.332 8.3364 11.3472 8.32519L14.3014 5.99186Z" fill="#1F5FBF"/>
</svg>
