<svg width="74" height="56" viewBox="0 0 74 56" fill="none" xmlns="http://www.w3.org/2000/svg">
<path d="M73.977 18.9865C73.8576 18.0871 73.2901 17.3327 72.459 16.9684L39.0599 2.32713C37.85 1.7967 36.4128 2.34042 35.8573 3.53974L35.6839 3.91422L29.1389 0.958559C27.8633 0.382169 26.3593 0.943529 25.7683 2.20847L24.5489 1.64306C22.2795 0.590149 19.5737 1.29936 18.1154 3.32844C18.0788 3.37931 18.0468 3.43322 18.0196 3.48974L15.8041 8.07383C15.8017 8.07846 15.7996 8.08308 15.7974 8.08771L15.7286 8.23527C14.5291 10.8098 15.6344 13.9081 18.1924 15.142L19.6158 15.8285L19.4299 16.24C18.8492 17.526 19.423 19.0448 20.7089 19.6255L25.0345 21.5788C24.3599 22.5126 23.9605 23.6575 23.9605 24.895C23.9605 25.4625 24.0452 26.0103 24.2009 26.5279L19.8246 32.3678C19.7391 32.3639 19.6532 32.3613 19.5668 32.3613C17.0832 32.3613 14.9682 33.9641 14.1982 36.1891L10.8903 37.4501V35.543C10.8903 32.9936 8.81612 30.9195 6.26659 30.9195H1.08644C0.486348 30.9195 0 31.4058 0 32.0059V54.1813C0 54.7814 0.486492 55.2678 1.08644 55.2678H6.26673C8.81612 55.2678 10.8904 53.1936 10.8904 50.6441V45.2489L16.7853 43.0015C17.5488 43.4281 18.4233 43.6849 19.3604 43.7184C19.3737 43.7189 19.3868 43.7191 19.4001 43.7191C19.9822 43.7191 20.4642 43.2579 20.4851 42.6716C20.5067 42.0721 20.038 41.5684 19.4383 41.547C17.5436 41.4789 16.0594 39.9392 16.0594 38.0418C16.0594 36.1078 17.633 34.5343 19.5671 34.5343C21.5012 34.5343 23.0747 36.1078 23.0747 38.0418C23.0747 38.5896 22.9523 39.1137 22.7111 39.5994C22.4441 40.1369 22.6634 40.7889 23.2007 41.0559C23.7381 41.3225 24.3902 41.1037 24.6572 40.5662C25.0491 39.7772 25.2477 38.9279 25.2477 38.0417C25.2477 37.8049 25.2315 37.5721 25.2032 37.343L30.3046 30.5357C32.7038 30.2555 34.6491 28.4743 35.1776 26.1592L46.8069 31.4107C46.8069 31.4107 46.8069 31.4107 46.807 31.4109C47.1433 31.5626 47.5008 31.6389 47.8591 31.6389C48.1643 31.6389 48.4703 31.5836 48.7646 31.4724C49.404 31.2308 49.911 30.7547 50.1922 30.1318L50.3863 29.7021L52.1592 30.5028C52.5107 30.6616 52.8843 30.7412 53.2588 30.7412C53.5779 30.7412 53.8976 30.6834 54.205 30.5672C54.4731 30.4659 54.7177 30.3236 54.935 30.1491L56.2332 30.7353V30.7355C56.5827 30.893 56.9486 30.9677 57.3091 30.9677C58.3091 30.9677 59.2663 30.3931 59.7037 29.4241L61.1776 26.1605L64.2843 27.5324C64.6198 27.6805 64.9743 27.7532 65.3262 27.7532C65.9013 27.7532 66.4695 27.5592 66.9363 27.1839C66.961 27.1641 66.9849 27.1431 67.0077 27.1212L68.5655 25.6266C68.9985 25.211 69.0127 24.5232 68.5973 24.0904C68.1817 23.6573 67.4941 23.6432 67.0611 24.0586L65.5485 25.5099C65.4346 25.5871 65.2894 25.6007 65.1622 25.5446L35.579 12.4809C35.2544 12.3375 35.0071 12.0758 34.8825 11.7435C34.7579 11.4113 34.7721 11.0515 34.924 10.7264L37.8295 4.45275C37.8918 4.31848 38.0522 4.25777 38.1879 4.31703L71.5871 18.9583C71.7667 19.0371 71.8121 19.1889 71.8234 19.2724C71.8343 19.3558 71.8301 19.5142 71.6772 19.6371C71.6527 19.657 71.6288 19.6778 71.606 19.6998L70.6486 20.6178C70.2156 21.0332 70.2011 21.7211 70.6165 22.1541C71.0319 22.5872 71.7196 22.6014 72.1527 22.1862L73.0802 21.2966C73.7592 20.7277 74.0941 19.8682 73.977 18.9865ZM8.7174 50.6439C8.7174 51.9953 7.61795 53.0947 6.26673 53.0947H2.17288V33.0922H6.26673C7.61795 33.0922 8.7174 34.1915 8.7174 35.5429V50.6439ZM10.8904 42.9232V39.7753L13.9156 38.622C14.0179 39.6441 14.3879 40.5851 14.9562 41.3731L10.8904 42.9232ZM20.5107 13.8474L19.1368 13.1847C17.6435 12.4644 16.9983 10.6557 17.6986 9.1529L17.764 9.01213L19.9322 4.52631C20.7939 3.39666 22.3364 3.01191 23.6351 3.61403L24.8727 4.18811L22.1121 10.3011L20.5107 13.8474ZM24.3067 34.9155C23.7567 34.0845 22.9946 33.4064 22.0978 32.9581L25.3531 28.614C26.0009 29.36 26.839 29.9355 27.7918 30.2646L24.3067 34.9155ZM29.6413 28.4026C27.7072 28.4026 26.1337 26.8291 26.1337 24.895C26.1337 23.9707 26.4942 23.1297 27.0807 22.5027L33.1321 25.2355C32.9604 27.0103 31.4606 28.4026 29.6413 28.4026ZM57.7398 24.6423L59.1896 25.2826L57.723 28.5296C57.621 28.7558 57.3538 28.857 57.1273 28.7548L56.0933 28.2878L57.7398 24.6423ZM55.7519 23.7646L53.7165 28.2716C53.6422 28.4363 53.5094 28.5069 53.4368 28.5341C53.3643 28.5614 53.2183 28.5965 53.0531 28.5221L51.2801 27.7214L53.5134 22.776L55.7519 23.7646ZM51.5222 21.8968L48.8493 27.8158C48.8386 27.8395 48.83 27.8635 48.8211 27.8875L48.2114 29.2374C48.1542 29.3642 48.052 29.4185 47.9961 29.4396C47.9401 29.4608 47.8276 29.4876 47.7007 29.4303L21.6034 17.6451C21.4094 17.5574 21.3228 17.3282 21.4104 17.1344L26.5115 5.83837L27.2956 4.10226L27.7337 3.13216C27.8213 2.93791 28.0508 2.8512 28.2446 2.93893L34.7706 5.88606L32.9533 9.81009C32.5535 10.6653 32.5159 11.6229 32.8475 12.5068C33.179 13.3906 33.8372 14.0875 34.7007 14.4688L51.5222 21.8968Z" fill="#1F5FBF"/>
</svg>
