<svg width="69" height="68" viewBox="0 0 69 68" fill="none" xmlns="http://www.w3.org/2000/svg">
<path d="M0.281251 45.2499C0.280547 46.2662 0.559193 47.2636 1.08754 48.1361C1.61589 49.0086 2.37418 49.7235 3.28171 50.2048C4.18925 50.686 5.21209 50.9156 6.2414 50.869C7.2707 50.8225 8.26797 50.5017 9.12708 49.9406L18.3376 59.025C17.8745 59.7168 17.5722 60.5011 17.4523 61.3216C17.3325 62.1422 17.398 62.9787 17.6443 63.7714C17.8906 64.564 18.3115 65.2932 18.8768 65.9066C19.4422 66.5201 20.1381 67.0026 20.9147 67.3198C21.6913 67.637 22.5294 67.7809 23.369 67.7412C24.2086 67.7015 25.0289 67.4793 25.7712 67.0904C26.5135 66.7015 27.1595 66.1555 27.6628 65.4915C28.1662 64.8276 28.5145 64.0621 28.6828 63.2499H40.3186C40.486 64.0631 40.8337 64.8298 41.3368 65.4949C41.84 66.16 42.4861 66.707 43.2289 67.0968C43.9716 67.4866 44.7926 67.7094 45.633 67.7494C46.4734 67.7894 47.3123 67.6455 48.0897 67.328C48.867 67.0105 49.5635 66.5274 50.1292 65.9131C50.6949 65.2989 51.1158 64.5688 51.3618 63.7752C51.6077 62.9817 51.6726 62.1442 51.5517 61.323C51.4309 60.5018 51.1273 59.7171 50.6628 59.0252L55.6245 54.1315L54.0114 52.5405L49.0497 57.4342C48.2717 56.926 47.379 56.6139 46.4502 56.5255C45.5213 56.4371 44.5847 56.575 43.7225 56.927C42.8603 57.2791 42.0989 57.8346 41.5053 58.5448C40.9117 59.2549 40.5039 60.098 40.3179 60.9999H28.6828C28.377 59.5353 27.4939 58.2505 26.2278 57.428L26.891 55.7926L24.7729 54.957L24.1103 56.5909C22.6657 56.3307 21.175 56.6332 19.9518 57.4346L10.7412 48.3503C11.5538 47.1438 11.8604 45.6735 11.5967 44.2486L20.097 40.8952L19.2498 38.806L10.7465 42.1597C9.9126 40.9108 8.60994 40.0398 7.125 39.7381V28.2624C8.60994 27.9607 9.9126 27.0897 10.7465 25.8408L19.2484 29.1952L20.0956 27.106L11.5951 23.7518C11.8589 22.327 11.5522 20.8567 10.7396 19.6502L17.84 12.6471L16.2276 11.0559L9.12722 18.0591C8.42577 17.6022 7.63059 17.304 6.79861 17.1857C5.96662 17.0674 5.11841 17.132 4.31471 17.3749C3.511 17.6178 2.77168 18.0329 2.14967 18.5906C1.52767 19.1483 1.03836 19.8347 0.716785 20.6007C0.395209 21.3667 0.249319 22.1933 0.289558 23.0214C0.329798 23.8495 0.555173 24.6586 0.949547 25.3908C1.34392 26.123 1.89754 26.7601 2.57077 27.2565C3.244 27.7529 4.02018 28.0964 4.84375 28.2624V39.7388C3.55665 39.9998 2.4001 40.6904 1.56902 41.6942C0.737935 42.6981 0.283131 43.9539 0.281251 45.2499ZM45.9062 58.7499C46.583 58.7499 47.2446 58.9478 47.8073 59.3187C48.3701 59.6895 48.8087 60.2166 49.0676 60.8333C49.3266 61.45 49.3944 62.1286 49.2624 62.7833C49.1303 63.438 48.8044 64.0394 48.3259 64.5114C47.8473 64.9834 47.2376 65.3048 46.5738 65.435C45.91 65.5653 45.222 65.4984 44.5968 65.243C43.9715 64.9875 43.4371 64.555 43.0611 63.9999C42.6851 63.4449 42.4844 62.7924 42.4844 62.1249C42.4854 61.2301 42.8463 60.3723 43.4878 59.7396C44.1293 59.1069 44.999 58.7509 45.9062 58.7499ZM23.0938 58.7499C23.7705 58.7499 24.4321 58.9478 24.9948 59.3187C25.5576 59.6895 25.9962 60.2166 26.2552 60.8333C26.5141 61.45 26.5819 62.1286 26.4499 62.7833C26.3178 63.438 25.9919 64.0394 25.5134 64.5114C25.0348 64.9834 24.4251 65.3048 23.7613 65.435C23.0975 65.5653 22.4095 65.4984 21.7843 65.243C21.159 64.9875 20.6246 64.555 20.2486 63.9999C19.8726 63.4449 19.6719 62.7924 19.6719 62.1249C19.6729 61.2301 20.0338 60.3723 20.6753 59.7396C21.3168 59.1069 22.1865 58.7509 23.0938 58.7499ZM2.5625 22.7499C2.5625 22.0824 2.76319 21.4299 3.13919 20.8748C3.51519 20.3198 4.04962 19.8872 4.67488 19.6318C5.30015 19.3764 5.98817 19.3095 6.65195 19.4397C7.31573 19.57 7.92545 19.8914 8.40401 20.3634C8.88256 20.8354 9.20847 21.4368 9.3405 22.0915C9.47253 22.7461 9.40477 23.4247 9.14578 24.0415C8.88678 24.6582 8.44819 25.1853 7.88547 25.5561C7.32274 25.927 6.66116 26.1249 5.98438 26.1249C5.07716 26.1239 4.20741 25.7679 3.56591 25.1352C2.92441 24.5025 2.56356 23.6447 2.5625 22.7499ZM5.98438 41.8749C6.66116 41.8749 7.32274 42.0728 7.88547 42.4437C8.44819 42.8145 8.88678 43.3416 9.14578 43.9583C9.40477 44.575 9.47253 45.2536 9.3405 45.9083C9.20847 46.563 8.88256 47.1644 8.40401 47.6364C7.92545 48.1084 7.31573 48.4298 6.65195 48.56C5.98817 48.6903 5.30015 48.6234 4.67488 48.368C4.04962 48.1125 3.51519 47.68 3.13919 47.1249C2.76319 46.5699 2.5625 45.9174 2.5625 45.2499C2.56356 44.3551 2.92441 43.4973 3.56591 42.8646C4.20741 42.2318 5.07716 41.8759 5.98438 41.8749ZM68.7187 22.7499C68.7194 21.7336 68.4408 20.7362 67.9125 19.8637C67.3841 18.9912 66.6258 18.2763 65.7183 17.795C64.8107 17.3138 63.7879 17.0842 62.7586 17.1307C61.7293 17.1773 60.732 17.4981 59.8729 18.0592L50.6624 8.97483C51.1258 8.28302 51.4284 7.49869 51.5485 6.67803C51.6686 5.85736 51.6032 5.02065 51.357 4.22782C51.1109 3.43499 50.69 2.70566 50.1246 2.09205C49.5591 1.47844 48.8631 0.995733 48.0864 0.678499C47.3097 0.361265 46.4715 0.217351 45.6317 0.257064C44.792 0.296777 43.9716 0.519134 43.2292 0.908211C42.4868 1.29729 41.8408 1.84346 41.3375 2.50761C40.8342 3.17177 40.486 3.93747 40.3179 4.74989H28.6828C28.4594 3.66306 27.9156 2.66549 27.1196 1.8823C26.3236 1.0991 25.3109 0.565147 24.2084 0.347408C23.106 0.129669 21.9628 0.237837 20.9225 0.658346C19.8821 1.07886 18.9908 1.79298 18.3603 2.71116C17.7298 3.62934 17.3882 4.7107 17.3784 5.8196C17.3685 6.9285 17.6909 8.01558 18.305 8.9445C18.9191 9.87341 19.7977 10.6028 20.8304 11.0412C21.8632 11.4796 23.0042 11.6075 24.1103 11.4088L24.7729 13.0427L26.891 12.2071L26.227 10.5718C27.4935 9.74942 28.3768 8.46459 28.6828 6.99989H40.3186C40.6244 8.46447 41.5075 9.74928 42.7737 10.5718L41.6541 13.3322L43.7721 14.1678L44.8911 11.4089C46.3358 11.6691 47.8264 11.3666 49.0497 10.5652L58.2602 19.6495C57.4476 20.856 57.141 22.3263 57.4047 23.7511L48.9044 27.1046L49.7516 29.1938L58.2535 25.8394C58.6663 26.4581 59.1985 26.9904 59.8199 27.4062C60.4413 27.8219 61.1396 28.1129 61.875 28.2624V39.7388C60.39 40.0405 59.0874 40.9115 58.2535 42.1604L54.8844 40.831L54.0372 42.9202L57.4047 44.2486C57.141 45.6735 57.4476 47.1438 58.2602 48.3503L56.0075 50.5721L57.6206 52.1632L59.8733 49.9413C60.5748 50.3983 61.37 50.6966 62.2021 50.8149C63.0341 50.9333 63.8824 50.8687 64.6862 50.6259C65.49 50.383 66.2294 49.9678 66.8515 49.4101C67.4735 48.8524 67.9629 48.1659 68.2844 47.3998C68.606 46.6338 68.7519 45.807 68.7116 44.9788C68.6712 44.1506 68.4458 43.3415 68.0513 42.6093C67.6568 41.8771 67.103 41.24 66.4296 40.7437C65.7563 40.2473 64.9799 39.9039 64.1562 39.7381V28.2624C65.4436 28.0014 66.6003 27.3106 67.4314 26.3064C68.2625 25.3022 68.7172 24.0462 68.7187 22.7499ZM23.0938 9.24989C22.417 9.24989 21.7554 9.05195 21.1927 8.6811C20.6299 8.31025 20.1913 7.78315 19.9324 7.16645C19.6734 6.54975 19.6056 5.87115 19.7376 5.21646C19.8697 4.56178 20.1956 3.96041 20.6741 3.48841C21.1527 3.01641 21.7624 2.69497 22.4262 2.56474C23.09 2.43452 23.778 2.50136 24.4032 2.7568C25.0285 3.01225 25.5629 3.44483 25.9389 3.99984C26.3149 4.55486 26.5156 5.20738 26.5156 5.87489C26.5146 6.76968 26.1537 7.62752 25.5122 8.26023C24.8707 8.89294 24.001 9.24885 23.0938 9.24989ZM45.9062 9.24989C45.2295 9.24989 44.5679 9.05195 44.0052 8.6811C43.4424 8.31025 43.0038 7.78315 42.7449 7.16645C42.4859 6.54975 42.4181 5.87115 42.5501 5.21646C42.6822 4.56178 43.0081 3.96041 43.4866 3.48841C43.9652 3.01641 44.5749 2.69497 45.2387 2.56474C45.9025 2.43452 46.5905 2.50136 47.2157 2.7568C47.841 3.01225 48.3754 3.44483 48.7514 3.99984C49.1274 4.55486 49.3281 5.20738 49.3281 5.87489C49.3271 6.76968 48.9662 7.62752 48.3247 8.26023C47.6832 8.89294 46.8135 9.24885 45.9062 9.24989ZM66.4375 45.2499C66.4375 45.9174 66.2368 46.5699 65.8608 47.1249C65.4848 47.68 64.9504 48.1125 64.3251 48.368C63.6998 48.6234 63.0118 48.6903 62.348 48.56C61.6843 48.4298 61.0745 48.1084 60.596 47.6364C60.1174 47.1644 59.7915 46.563 59.6595 45.9083C59.5275 45.2536 59.5952 44.575 59.8542 43.9583C60.1132 43.3416 60.5518 42.8145 61.1145 42.4437C61.6773 42.0728 62.3388 41.8749 63.0156 41.8749C63.9228 41.8759 64.7926 42.2318 65.4341 42.8646C66.0756 43.4973 66.4364 44.3551 66.4375 45.2499ZM63.0156 26.1249C62.3388 26.1249 61.6773 25.927 61.1145 25.5561C60.5518 25.1853 60.1132 24.6582 59.8542 24.0415C59.5952 23.4247 59.5275 22.7461 59.6595 22.0915C59.7915 21.4368 60.1174 20.8354 60.596 20.3634C61.0745 19.8914 61.6843 19.57 62.348 19.4397C63.0118 19.3095 63.6998 19.3764 64.3251 19.6318C64.9504 19.8872 65.4848 20.3198 65.8608 20.8748C66.2368 21.4299 66.4375 22.0824 66.4375 22.7499C66.4364 23.6447 66.0756 24.5025 65.4341 25.1352C64.7926 25.7679 63.9228 26.1239 63.0156 26.1249ZM24.2344 23.8749V49.7499C24.2351 50.3464 24.4757 50.9183 24.9033 51.3401C25.331 51.7619 25.9108 51.9992 26.5156 51.9999H39.0625V54.2499H26.5156C25.306 54.2486 24.1463 53.774 23.291 52.9304C22.4356 52.0868 21.9545 50.943 21.9531 49.7499V23.8749H24.2344ZM50.4687 50.8749V38.5798C50.4704 37.9886 50.3531 37.403 50.1238 36.8568C49.8944 36.3106 49.5575 35.8147 49.1325 35.3978L47.0469 33.3409V41.4089L48.9941 43.3294L47.3809 44.9204L45.0997 42.6704L41.2458 38.8693C41.127 38.7522 40.986 38.6593 40.8308 38.5959C40.6757 38.5325 40.5093 38.4999 40.3414 38.4999C40.1734 38.4999 40.0071 38.5326 39.852 38.596C39.6968 38.6594 39.5558 38.7523 39.437 38.8695C39.3183 38.9866 39.2241 39.1257 39.1598 39.2787C39.0956 39.4318 39.0625 39.5958 39.0625 39.7615C39.0625 39.9271 39.0956 40.0912 39.1599 40.2442C39.2242 40.3972 39.3184 40.5363 39.4372 40.6534L43.2909 44.4544C43.4774 44.6383 43.5935 44.8802 43.6195 45.139C43.6455 45.3979 43.5798 45.6576 43.4335 45.874C42.8534 46.7348 42.5137 47.7312 42.4486 48.7629C42.3835 49.7945 42.5954 50.8248 43.0628 51.7499L43.5048 52.6217C43.584 52.778 43.6251 52.9502 43.625 53.1249V54.2499H41.3437V53.3905L41.0221 52.756C40.4469 51.6176 40.1504 50.3621 40.1563 49.0902C40.1622 47.8183 40.4704 46.5654 41.0562 45.4323L37.8239 42.2443C37.161 41.5848 36.79 40.6931 36.792 39.7644C36.7941 38.8357 37.169 37.9456 37.8349 37.2889C38.5007 36.6323 39.4032 36.2625 40.3448 36.2605C41.2864 36.2585 42.1904 36.6245 42.8591 37.2784L44.7656 39.1589V19.3749C44.7649 18.7784 44.5243 18.2065 44.0967 17.7847C43.669 17.3629 43.0892 17.1256 42.4844 17.1249H39.7674L38.942 18.753C38.8473 18.9399 38.7017 19.097 38.5215 19.2069C38.3413 19.3167 38.1337 19.3749 37.9219 19.3749H31.0781C30.8663 19.3749 30.6587 19.3167 30.4785 19.2069C30.2983 19.097 30.1527 18.9399 30.058 18.753L29.2326 17.1249H26.5156C25.9108 17.1256 25.331 17.3629 24.9033 17.7847C24.4757 18.2065 24.2351 18.7784 24.2344 19.3749V21.6249H21.9531V19.3749C21.9545 18.1818 22.4356 17.038 23.291 16.1944C24.1463 15.3508 25.306 14.8762 26.5156 14.8749H42.4844C43.694 14.8762 44.8537 15.3508 45.709 16.1944C46.5644 17.038 47.0455 18.1818 47.0469 19.3749V30.1589L50.7455 33.8068C51.383 34.4321 51.8884 35.176 52.2325 35.9953C52.5765 36.8145 52.7524 37.693 52.75 38.5798V50.8749H50.4687ZM32.2188 47.4999H36.7812V49.7499H32.2188V47.4999ZM37.1153 33.6704C36.4212 32.9873 35.4806 32.6036 34.5 32.6036C33.5194 32.6036 32.5788 32.9873 31.8847 33.6704L30.2716 32.0794C31.3939 30.9749 32.9146 30.3547 34.5 30.3547C36.0854 30.3547 37.6061 30.9749 38.7284 32.0794L37.1153 33.6704ZM40.5372 30.8413C39.7444 30.0594 38.8032 29.4391 37.7673 29.0159C36.7314 28.5927 35.6212 28.3749 34.5 28.3749C33.3788 28.3749 32.2686 28.5927 31.2327 29.0159C30.1968 29.4391 29.2556 30.0594 28.4628 30.8413L26.8497 29.2504C28.8803 27.2522 31.6316 26.1299 34.5 26.1299C37.3684 26.1299 40.1197 27.2522 42.1503 29.2504L40.5372 30.8413ZM35.6406 37.3749V39.6249H33.3594V37.3749H35.6406ZM28.7969 37.3749H31.0781V39.6249H28.7969V37.3749Z" fill="#1FBF4C"/>
</svg>
