<svg width="81" height="81" viewBox="0 0 81 81" fill="none" xmlns="http://www.w3.org/2000/svg">
<g clip-path="url(#clip0)">
<path d="M80.4886 33.1559L69.6097 25.0839V5.0625C69.6097 4.36356 69.043 3.79688 68.344 3.79688H53.3147C52.6158 3.79688 52.0491 4.36356 52.0491 5.0625V12.0556L41.2542 4.04654C40.8068 3.71407 40.1938 3.71407 39.7463 4.04654L0.511952 33.1559C0.0731858 33.481 -0.107265 34.0508 0.0639161 34.5692C0.235715 35.0877 0.720212 35.4375 1.26589 35.4375H8.85964V75.9375C8.85964 76.6365 9.42633 77.2031 10.1253 77.2031H70.8753C71.5742 77.2031 72.1409 76.6365 72.1409 75.9375V35.4375H79.7347C80.2803 35.4375 80.7648 35.0877 80.936 34.5692C81.1078 34.0508 80.9274 33.481 80.4886 33.1559Z" fill="#EFEDEE"/>
<path d="M15.1881 75.9383V31.6415L46.0532 7.60755L41.2552 4.04674C40.8072 3.71489 40.1947 3.71489 39.7467 4.04674L0.512321 33.1561C0.0741722 33.4818 -0.106278 34.0516 0.0649025 34.5701C0.236083 35.0886 0.72058 35.4383 1.26626 35.4383H8.86001V75.9383C8.86001 76.6373 9.4267 77.204 10.1256 77.204H16.4538C15.7548 77.204 15.1881 76.6373 15.1881 75.9383Z" fill="#CFC9CC"/>
<path d="M56.8895 39.235C56.9321 38.8135 56.9531 38.3908 56.9531 37.9688C56.9531 30.9905 51.2757 25.3125 44.2969 25.3125C38.4236 25.3125 33.4099 29.3238 32.0225 34.8795C30.6859 34.4092 29.2867 34.1719 27.8438 34.1719C20.8655 34.1719 15.1875 39.8499 15.1875 46.8281C15.1875 53.807 20.8655 59.4844 27.8438 59.4844H56.9531C62.536 59.4844 67.0781 54.9428 67.0781 49.3594C67.0781 43.7549 62.5032 39.2072 56.8895 39.235Z" fill="#72CEED"/>
<path d="M60.75 56.9523H31.6406C24.6624 56.9523 18.9844 51.2749 18.9844 44.2961C18.9844 40.7266 20.4725 37.5001 22.8579 35.1963C18.3516 37.1361 15.1875 41.6183 15.1875 46.8273C15.1875 53.8062 20.8655 59.4836 27.8438 59.4836H56.9531C59.849 59.4836 62.4624 58.26 64.3096 56.3047C63.2016 56.7224 62.0027 56.9523 60.75 56.9523Z" fill="#14ADE0"/>
<path d="M47.5762 47.025C47.3741 47.025 47.1702 46.9737 46.9829 46.8655C45.0072 45.7235 42.5526 45.7235 40.5763 46.8655C40.009 47.1931 39.2835 46.999 38.9554 46.4317C38.6272 45.8644 38.8219 45.1389 39.3892 44.8107C42.0972 43.2454 45.4621 43.2454 48.1707 44.8107C48.738 45.1389 48.932 45.8644 48.6039 46.4317C48.3845 46.8124 47.9859 47.025 47.5762 47.025Z" fill="white"/>
<path d="M50.6236 42.9533C50.4036 42.9533 50.1811 42.8921 49.9827 42.7642C46.2149 40.3373 41.3464 40.3373 37.5792 42.7635C37.028 43.1183 36.2938 42.9594 35.9391 42.4088C35.5844 41.8582 35.7432 41.1234 36.2938 40.7687C40.8422 37.8395 46.7192 37.8395 51.2675 40.7687C51.8181 41.124 51.977 41.8582 51.6222 42.4088C51.3954 42.7611 51.0135 42.9533 50.6236 42.9533Z" fill="white"/>
<path d="M41.9909 51.8123C41.6875 51.8123 41.384 51.6967 41.1523 51.465C40.6888 51.0015 40.6888 50.25 41.1523 49.7871C41.8543 49.0851 42.7881 48.6982 43.7812 48.6982C44.7743 48.6982 45.708 49.0851 46.4101 49.7871C46.8735 50.2506 46.8729 51.0015 46.4101 51.465C45.9466 51.9284 45.1951 51.9284 44.7316 51.465C44.4776 51.211 44.1402 51.0713 43.7812 51.0713C43.4215 51.0713 43.0841 51.211 42.8301 51.465C42.5984 51.6967 42.2949 51.8123 41.9909 51.8123Z" fill="white"/>
</g>
<defs>
<clipPath id="clip0">
<rect width="81" height="81" fill="white"/>
</clipPath>
</defs>
</svg>
