<svg width="70" height="70" viewBox="0 0 70 70" fill="none" xmlns="http://www.w3.org/2000/svg">
<path d="M34.9996 11.2905C20.0345 11.2905 9.25098 23.2708 9.25098 38.2359C9.25098 53.201 20.0345 65.0783 34.9996 65.0783C38.6168 65.0783 42.0685 64.7753 45.2233 63.4891C52.9418 60.3422 58.8833 53.739 61.1254 45.6019L34.9996 11.2905Z" fill="#ECEAEC"/>
<path d="M38.3872 64.3554C23.4221 64.3554 11.2904 52.2238 11.2904 37.2586C11.2904 25.907 18.2736 16.1915 28.176 12.1587C16.5146 15.1843 7.90332 25.7798 7.90332 38.3876C7.90332 53.3527 20.0349 65.4845 35.0002 65.4845C38.6136 65.4845 42.0717 64.7733 45.2239 63.4895C43.0436 64.0551 40.7445 64.3554 38.3872 64.3554Z" fill="#DAD8DB"/>
<path d="M35.0003 11.2905C22.5339 11.2905 12.0406 19.7121 8.88184 31.1745L61.1262 45.6019C61.7593 43.3045 62.0971 40.8859 62.0971 38.3872C62.0971 23.4221 49.9654 11.2905 35.0003 11.2905Z" fill="#9B959D"/>
<path d="M67.742 4.5166H14.6774L10.3906 17.2271L12.7148 29.395L68.1182 27.0973L68.9531 26.0953C69.6295 25.2838 69.9999 24.2607 69.9999 23.2041V6.77465C70 5.52764 68.989 4.5166 67.742 4.5166Z" fill="#ECEAEC"/>
<path d="M37.8087 57.8895C38.4722 55.4852 35.599 52.5948 31.3913 51.4338C27.1837 50.2728 23.2348 51.2807 22.5714 53.6851C21.9079 56.0894 24.7811 58.9798 28.9888 60.1408C33.1964 61.3019 37.1453 60.2939 37.8087 57.8895Z" fill="#6F6571"/>
<path d="M14.6774 27.0973V4.5166H2.25805C1.01104 4.5166 0 5.52764 0 6.77465V23.204C0 24.2606 0.370371 25.2836 1.04672 26.0952L1.88166 27.0971L14.6774 31.6132H62.7684C63.7737 31.6132 64.7269 31.1666 65.3704 30.3945L68.1182 27.0971H14.6774V27.0973Z" fill="#DAD8DB"/>
<path d="M14.6775 27.0972H1.88184L4.62961 30.3945C5.27314 31.1667 6.22635 31.6133 7.23164 31.6133H14.6775V27.0972Z" fill="#C8C5C9"/>
<path d="M33.3408 57.1045C33.6271 56.0669 32.3873 54.8196 30.5716 54.3186C28.7558 53.8176 27.0518 54.2526 26.7655 55.2902C26.4792 56.3278 27.719 57.5751 29.5347 58.0761C31.3505 58.5771 33.0545 58.1422 33.3408 57.1045Z" fill="#4B3F4E"/>
</svg>
