<svg width="65" height="65" viewBox="0 0 65 65" fill="none" xmlns="http://www.w3.org/2000/svg">
<path d="M18.5518 33.3799V52.6091C18.5518 53.8278 19.4997 54.7758 20.7185 54.7758C21.9372 54.7758 22.8852 53.8278 22.8852 52.6091V33.3799H18.5518Z" fill="#ACB3BA"/>
<path d="M21.9368 45.1621H2.57227V59.1101L23.0202 51.933C24.3744 51.3913 25.3223 50.1726 25.3223 48.683C25.3223 46.7871 23.8326 45.1621 21.9368 45.1621Z" fill="#DAD8DB"/>
<path d="M0 37.0371V64.7976C2.84375 64.7976 5.01046 62.4955 5.01046 59.7871V42.0476C5.01046 39.3393 2.84375 37.0371 0 37.0371Z" fill="#334A5E"/>
<path d="M9.61523 29.9941L20.7194 41.0982L31.959 29.9941H9.61523Z" fill="#ACB3BA"/>
<path d="M20.7185 42.5883C23.2613 42.5883 25.3227 40.5269 25.3227 37.9841C25.3227 35.4413 23.2613 33.3799 20.7185 33.3799C18.1756 33.3799 16.1143 35.4413 16.1143 37.9841C16.1143 40.5269 18.1756 42.5883 20.7185 42.5883Z" fill="#E8EAEA"/>
<path d="M20.7178 40.8291C22.2883 40.8291 23.5615 39.5559 23.5615 37.9854C23.5615 36.4148 22.2883 35.1416 20.7178 35.1416C19.1472 35.1416 17.874 36.4148 17.874 37.9854C17.874 39.5559 19.1472 40.8291 20.7178 40.8291Z" fill="#DAD8DB"/>
<path d="M2.70829 2.50586C1.21875 2.50586 0 3.72461 0 5.21428V28.3705C0 29.8601 1.21875 31.0788 2.70829 31.0788H54.302V2.50586H2.70829Z" fill="#DAD8DB"/>
<path d="M58.9069 7.10938H54.3027V26.3386H58.9069V7.10938Z" fill="#40596B"/>
<path d="M62.427 10.9009H58.9062V22.5467H62.427V10.9009Z" fill="#334A5E"/>
<path d="M4.0625 0.203613C1.76046 0.203613 0 1.96407 0 4.26611V17.4016H47.125L65 0.203613H4.0625Z" fill="#F2F2F2"/>
<path d="M21.2607 50.8486C22.3826 50.8486 23.292 49.9392 23.292 48.8174C23.292 47.6956 22.3826 46.7861 21.2607 46.7861C20.1389 46.7861 19.2295 47.6956 19.2295 48.8174C19.2295 49.9392 20.1389 50.8486 21.2607 50.8486Z" fill="#ACB3BA"/>
</svg>
