<svg width="72" height="72" viewBox="0 0 72 72" fill="none" xmlns="http://www.w3.org/2000/svg">
<g clip-path="url(#clip0)">
<path d="M58.709 60.3462L61.3891 58.8975L64.0691 60.3462V64.3705C64.0691 65.8506 62.8692 67.0506 61.3891 67.0506C59.9089 67.0506 58.709 65.8506 58.709 64.3705V60.3462Z" fill="#C5BEC6"/>
<path d="M7.93164 60.3462L10.6117 58.8975L13.2918 60.3462V64.5154C13.2918 65.9955 12.0918 67.0506 10.6117 67.0506C9.13159 67.0506 7.93164 65.9955 7.93164 64.5154V60.3462Z" fill="#C5BEC6"/>
<path d="M35.5953 40.1078C34.9953 40.1078 34.5088 39.4912 34.5088 38.7307V27.381C34.5088 26.6205 34.9953 26.0039 35.5953 26.0039C36.1953 26.0039 36.6818 26.6205 36.6818 27.381V38.7307C36.6818 39.4912 36.1953 40.1078 35.5953 40.1078Z" fill="#B5ADB7"/>
<path d="M8.17221 37.5342H63.7055C64.4872 37.5342 65.1209 38.1678 65.1209 38.9496V42.0221L35.5971 44.9195L6.75684 42.0221V38.9496C6.75684 38.1678 7.39049 37.5342 8.17221 37.5342Z" fill="#C5BEC6"/>
<path d="M63.7054 37.5342H59.3594C60.1411 37.5342 60.7747 38.1678 60.7747 38.9496V42.0221H65.1208V38.9496C65.1208 38.1678 64.4872 37.5342 63.7054 37.5342Z" fill="#B5ADB7"/>
<path d="M37.5662 27.6401C38.4691 26.5423 38.3112 24.9205 37.2134 24.0176C36.1157 23.1147 34.4939 23.2726 33.5909 24.3703C32.688 25.468 32.8459 27.0899 33.9437 27.9928C35.0414 28.8957 36.6632 28.7378 37.5662 27.6401Z" fill="#72CEED"/>
<path d="M4.20179 42.021H67.7984C70.1189 42.021 72.0001 43.9021 72.0001 46.2228V56.1436C72.0001 58.4641 70.119 60.3454 67.7984 60.3454H4.20179C1.88113 60.3454 0 58.4642 0 56.1436V46.2228C0 43.9023 1.88113 42.021 4.20179 42.021Z" fill="#E3E0E4"/>
<path d="M67.7982 42.021H63.4521C65.7727 42.021 67.6539 43.9021 67.6539 46.2228V56.1436C67.6539 58.4641 65.7728 60.3454 63.4521 60.3454H67.7982C70.1187 60.3454 72 58.4642 72 56.1436V46.2228C72 43.9023 70.1189 42.021 67.7982 42.021Z" fill="#D4CFD5"/>
<path d="M64.0689 53.7912C64.669 53.7912 65.1555 53.3047 65.1555 52.7047C65.1555 52.1046 64.669 51.6182 64.0689 51.6182C63.4689 51.6182 62.9824 52.1046 62.9824 52.7047C62.9824 53.3047 63.4689 53.7912 64.0689 53.7912Z" fill="#B5ADB7"/>
<path d="M57.2955 53.7912C57.8956 53.7912 58.382 53.3047 58.382 52.7047C58.382 52.1046 57.8956 51.6182 57.2955 51.6182C56.6954 51.6182 56.209 52.1046 56.209 52.7047C56.209 53.3047 56.6954 53.7912 57.2955 53.7912Z" fill="#B5ADB7"/>
<path d="M50.524 53.7912C51.1241 53.7912 51.6105 53.3047 51.6105 52.7047C51.6105 52.1046 51.1241 51.6182 50.524 51.6182C49.9239 51.6182 49.4375 52.1046 49.4375 52.7047C49.4375 53.3047 49.9239 53.7912 50.524 53.7912Z" fill="#B5ADB7"/>
<path d="M42.9877 27.1681C42.3877 27.1681 41.9012 26.6816 41.9012 26.0816C41.9012 22.605 39.0728 19.7766 35.5962 19.7766C32.1196 19.7766 29.2912 22.605 29.2912 26.0816C29.2912 26.6816 28.8047 27.1681 28.2047 27.1681C27.6046 27.1681 27.1182 26.6816 27.1182 26.0816C27.1182 21.4068 30.9214 17.6035 35.5962 17.6035C40.271 17.6035 44.0742 21.4068 44.0742 26.0816C44.0742 26.6816 43.5878 27.1681 42.9877 27.1681Z" fill="#C5BEC6"/>
<path d="M49.5879 27.167C48.9878 27.167 48.5013 26.6805 48.5013 26.0804C48.5013 18.9646 42.7122 13.1755 35.5965 13.1755C28.4807 13.1755 22.6916 18.9646 22.6916 26.0804C22.6916 26.6805 22.2051 27.167 21.6051 27.167C21.005 27.167 20.5186 26.6805 20.5186 26.0804C20.5186 17.7664 27.2825 11.0024 35.5965 11.0024C43.9106 11.0024 50.6744 17.7664 50.6744 26.0804C50.6744 26.6805 50.1879 27.167 49.5879 27.167Z" fill="#C5BEC6"/>
<path d="M55.6406 27.1674C55.0406 27.1674 54.5541 26.6809 54.5541 26.0809C54.5541 15.6271 46.0494 7.12226 35.5955 7.12226C25.1416 7.12226 16.6369 15.6271 16.6369 26.0809C16.6369 26.6809 16.1504 27.1674 15.5504 27.1674C14.9503 27.1674 14.4639 26.6809 14.4639 26.0809C14.4639 14.4289 23.9435 4.94922 35.5955 4.94922C47.2475 4.94922 56.7271 14.4289 56.7271 26.0809C56.7271 26.6809 56.2408 27.1674 55.6406 27.1674Z" fill="#C5BEC6"/>
<path d="M37.8941 53.7912H4.63535C4.0353 53.7912 3.54883 53.3047 3.54883 52.7047C3.54883 52.1046 4.0353 51.6182 4.63535 51.6182H37.8941C38.4942 51.6182 38.9807 52.1046 38.9807 52.7047C38.9807 53.3047 38.4942 53.7912 37.8941 53.7912Z" fill="#C5BEC6"/>
</g>
<defs>
<clipPath id="clip0">
<rect width="72" height="72" fill="white"/>
</clipPath>
</defs>
</svg>
