<svg width="70" height="70" viewBox="0 0 70 70" fill="none" xmlns="http://www.w3.org/2000/svg">
<path d="M35 48.125H41.5625V61.25H39.6484C38.4156 61.25 37.2332 60.7603 36.3615 59.8885C35.4897 59.0168 35 57.8344 35 56.6016V48.125Z" fill="#BBBAB6"/>
<path d="M18.5938 21.875H49.2188V43.75H18.5938V21.875Z" fill="#F2F2F2"/>
<path d="M35 36.0938C35.6041 36.0938 36.0938 35.6041 36.0938 35C36.0938 34.3959 35.6041 33.9062 35 33.9062C34.3959 33.9062 33.9062 34.3959 33.9062 35C33.9062 35.6041 34.3959 36.0938 35 36.0938Z" fill="#72CEED"/>
<path d="M30.8984 35.8203C31.3515 35.8203 31.7188 35.453 31.7188 35C31.7188 34.547 31.3515 34.1797 30.8984 34.1797C30.4454 34.1797 30.0781 34.547 30.0781 35C30.0781 35.453 30.4454 35.8203 30.8984 35.8203Z" fill="#72CEED"/>
<path d="M39.1016 35.8203C39.5546 35.8203 39.9219 35.453 39.9219 35C39.9219 34.547 39.5546 34.1797 39.1016 34.1797C38.6485 34.1797 38.2812 34.547 38.2812 35C38.2812 35.453 38.6485 35.8203 39.1016 35.8203Z" fill="#72CEED"/>
<path d="M25.1565 13.0766C24.9498 13.0764 24.7473 13.0177 24.5726 12.9072C24.3979 12.7967 24.258 12.639 24.1693 12.4522C24.0806 12.2655 24.0466 12.0575 24.0713 11.8522C24.096 11.647 24.1784 11.4529 24.3088 11.2925C26.0268 9.18113 28.314 7.60642 30.8995 6.75499C33.485 5.90355 36.2603 5.81108 38.8967 6.48852C39.1756 6.56269 39.4139 6.74408 39.5596 6.99316C39.7054 7.24224 39.7468 7.53883 39.6748 7.8183C39.6028 8.09777 39.4233 8.33747 39.1754 8.48517C38.9275 8.63288 38.6312 8.67661 38.3512 8.60684C36.12 8.03376 33.7712 8.11218 31.5832 8.83283C29.3951 9.55348 27.4595 10.8862 26.0055 12.673C25.903 12.7993 25.7736 12.901 25.6267 12.9709C25.4798 13.0407 25.3191 13.0768 25.1565 13.0766Z" fill="#72CEED"/>
<path d="M45.5298 13.0768C45.367 13.0771 45.2062 13.041 45.0592 12.9712C44.9122 12.9014 44.7826 12.7995 44.6801 12.6732C43.7547 11.5334 42.6288 10.5723 41.3578 9.83734C41.2316 9.76642 41.1207 9.67113 41.0316 9.55702C40.9424 9.4429 40.8768 9.31223 40.8386 9.17257C40.8004 9.03291 40.7903 8.88706 40.8088 8.74346C40.8274 8.59986 40.8743 8.46138 40.9468 8.33605C41.0194 8.21072 41.116 8.10104 41.2313 8.01336C41.3465 7.92568 41.478 7.86176 41.6181 7.82529C41.7582 7.78883 41.9042 7.78055 42.0476 7.80094C42.1909 7.82132 42.3288 7.86997 42.4532 7.94406C43.9543 8.81183 45.2841 9.9467 46.377 11.2927C46.5075 11.4531 46.5899 11.6471 46.6145 11.8524C46.6392 12.0576 46.6053 12.2657 46.5165 12.4524C46.4278 12.6391 46.288 12.7969 46.1133 12.9074C45.9386 13.0179 45.7361 13.0766 45.5294 13.0768H45.5298Z" fill="#72CEED"/>
<path d="M28.552 15.8358C28.3453 15.8357 28.1428 15.777 27.9681 15.6665C27.7934 15.556 27.6535 15.3982 27.5648 15.2115C27.4761 15.0248 27.4421 14.8167 27.4668 14.6115C27.4915 14.4062 27.5739 14.2122 27.7043 14.0518C29.0339 12.4218 30.8474 11.2569 32.8827 10.7257C33.0222 10.6886 33.1677 10.6795 33.3107 10.6989C33.4538 10.7183 33.5916 10.7658 33.7162 10.8387C33.8408 10.9116 33.9497 11.0085 34.0367 11.1237C34.1237 11.2389 34.187 11.3702 34.223 11.51C34.259 11.6497 34.2669 11.7953 34.2464 11.9382C34.2259 12.0811 34.1773 12.2185 34.1034 12.3425C34.0295 12.4665 33.9318 12.5747 33.8159 12.6608C33.7001 12.7468 33.5683 12.8091 33.4282 12.844C31.8453 13.2577 30.4349 14.1641 29.4011 15.4322C29.2986 15.5585 29.1692 15.6603 29.0222 15.7301C28.8753 15.8 28.7147 15.8361 28.552 15.8358Z" fill="#72CEED"/>
<path d="M42.1335 15.8357C41.9708 15.8359 41.8102 15.7998 41.6633 15.73C41.5163 15.6602 41.3869 15.5584 41.2843 15.4321C40.0446 13.8983 38.258 12.9052 36.3008 12.6621C36.1583 12.6442 36.0207 12.5985 35.8958 12.5275C35.771 12.4565 35.6613 12.3616 35.5731 12.2482C35.395 12.0192 35.3152 11.7288 35.3512 11.441C35.3872 11.1531 35.5361 10.8913 35.7651 10.7133C35.9941 10.5352 36.2845 10.4554 36.5723 10.4914C39.0892 10.8034 41.3869 12.0797 42.9818 14.0517C43.1123 14.212 43.1947 14.4061 43.2194 14.6113C43.2441 14.8166 43.2101 15.0246 43.1214 15.2113C43.0326 15.3981 42.8928 15.5558 42.7181 15.6663C42.5434 15.7768 42.3409 15.8356 42.1342 15.8357H42.1335Z" fill="#72CEED"/>
<path d="M31.9464 18.5949C31.7397 18.5948 31.5373 18.5361 31.3626 18.4256C31.1879 18.3151 31.0481 18.1573 30.9594 17.9706C30.8707 17.7839 30.8367 17.5759 30.8613 17.3707C30.886 17.1654 30.9683 16.9714 31.0988 16.811C31.6105 16.179 32.2573 15.6695 32.9916 15.32C33.7259 14.9705 34.5291 14.7897 35.3424 14.791C35.6324 14.791 35.9106 14.9063 36.1158 15.1114C36.3209 15.3165 36.4361 15.5947 36.4361 15.8848C36.4361 16.1749 36.3209 16.4531 36.1158 16.6582C35.9106 16.8633 35.6324 16.9785 35.3424 16.9785C34.8543 16.9778 34.3722 17.0864 33.9316 17.2963C33.4909 17.5061 33.1028 17.812 32.7957 18.1914C32.6932 18.3177 32.5637 18.4195 32.4167 18.4893C32.2698 18.5591 32.1091 18.5952 31.9464 18.5949Z" fill="#72CEED"/>
<path d="M38.7384 18.5941C38.5758 18.5943 38.4152 18.5582 38.2683 18.4884C38.1214 18.4186 37.9919 18.3169 37.8894 18.1906C37.7744 18.0496 37.6481 17.9181 37.5118 17.7975C37.2943 17.6056 37.1619 17.3351 37.1437 17.0455C37.1256 16.756 37.2233 16.4711 37.4152 16.2535C37.6072 16.036 37.8777 15.9036 38.1672 15.8854C38.4568 15.8673 38.7417 15.965 38.9592 16.1569C39.1857 16.3569 39.3954 16.5751 39.5861 16.8095C39.7166 16.9698 39.7989 17.1639 39.8236 17.3691C39.8483 17.5744 39.8143 17.7824 39.7256 17.9692C39.6369 18.1559 39.4971 18.3136 39.3224 18.4241C39.1476 18.5347 38.9452 18.5934 38.7384 18.5935V18.5941Z" fill="#72CEED"/>
<path d="M20.7812 43.75H12.0312V35L20.7812 37.1875V43.75Z" fill="#BBBAB6"/>
<path d="M20.7812 37.1875H16.069C14.8771 37.1875 13.7125 36.8303 12.7256 36.1621C11.7386 35.4938 10.9745 34.5452 10.5319 33.4385C10.0839 32.3185 9.30688 31.3606 8.30334 30.6913L7.83234 30.3769C6.43253 29.4439 5.28472 28.1797 4.4908 26.6966C3.69688 25.2134 3.2814 23.5572 3.28125 21.875H20.7812V37.1875Z" fill="#DCDBD6"/>
<path d="M49.2188 24.0625C51.5394 24.0625 53.765 24.9844 55.4059 26.6253C57.0469 28.2663 57.9688 30.4919 57.9688 32.8125C57.9688 35.1331 57.0469 37.3587 55.4059 38.9997C53.765 40.6406 51.5394 41.5625 49.2188 41.5625V24.0625Z" fill="#BBBAB6"/>
<path d="M32.8125 43.75H43.75V47.0312C43.75 47.7494 43.6085 48.4606 43.3337 49.1241C43.0589 49.7875 42.6561 50.3904 42.1482 50.8982C41.6404 51.4061 41.0375 51.8089 40.3741 52.0837C39.7106 52.3585 38.9994 52.5 38.2812 52.5C37.5631 52.5 36.8519 52.3585 36.1884 52.0837C35.525 51.8089 34.9221 51.4061 34.4143 50.8982C33.9064 50.3904 33.5036 49.7875 33.2288 49.1241C32.954 48.4606 32.8125 47.7494 32.8125 47.0312V43.75Z" fill="#DCDBD6"/>
<path d="M41.5625 54.6875H57.9688V61.25H41.5625V54.6875Z" fill="#DCDBD6"/>
<path d="M57.9688 51.4062H66.7188V64.5312H57.9688V51.4062Z" fill="#BBBAB6"/>
</svg>
