<svg width="40" height="40" viewBox="0 0 40 40" fill="none" xmlns="http://www.w3.org/2000/svg">
<path d="M39.166 10.1562V15.4062C39.166 17.1467 38.4746 18.8159 37.2439 20.0466C36.0132 21.2773 34.344 21.9688 32.6035 21.9688H28.666C26.9255 21.9688 25.2563 21.2773 24.0256 20.0466C22.7949 18.8159 22.1035 17.1467 22.1035 15.4062V10.1562C22.1046 9.80847 22.2432 9.47524 22.4891 9.22932C22.735 8.9834 23.0682 8.84479 23.416 8.84375H37.8535C38.2013 8.84479 38.5345 8.9834 38.7804 9.22932C39.0264 9.47524 39.165 9.80847 39.166 10.1562Z" fill="#D1DAE7"/>
<path d="M39.1662 10.1563V15.4063C39.1662 17.1467 38.4748 18.8159 37.2441 20.0466C36.0133 21.2774 34.3442 21.9688 32.6037 21.9688H28.6662C27.4863 21.9695 26.3281 21.6515 25.314 21.0486C24.2998 20.4456 23.4673 19.58 22.9043 18.5431C23.8656 19.0704 24.9447 19.3458 26.0412 19.3438H29.9787C31.7192 19.3438 33.3883 18.6523 34.6191 17.4216C35.8498 16.1909 36.5412 14.5217 36.5412 12.7813V8.84375H37.8537C38.2014 8.84479 38.5347 8.9834 38.7806 9.22932C39.0265 9.47524 39.1651 9.80847 39.1662 10.1563Z" fill="#7C8A9E"/>
<path d="M36.541 8.84375V10.8125H32.6035V2.9375C32.6035 2.41536 32.8109 1.9146 33.1802 1.54538C33.5494 1.17617 34.0501 0.96875 34.5723 0.96875C35.0944 0.96875 35.5952 1.17617 35.9644 1.54538C36.3336 1.9146 36.541 2.41536 36.541 2.9375V8.84375Z" fill="white"/>
<path d="M32.6035 21.9688V23.9375C32.6035 24.4596 32.3961 24.9604 32.0269 25.3296C31.6577 25.6988 31.1569 25.9062 30.6348 25.9062C30.1126 25.9062 29.6119 25.6988 29.2427 25.3296C28.8734 24.9604 28.666 24.4596 28.666 23.9375V21.3125C28.666 20.7904 28.8734 20.2896 29.2427 19.9204C29.6119 19.5512 30.1126 19.3438 30.6348 19.3438C31.1569 19.3438 31.6577 19.5512 32.0269 19.9204C32.3961 20.2896 32.6035 20.7904 32.6035 21.3125V21.9688Z" fill="white"/>
<path d="M28.666 8.84375V10.8125H24.7285V2.9375C24.7285 2.41536 24.9359 1.9146 25.3052 1.54538C25.6744 1.17617 26.1751 0.96875 26.6973 0.96875C27.2194 0.96875 27.7202 1.17617 28.0894 1.54538C28.4586 1.9146 28.666 2.41536 28.666 2.9375V8.84375Z" fill="white"/>
<path d="M15.541 0.96875H2.41602C1.69114 0.96875 1.10352 1.55638 1.10352 2.28125V19.3438C1.10352 20.0686 1.69114 20.6562 2.41602 20.6562H15.541C16.2659 20.6562 16.8535 20.0686 16.8535 19.3438V2.28125C16.8535 1.55638 16.2659 0.96875 15.541 0.96875Z" fill="#D1DAE7"/>
<path d="M16.8535 2.28125V19.3438C16.8525 19.6915 16.7139 20.0248 16.4679 20.2707C16.222 20.5166 15.8888 20.6552 15.541 20.6562H2.41602C2.06824 20.6552 1.735 20.5166 1.48909 20.2707C1.24317 20.0248 1.10455 19.6915 1.10352 19.3438V18.0312H12.916C13.2638 18.0302 13.597 17.8916 13.8429 17.6457C14.0889 17.3998 14.2275 17.0665 14.2285 16.7188V0.96875H15.541C15.8888 0.969789 16.222 1.1084 16.4679 1.35432C16.7139 1.60024 16.8525 1.93347 16.8535 2.28125Z" fill="#B1BDD0"/>
<path d="M12.916 9.5L8.97852 17.375V12.125H5.04102L8.97852 4.25V9.5H12.916Z" fill="#F26A5F"/>
<path d="M24.7285 33.7812H29.3223C29.8439 33.7797 30.3438 33.5718 30.7127 33.2029C31.0815 32.834 31.2895 32.3342 31.291 31.8125V26.4706C31.8531 26.3255 32.3512 25.9982 32.7074 25.5398C33.0636 25.0815 33.2579 24.518 33.2598 23.9375V22.5922C35.0521 22.4269 36.7183 21.5987 37.932 20.2696C39.1458 18.9405 39.8199 17.2062 39.8223 15.4062V10.1562C39.8207 9.63458 39.6128 9.13473 39.2439 8.76585C38.875 8.39698 38.3752 8.18906 37.8535 8.1875H37.1973V2.9375C37.1973 2.24131 36.9207 1.57363 36.4284 1.08134C35.9361 0.589062 35.2685 0.3125 34.5723 0.3125C33.8761 0.3125 33.2084 0.589062 32.7161 1.08134C32.2238 1.57363 31.9473 2.24131 31.9473 2.9375V8.1875H29.3223V2.9375C29.3223 2.24131 29.0457 1.57363 28.5534 1.08134C28.0611 0.589062 27.3935 0.3125 26.6973 0.3125C26.0011 0.3125 25.3334 0.589062 24.8411 1.08134C24.3488 1.57363 24.0723 2.24131 24.0723 2.9375V8.1875H23.416C22.8944 8.18906 22.3945 8.39698 22.0256 8.76585C21.6567 9.13473 21.4488 9.63458 21.4473 10.1562V15.4062C21.4496 17.2062 22.1237 18.9405 23.3375 20.2696C24.5513 21.5987 26.2174 22.4269 28.0098 22.5922V23.9375C28.0117 24.518 28.2059 25.0815 28.5621 25.5398C28.9183 25.9982 29.4165 26.3255 29.9785 26.4706V31.8125C29.9785 31.9865 29.9094 32.1535 29.7863 32.2765C29.6632 32.3996 29.4963 32.4688 29.3223 32.4688H24.7285C24.4288 32.4688 24.1331 32.5375 23.864 32.6694C23.5949 32.8013 23.3595 32.993 23.1758 33.2298C22.9922 33.4667 22.8651 33.7424 22.8044 34.0359C22.7437 34.3294 22.7508 34.6328 22.8254 34.9231C22.9416 35.3555 23.1993 35.7365 23.5573 36.0053C23.9153 36.2741 24.3531 36.4153 24.8007 36.4062H37.8535C38.0276 36.4062 38.1945 36.4754 38.3176 36.5985C38.4406 36.7215 38.5098 36.8885 38.5098 37.0625V37.7188C38.5098 37.8928 38.4406 38.0597 38.3176 38.1828C38.1945 38.3059 38.0276 38.375 37.8535 38.375H14.2285C13.0106 38.3736 11.843 37.8892 10.9818 37.028C10.1206 36.1668 9.63616 34.9992 9.63477 33.7812V21.3125H15.541C16.0627 21.3109 16.5625 21.103 16.9314 20.7341C17.3003 20.3653 17.5082 19.8654 17.5098 19.3438V2.28125C17.5082 1.75958 17.3003 1.25973 16.9314 0.890855C16.5625 0.52198 16.0627 0.314058 15.541 0.3125H2.41602C1.89435 0.314058 1.3945 0.52198 1.02562 0.890855C0.656745 1.25973 0.448824 1.75958 0.447266 2.28125V19.3438C0.448824 19.8654 0.656745 20.3653 1.02562 20.7341C1.3945 21.103 1.89435 21.3109 2.41602 21.3125H8.32227V33.7812C8.3247 35.3469 8.94774 36.8478 10.0549 37.9549C11.162 39.062 12.6628 39.6851 14.2285 39.6875H37.8535C38.3752 39.6859 38.875 39.478 39.2439 39.1091C39.6128 38.7403 39.8207 38.2404 39.8223 37.7188V37.0625C39.8207 36.5408 39.6128 36.041 39.2439 35.6721C38.875 35.3032 38.3752 35.0953 37.8535 35.0938H24.8007C24.6453 35.099 24.4924 35.0539 24.3647 34.9652C24.237 34.8765 24.1413 34.749 24.092 34.6016C24.0619 34.4898 24.0631 34.3719 24.0955 34.2608C24.1279 34.1497 24.1903 34.0496 24.2757 33.9716C24.3338 33.9101 24.4041 33.8615 24.4821 33.8287C24.56 33.796 24.644 33.7798 24.7285 33.7812ZM33.2598 2.9375C33.2598 2.5894 33.398 2.25556 33.6442 2.00942C33.8903 1.76328 34.2242 1.625 34.5723 1.625C34.9204 1.625 35.2542 1.76328 35.5003 2.00942C35.7465 2.25556 35.8848 2.5894 35.8848 2.9375V10.1562H33.2598V2.9375ZM25.3848 2.9375C25.3848 2.5894 25.523 2.25556 25.7692 2.00942C26.0153 1.76328 26.3492 1.625 26.6973 1.625C27.0454 1.625 27.3792 1.76328 27.6253 2.00942C27.8715 2.25556 28.0098 2.5894 28.0098 2.9375V10.1562H25.3848V2.9375ZM28.0163 21.2731C26.5718 21.1133 25.237 20.4264 24.2671 19.344C23.2973 18.2616 22.7606 16.8596 22.7598 15.4062V10.1562C22.7598 9.9822 22.8289 9.81528 22.952 9.69221C23.075 9.56914 23.242 9.5 23.416 9.5H24.0723V10.8125C24.0723 10.9865 24.1414 11.1535 24.2645 11.2765C24.3875 11.3996 24.5545 11.4688 24.7285 11.4688H28.666C28.8401 11.4688 29.007 11.3996 29.1301 11.2765C29.2531 11.1535 29.3223 10.9865 29.3223 10.8125V9.5H31.9473V10.8125C31.9473 10.9865 32.0164 11.1535 32.1395 11.2765C32.2625 11.3996 32.4295 11.4688 32.6035 11.4688H36.541C36.7151 11.4688 36.882 11.3996 37.0051 11.2765C37.1281 11.1535 37.1973 10.9865 37.1973 10.8125V9.5H37.8535C38.0276 9.5 38.1945 9.56914 38.3176 9.69221C38.4406 9.81528 38.5098 9.9822 38.5098 10.1562V15.4062C38.5089 16.8596 37.9722 18.2616 37.0024 19.344C36.0326 20.4264 34.6977 21.1133 33.2532 21.2731C33.2532 20.5787 32.9773 19.9127 32.4863 19.4216C31.9952 18.9306 31.3292 18.6547 30.6348 18.6547C29.9403 18.6547 29.2743 18.9306 28.7832 19.4216C28.2922 19.9127 28.0163 20.5787 28.0163 21.2731ZM29.3223 23.9375V21.3125C29.3223 20.9644 29.4605 20.6306 29.7067 20.3844C29.9528 20.1383 30.2867 20 30.6348 20C30.9829 20 31.3167 20.1383 31.5628 20.3844C31.809 20.6306 31.9473 20.9644 31.9473 21.3125V23.9375C31.9473 24.2856 31.809 24.6194 31.5628 24.8656C31.3167 25.1117 30.9829 25.25 30.6348 25.25C30.2867 25.25 29.9528 25.1117 29.7067 24.8656C29.4605 24.6194 29.3223 24.2856 29.3223 23.9375ZM2.41602 20C2.24197 20 2.07505 19.9309 1.95198 19.8078C1.82891 19.6847 1.75977 19.5178 1.75977 19.3438V2.28125C1.75977 2.1072 1.82891 1.94028 1.95198 1.81721C2.07505 1.69414 2.24197 1.625 2.41602 1.625H15.541C15.7151 1.625 15.882 1.69414 16.0051 1.81721C16.1281 1.94028 16.1973 2.1072 16.1973 2.28125V19.3438C16.1973 19.5178 16.1281 19.6847 16.0051 19.8078C15.882 19.9309 15.7151 20 15.541 20H2.41602Z" fill="#2A4368"/>
<path d="M29.9785 21.9688H31.291V23.2812H29.9785V21.9688Z" fill="#2A4368"/>
<path d="M13.4738 9.15157C13.4147 9.05699 13.3324 8.97904 13.2348 8.92508C13.1373 8.87111 13.0275 8.84291 12.916 8.84313H9.63473V4.24938C9.63426 4.10193 9.58415 3.95894 9.49248 3.84346C9.4008 3.72798 9.27291 3.64673 9.12942 3.61282C8.98636 3.57726 8.83544 3.59172 8.70173 3.6538C8.56802 3.71588 8.45958 3.82183 8.39442 3.95407L4.45692 11.8291C4.40658 11.929 4.38261 12.0401 4.38729 12.1518C4.39198 12.2636 4.42515 12.3723 4.48367 12.4677C4.54219 12.563 4.62411 12.6418 4.72165 12.6966C4.81919 12.7514 4.92912 12.7803 5.04098 12.7806H8.32223V17.3744C8.3227 17.5218 8.37281 17.6648 8.46449 17.7803C8.55616 17.8958 8.68405 17.977 8.82754 18.0109C8.87681 18.0239 8.92754 18.0305 8.97848 18.0306C9.09967 18.0303 9.21839 17.9963 9.32148 17.9326C9.42457 17.8689 9.50801 17.7779 9.56254 17.6697L13.5 9.79469C13.5508 9.69414 13.5751 9.58228 13.5705 9.46972C13.5659 9.35716 13.5326 9.24764 13.4738 9.15157ZM9.63473 14.5919V12.1244C9.63473 11.9503 9.56559 11.7834 9.44252 11.6603C9.31945 11.5373 9.15253 11.4681 8.97848 11.4681H6.10411L8.32223 7.03188V9.49938C8.32223 9.67343 8.39137 9.84035 8.51444 9.96342C8.63751 10.0865 8.80443 10.1556 8.97848 10.1556H11.8529L9.63473 14.5919Z" fill="#2A4368"/>
</svg>