<svg width="51" height="50" viewBox="0 0 51 50" fill="none" xmlns="http://www.w3.org/2000/svg">
<path d="M29.5467 49.024H41.0324V23.7503C40.0633 22.4263 38.3815 21.457 36.7124 20.7706C34.3773 19.8104 31.8675 19.3477 29.3427 19.3477H20.9271C18.4021 19.3477 15.8924 19.8104 13.5573 20.7706C11.8882 21.457 10.2064 22.4263 9.2373 23.7503V49.024H20.888L20.8879 49.0234L29.5467 49.024Z" fill="white"/>
<path d="M37.334 13.1748V21.0391C37.1279 20.9453 36.9199 20.8555 36.7129 20.7705C35.2656 20.1748 33.75 19.7705 32.2061 19.5498V13.1748C32.2061 9.27539 29.0342 6.10352 25.1348 6.10352C21.2363 6.10352 18.0645 9.27539 18.0645 13.1748V19.5498C16.5205 19.7705 15.0049 20.1748 13.5576 20.7705C13.3506 20.8555 13.1426 20.9453 12.9365 21.0391V13.1748C12.9365 6.44824 18.4082 0.976562 25.1348 0.976562C31.8613 0.976562 37.334 6.44824 37.334 13.1748Z" fill="#868EAF"/>
<path d="M27.1478 34.4637C28.2149 33.7932 28.9248 32.6062 28.9248 31.2529C28.9248 29.1598 27.2279 27.4629 25.1348 27.4629C23.0416 27.4629 21.3447 29.1598 21.3447 31.2529C21.3447 32.6062 22.0546 33.7932 23.1218 34.4637L21.5928 40.4743H28.7744L27.1478 34.4637Z" fill="#F26A5F"/>
<path d="M41.8206 23.1729C41.0625 22.1373 39.8841 21.2161 38.3103 20.4249V13.1749C38.3103 5.91025 32.3998 0 25.1346 0C17.8699 0 11.9598 5.91025 11.9598 13.1748V20.4247C10.3858 21.216 9.20742 22.1372 8.44932 23.1729C8.32686 23.3402 8.26074 23.5423 8.26074 23.7497V49.0234C8.26074 49.5628 8.69805 50 9.2373 50H20.8881C21.1751 50 21.4476 49.8734 21.6332 49.6544C21.8187 49.4354 21.8985 49.1455 21.8513 48.8623C21.7699 48.3746 21.3372 48.0332 20.8599 48.0469H10.2139V24.0875C11.3719 22.7184 13.1739 21.9092 14.8306 21.3325C16.7866 20.6516 18.8576 20.3236 20.9271 20.3236H29.3428C31.4123 20.3236 33.4834 20.6516 35.4395 21.3325C37.0964 21.9094 38.8979 22.7183 40.0561 24.0875V48.0469H29.5469C29.0076 48.0469 28.5703 48.4841 28.5703 49.0234C28.5703 49.5628 29.0076 50 29.5469 50H41.0326C41.5719 50 42.0092 49.5628 42.0092 49.0234V23.7497C42.0092 23.5423 41.9431 23.3402 41.8206 23.1729ZM13.9129 13.1748C13.9129 6.98711 18.947 1.95312 25.1346 1.95312C31.3228 1.95312 36.3572 6.98711 36.3572 13.1748V19.5854C35.3256 19.2092 34.2619 18.9203 33.1823 18.7198V13.1748C33.1823 8.73721 29.5721 5.12695 25.1346 5.12695C20.6975 5.12695 17.0877 8.73721 17.0877 13.1748V18.7198C16.0083 18.9202 14.9443 19.2089 13.9129 19.5853V13.1748ZM20.9271 18.3705C20.2915 18.3705 19.6626 18.3991 19.0408 18.4538V13.1748C19.0408 9.81416 21.7745 7.08008 25.1346 7.08008C28.4951 7.08008 31.2292 9.81416 31.2292 13.1748V18.4538C30.6073 18.3991 29.9784 18.3705 29.3428 18.3705H20.9271Z" fill="#2A4368"/>
<path d="M20.822 41.0737C21.007 41.3117 21.2915 41.4509 21.593 41.4509H28.7745C29.0785 41.4509 29.3652 41.3093 29.55 41.0679C29.7348 40.8265 29.7965 40.5127 29.7171 40.2192L28.2639 34.849C29.3003 33.9508 29.9015 32.6521 29.9015 31.2529C29.9015 28.6246 27.7632 26.4863 25.1349 26.4863C22.5065 26.4863 20.3682 28.6246 20.3682 31.2529C20.3682 32.656 20.9725 33.9578 22.0143 34.8563L20.6464 40.2336C20.5722 40.5257 20.6369 40.8357 20.822 41.0737ZM25.1349 28.4395C26.6862 28.4395 27.9483 29.7016 27.9483 31.2529C27.9483 32.2264 27.4549 33.1175 26.6283 33.6368C26.2647 33.8652 26.0931 34.3043 26.2053 34.7188L27.4985 39.4979H22.849L24.0683 34.7046C24.1728 34.2937 24.0003 33.8624 23.6414 33.6369C22.8148 33.1176 22.3213 32.2264 22.3213 31.253C22.3213 29.7016 23.5835 28.4395 25.1349 28.4395Z" fill="#2A4368"/>
<path d="M26.1255 48.6514C25.9676 48.2663 25.5666 48.0205 25.1518 48.0514C24.744 48.0818 24.3928 48.3709 24.2831 48.7643C24.0512 49.5971 24.985 50.3013 25.7253 49.8615C26.1356 49.6178 26.3087 49.0913 26.1255 48.6514Z" fill="#2A4368"/>
</svg>