<svg width="112" height="41" viewBox="0 0 112 41" fill="none" xmlns="http://www.w3.org/2000/svg">
<path d="M16.5488 11.251C16.7614 10.9417 16.9934 10.729 17.2448 10.613C17.4961 10.4777 17.8441 10.41 18.2888 10.41C18.7334 10.41 19.0814 10.5357 19.3328 10.787C19.6034 11.0383 19.7388 11.396 19.7388 11.86V29.666C19.7388 30.1107 19.6034 30.4683 19.3328 30.739C19.0621 31.0097 18.7044 31.145 18.2598 31.145C17.8151 31.145 17.4574 31.0097 17.1868 30.739C16.9161 30.4683 16.7808 30.1107 16.7808 29.666V14.992L5.87677 30.072C5.56743 30.4973 5.27743 30.7873 5.00677 30.942C4.7361 31.0773 4.3881 31.145 3.96277 31.145C3.5181 31.145 3.16043 31.0193 2.88977 30.768C2.63843 30.5167 2.51277 30.159 2.51277 29.695V11.889C2.51277 11.4443 2.6481 11.0867 2.91877 10.816C3.18943 10.5453 3.5471 10.41 3.99177 10.41C4.43643 10.41 4.7941 10.5453 5.06477 10.816C5.33543 11.0867 5.47077 11.4443 5.47077 11.889V26.534L16.5488 11.251ZM29.8543 31.203C28.4623 31.203 27.2347 30.9033 26.1713 30.304C25.1273 29.7047 24.3153 28.854 23.7353 27.752C23.1747 26.6307 22.8943 25.3353 22.8943 23.866C22.8943 22.3773 23.1747 21.082 23.7353 19.98C24.3153 18.8587 25.1273 17.9983 26.1713 17.399C27.2347 16.7997 28.4623 16.5 29.8543 16.5C31.2463 16.5 32.4643 16.7997 33.5083 17.399C34.5717 17.9983 35.3837 18.8587 35.9443 19.98C36.5243 21.082 36.8143 22.3773 36.8143 23.866C36.8143 25.3353 36.5243 26.6307 35.9443 27.752C35.3837 28.854 34.5717 29.7047 33.5083 30.304C32.4643 30.9033 31.2463 31.203 29.8543 31.203ZM29.8543 28.883C31.1497 28.883 32.1357 28.4577 32.8123 27.607C33.5083 26.7563 33.8563 25.5093 33.8563 23.866C33.8563 22.242 33.5083 21.0047 32.8123 20.154C32.1163 19.284 31.1303 18.849 29.8543 18.849C28.5783 18.849 27.5923 19.284 26.8963 20.154C26.2003 21.0047 25.8523 22.242 25.8523 23.866C25.8523 25.5093 26.1907 26.7563 26.8673 27.607C27.5633 28.4577 28.559 28.883 29.8543 28.883ZM41.0615 31.145C40.6168 31.145 40.2591 31.0193 39.9885 30.768C39.7178 30.5167 39.5825 30.1783 39.5825 29.753V17.95C39.5825 17.5247 39.7178 17.1863 39.9885 16.935C40.2591 16.6837 40.6168 16.558 41.0615 16.558C41.5061 16.558 41.8541 16.6837 42.1055 16.935C42.3761 17.1863 42.5115 17.5247 42.5115 17.95V22.59H49.4715V17.95C49.4715 17.5247 49.6068 17.1863 49.8775 16.935C50.1481 16.6837 50.5058 16.558 50.9505 16.558C51.3951 16.558 51.7431 16.6837 51.9945 16.935C52.2651 17.1863 52.4005 17.5247 52.4005 17.95L52.4295 29.666C52.4295 30.1107 52.2941 30.4683 52.0235 30.739C51.7528 31.0097 51.3951 31.145 50.9505 31.145C50.5058 31.145 50.1481 31.0097 49.8775 30.739C49.6068 30.4683 49.4715 30.1107 49.4715 29.666V24.91H42.5115V29.753C42.5115 30.1783 42.3761 30.5167 42.1055 30.768C41.8541 31.0193 41.5061 31.145 41.0615 31.145ZM83.7819 31.203C82.3899 31.203 81.1622 30.9033 80.0989 30.304C79.0549 29.7047 78.2429 28.854 77.6629 27.752C77.1022 26.6307 76.8219 25.3353 76.8219 23.866C76.8219 22.3773 77.1022 21.082 77.6629 19.98C78.2429 18.8587 79.0549 17.9983 80.0989 17.399C81.1622 16.7997 82.3899 16.5 83.7819 16.5C85.1739 16.5 86.3919 16.7997 87.4359 17.399C88.4992 17.9983 89.3112 18.8587 89.8719 19.98C90.4519 21.082 90.7419 22.3773 90.7419 23.866C90.7419 25.3353 90.4519 26.6307 89.8719 27.752C89.3112 28.854 88.4992 29.7047 87.4359 30.304C86.3919 30.9033 85.1739 31.203 83.7819 31.203ZM83.7819 28.883C85.0772 28.883 86.0632 28.4577 86.7399 27.607C87.4359 26.7563 87.7839 25.5093 87.7839 23.866C87.7839 22.242 87.4359 21.0047 86.7399 20.154C86.0439 19.284 85.0579 18.849 83.7819 18.849C82.5059 18.849 81.5199 19.284 80.8239 20.154C80.1279 21.0047 79.7799 22.242 79.7799 23.866C79.7799 25.5093 80.1182 26.7563 80.7949 27.607C81.4909 28.4577 82.4865 28.883 83.7819 28.883ZM107.053 16.558C107.517 16.558 107.884 16.6837 108.155 16.935C108.426 17.1863 108.561 17.5343 108.561 17.979V29.811C108.561 30.1977 108.435 30.5167 108.184 30.768C107.933 31.0193 107.604 31.145 107.198 31.145C106.811 31.145 106.483 31.0193 106.212 30.768C105.961 30.5167 105.835 30.188 105.835 29.782L105.864 21.401L102.355 27.868C102.22 28.1193 102.036 28.3223 101.804 28.477C101.572 28.6123 101.321 28.68 101.05 28.68C100.76 28.68 100.499 28.6123 100.267 28.477C100.035 28.3223 99.8513 28.1193 99.716 27.868L96.207 21.401L96.236 29.782C96.236 30.188 96.1007 30.5167 95.83 30.768C95.5787 31.0193 95.2597 31.145 94.873 31.145C94.467 31.145 94.1383 31.0193 93.887 30.768C93.6357 30.5167 93.51 30.1977 93.51 29.811V18.066C93.51 17.6213 93.6357 17.2637 93.887 16.993C94.1577 16.703 94.5057 16.558 94.931 16.558C95.3177 16.558 95.6463 16.6257 95.917 16.761C96.207 16.8963 96.4487 17.167 96.642 17.573L101.05 25.867L105.342 17.718C105.574 17.2927 105.816 16.993 106.067 16.819C106.318 16.645 106.647 16.558 107.053 16.558Z" fill="white"/>
<g clip-path="url(#clip0)">
<path d="M74.5946 19.699C74.5941 19.6986 74.5936 19.6981 74.5932 19.6977L66.4348 11.5396C66.087 11.1917 65.6247 11 65.1329 11C64.6411 11 64.1788 11.1915 63.8309 11.5394L55.6767 19.6934C55.674 19.6961 55.6712 19.699 55.6685 19.7018C54.9544 20.42 54.9556 21.5853 55.672 22.3017C55.9993 22.6292 56.4316 22.8188 56.8938 22.8387C56.9125 22.8405 56.9314 22.8414 56.9505 22.8414H57.2757V28.8453C57.2757 30.0334 58.2423 31 59.4307 31H62.6225C62.946 31 63.2085 30.7377 63.2085 30.4141V25.707C63.2085 25.1649 63.6494 24.7239 64.1916 24.7239H66.0742C66.6164 24.7239 67.0573 25.1649 67.0573 25.707V30.4141C67.0573 30.7377 67.3196 31 67.6433 31H70.8351C72.0235 31 72.9901 30.0334 72.9901 28.8453V22.8414H73.2916C73.7833 22.8414 74.2456 22.6499 74.5936 22.302C75.3108 21.5844 75.3111 20.4171 74.5946 19.699Z" fill="white"/>
</g>
<path d="M65.9681 1.66667C67.9572 1.66667 69.8649 2.45684 71.2714 3.86337C72.6779 5.26989 73.4681 7.17754 73.4681 9.16667C73.4681 9.38768 73.5559 9.59964 73.7122 9.75592C73.8685 9.9122 74.0804 10 74.3014 10C74.5224 10 74.7344 9.9122 74.8907 9.75592C75.047 9.59964 75.1348 9.38768 75.1348 9.16667C75.1348 6.73552 74.169 4.40394 72.4499 2.68485C70.7308 0.965771 68.3993 0 65.9681 0C65.7471 0 65.5351 0.0877975 65.3788 0.244078C65.2226 0.400358 65.1348 0.61232 65.1348 0.833333C65.1348 1.05435 65.2226 1.26631 65.3788 1.42259C65.5351 1.57887 65.7471 1.66667 65.9681 1.66667Z" fill="white"/>
<path d="M66.0098 4.75C67.1701 4.75 68.2829 5.21094 69.1034 6.03141C69.9238 6.85188 70.3848 7.96468 70.3848 9.125C70.3848 9.35706 70.477 9.57962 70.641 9.74372C70.8051 9.90781 71.0277 10 71.2598 10C71.4918 10 71.7144 9.90781 71.8785 9.74372C72.0426 9.57962 72.1348 9.35706 72.1348 9.125C72.1348 7.50055 71.4895 5.94263 70.3408 4.79397C69.1921 3.64531 67.6342 3 66.0098 3C65.7777 3 65.5551 3.09219 65.391 3.25628C65.227 3.42038 65.1348 3.64294 65.1348 3.875C65.1348 4.10706 65.227 4.32962 65.391 4.49372C65.5551 4.65781 65.7777 4.75 66.0098 4.75Z" fill="white"/>
<path d="M65.8848 8.5C66.0837 8.5 66.2744 8.57902 66.4151 8.71967C66.5557 8.86032 66.6348 9.05109 66.6348 9.25C66.6348 9.44891 66.7138 9.63968 66.8544 9.78033C66.9951 9.92098 67.1859 10 67.3848 10C67.5837 10 67.7744 9.92098 67.9151 9.78033C68.0557 9.63968 68.1348 9.44891 68.1348 9.25C68.1348 8.65326 67.8977 8.08097 67.4758 7.65901C67.0538 7.23705 66.4815 7 65.8848 7C65.6859 7 65.4951 7.07902 65.3544 7.21967C65.2138 7.36032 65.1348 7.55109 65.1348 7.75C65.1348 7.94891 65.2138 8.13968 65.3544 8.28033C65.4951 8.42098 65.6859 8.5 65.8848 8.5Z" fill="white"/>
<defs>
<clipPath id="clip0">
<rect width="20" height="20" fill="white" transform="translate(55.1348 11)"/>
</clipPath>
</defs>
</svg>