<svg width="71" height="71" viewBox="0 0 71 71" fill="none" xmlns="http://www.w3.org/2000/svg">
<path d="M35.5303 70.88H42.4294L47.0332 48.1284H40.1319L35.5303 70.88Z" fill="#BBC7D1"/>
<path d="M15.7748 26.0554C21.39 26.0554 25.9421 21.5033 25.9421 15.888C25.9421 10.2728 21.39 5.7207 15.7748 5.7207C10.1595 5.7207 5.60742 10.2728 5.60742 15.888C5.60742 21.5033 10.1595 26.0554 15.7748 26.0554Z" fill="#FFD83B"/>
<path d="M15.7666 4.36302C15.2337 4.36302 14.8047 3.93183 14.8047 3.40113V1.08152C14.8047 0.550823 15.2359 0.119629 15.7666 0.119629C16.2995 0.119629 16.7285 0.550823 16.7285 1.08152V3.40113C16.7307 3.93404 16.2995 4.36302 15.7666 4.36302Z" fill="#FFD83B"/>
<path d="M15.7666 31.6543C15.2337 31.6543 14.8047 31.2231 14.8047 30.6924V28.375C14.8047 27.8421 15.2359 27.4131 15.7666 27.4131C16.2995 27.4131 16.7285 27.8443 16.7285 28.375V30.6924C16.7307 31.2231 16.2995 31.6543 15.7666 31.6543Z" fill="#FFD83B"/>
<path d="M23.9177 7.73743C23.5418 7.36151 23.5418 6.75342 23.9177 6.37751L25.5562 4.73897C25.9321 4.36305 26.5402 4.36305 26.9161 4.73897C27.2921 5.11488 27.2921 5.72297 26.9161 6.09889L25.2776 7.73743C24.9017 8.11334 24.2936 8.11334 23.9177 7.73743Z" fill="#FFD83B"/>
<path d="M4.61983 27.0353C4.24391 26.6594 4.24391 26.0513 4.61983 25.6754L6.25836 24.0368C6.63428 23.6609 7.24237 23.6609 7.61828 24.0368C7.9942 24.4127 7.9942 25.0208 7.61828 25.3967L5.97975 27.0353C5.60383 27.4112 4.99574 27.4112 4.61983 27.0353Z" fill="#FFD83B"/>
<path d="M30.5723 16.8501H28.2549C27.722 16.8501 27.293 16.4189 27.293 15.8882C27.293 15.3553 27.7242 14.9263 28.2549 14.9263H30.5723C31.1052 14.9263 31.5341 15.3575 31.5341 15.8882C31.5341 16.4189 31.1052 16.8501 30.5723 16.8501Z" fill="#FFD83B"/>
<path d="M3.2815 16.8501H0.961895C0.428983 16.8501 0 16.4189 0 15.8882C0 15.3553 0.431194 14.9263 0.961895 14.9263H3.2815C3.81441 14.9263 4.24339 15.3575 4.24339 15.8882C4.24339 16.4189 3.8122 16.8501 3.2815 16.8501Z" fill="#FFD83B"/>
<path d="M25.5562 27.0353L23.9177 25.3967C23.5418 25.0208 23.5418 24.4127 23.9177 24.0368C24.2936 23.6609 24.9017 23.6609 25.2776 24.0368L26.9161 25.6754C27.2921 26.0513 27.2921 26.6594 26.9161 27.0353C26.5424 27.4112 25.9321 27.4112 25.5562 27.0353Z" fill="#FFD83B"/>
<path d="M6.25836 7.73743L4.61983 6.09889C4.24391 5.72297 4.24391 5.11488 4.61983 4.73897C4.99574 4.36305 5.60383 4.36305 5.97975 4.73897L7.61828 6.37751C7.9942 6.75342 7.9942 7.36151 7.61828 7.73743C7.24237 8.11334 6.63428 8.11334 6.25836 7.73743Z" fill="#FFD83B"/>
<path d="M57.4415 65.4182L21.878 55.7727C21.1947 55.587 20.9559 54.5565 21.3384 53.4752L30.3891 27.7097C30.7296 26.7412 31.5832 25.9119 32.3062 25.8567L68.9799 23.0174C70.4061 22.9069 71.2862 23.9351 70.9147 25.3238L60.827 63.1583C60.3913 64.7902 58.8612 65.8029 57.4415 65.4182Z" fill="#DDE3E9"/>
<path d="M56.5767 26.1221L47.8887 26.6373L45.3701 34.6332L54.0161 34.757L56.5767 26.1221Z" fill="#72CEED"/>
<path d="M25.7588 44.5616L31.3245 45.2891L34.3163 36.4043L28.6688 36.2119L25.7588 44.5616Z" fill="#72CEED"/>
<path d="M36.4209 34.5071L43.634 34.6089L46.1393 26.7412L38.8688 27.1724L36.4209 34.5071Z" fill="#72CEED"/>
<path d="M56.1172 34.7858L65.7914 34.9229L68.3742 25.4233L58.6845 25.9983L56.1172 34.7858Z" fill="#72CEED"/>
<path d="M42.9667 36.7005L35.7734 36.4551L32.7617 45.477L39.8753 46.4079L42.9667 36.7005Z" fill="#72CEED"/>
<path d="M36.4301 57.2277L39.1765 48.6038L32.0828 47.5137L29.416 55.5029L36.4301 57.2277Z" fill="#72CEED"/>
<path d="M30.6497 47.2952L25.1017 46.4438L22.5322 53.8117L28.0029 55.1562L30.6497 47.2952Z" fill="#72CEED"/>
<path d="M34.9618 34.4869L37.3942 27.2583L31.6715 27.5988L29.2988 34.4073L34.9618 34.4869Z" fill="#72CEED"/>
<path d="M51.5217 50.4985L48.6758 60.2369L58.2638 62.5941L61.1517 51.9779L51.5217 50.4985Z" fill="#72CEED"/>
<path d="M65.1013 37.4564L55.4315 37.127L52.2451 48.0262L61.884 49.2866L65.1013 37.4564Z" fill="#72CEED"/>
<path d="M44.6996 36.7603L41.5928 46.6335L50.1592 47.7546L53.3345 37.0543L44.6996 36.7603Z" fill="#72CEED"/>
<path d="M49.441 50.1785L40.89 48.8672L38.126 57.6437L46.6061 59.7289L49.441 50.1785Z" fill="#72CEED"/>
</svg>
