<svg width="14" height="12" viewBox="0 0 14 12" fill="none" xmlns="http://www.w3.org/2000/svg">
<path fill-rule="evenodd" clip-rule="evenodd" d="M11.8977 1.13968C12.1222 0.917139 12.4253 0.791892 12.7414 0.79102C13.0575 0.790148 13.3613 0.91372 13.587 1.13502C13.8127 1.35632 13.9423 1.65757 13.9477 1.97364C13.9531 2.2897 13.8339 2.59519 13.6158 2.82406L7.21196 10.8288C7.1019 10.9474 6.96907 11.0425 6.8214 11.1086C6.67373 11.1746 6.51427 11.2102 6.35253 11.2132C6.1908 11.2162 6.03013 11.1865 5.88012 11.126C5.7301 11.0655 5.59384 10.9753 5.47946 10.8609L1.23644 6.61631C1.11824 6.50616 1.02343 6.37334 0.95767 6.22575C0.891912 6.07817 0.856553 5.91886 0.853703 5.75731C0.850853 5.59577 0.88057 5.4353 0.94108 5.28549C1.00159 5.13568 1.09166 4.9996 1.2059 4.88535C1.32015 4.7711 1.45624 4.68104 1.60605 4.62053C1.75586 4.56002 1.91632 4.5303 2.07787 4.53315C2.23941 4.536 2.39872 4.57136 2.54631 4.63712C2.69389 4.70287 2.82671 4.79768 2.93686 4.91589L6.29599 8.27341L11.8673 1.17497C11.8772 1.16255 11.8879 1.15076 11.8993 1.13968H11.8977Z" fill="#E97D27"/>
</svg>
