<svg width="51" height="50" viewBox="0 0 51 50" fill="none" xmlns="http://www.w3.org/2000/svg">
<g clip-path="url(#clip0)">
<path d="M33.1994 9.67817H5.78008C5.33412 9.67817 4.97363 9.31769 4.97363 8.87172V4.03301C4.97363 3.58705 5.33412 3.22656 5.78008 3.22656H33.1994C33.6454 3.22656 34.0059 3.58705 34.0059 4.03301V8.87172C34.0059 9.31769 33.6454 9.67817 33.1994 9.67817Z" fill="#F26A5F"/>
<path d="M34.0055 11.291H32.3926V12.9039H34.0055V11.291Z" fill="#2A4368"/>
<path d="M34.0055 14.5156H32.3926V16.1285H34.0055V14.5156Z" fill="#2A4368"/>
<path d="M34.0055 17.7422H32.3926V19.3551H34.0055V17.7422Z" fill="#2A4368"/>
<path d="M0.134766 0V35.0113L11.8977 46.7742H32.4896V45.1613H13.038V41.9355H23.5219V27.4194H6.58638V33.871H1.74767V1.6129H37.2315V16.129H38.8444V0H0.134766ZM11.4251 44.021L2.88799 35.4839H11.4251V44.021ZM8.19928 29.0323H21.909V40.3226H13.038V33.871H8.19928V29.0323Z" fill="#2A4368"/>
<path d="M20.2964 30.6445H9.8125V32.2574H20.2964V30.6445Z" fill="#2A4368"/>
<path d="M20.2965 33.8711H14.6514V35.484H20.2965V33.8711Z" fill="#2A4368"/>
<path d="M20.2965 37.0977H14.6514V38.7106H20.2965V37.0977Z" fill="#2A4368"/>
<path d="M30.7801 11.291H4.97363V12.9039H30.7801V11.291Z" fill="#2A4368"/>
<path d="M30.7801 14.5156H4.97363V16.1285H30.7801V14.5156Z" fill="#2A4368"/>
<path d="M30.7801 17.7422H4.97363V19.3551H30.7801V17.7422Z" fill="#2A4368"/>
<path d="M20.2962 20.9668H4.97363V22.5797H20.2962V20.9668Z" fill="#2A4368"/>
<path d="M20.2962 24.1934H4.97363V25.8063H20.2962V24.1934Z" fill="#2A4368"/>
<path d="M23.5221 20.9668H21.9092V22.5797H23.5221V20.9668Z" fill="#2A4368"/>
<path d="M23.5221 24.1934H21.9092V25.8063H23.5221V24.1934Z" fill="#2A4368"/>
<path d="M38.0382 50.0001C37.9003 50.0001 37.7616 49.9647 37.6382 49.8937L31.2237 46.2284C27.9656 44.3663 25.9414 40.8784 25.9414 37.1259V25.0001C25.9414 24.5542 26.3019 24.1937 26.7479 24.1937H28.9971C32.368 24.1937 35.497 22.5195 37.3672 19.7138C37.6664 19.2647 38.41 19.2647 38.7091 19.7138C40.5793 22.5195 43.7083 24.1937 47.0793 24.1937H49.3285C49.7745 24.1937 50.1349 24.5542 50.1349 25.0001V37.1259C50.1349 40.8784 48.1108 44.3663 44.8527 46.2284L38.4382 49.8937C38.3148 49.9647 38.1761 50.0001 38.0382 50.0001Z" fill="#F26A5F"/>
<path d="M43.2521 43.4287L42.4521 42.0287C44.2062 41.0255 45.2965 39.1473 45.2965 37.1263V35.4844H46.9094V37.1263C46.9094 39.7247 45.5078 42.1392 43.2521 43.4287Z" fill="#2A4368"/>
<path d="M46.9088 32.2578H45.2959V33.8707H46.9088V32.2578Z" fill="#2A4368"/>
<path d="M34.0059 40.6571L30.21 36.8611L31.3503 35.7208L34.0059 38.3764L44.7261 27.6562L45.8664 28.7966L34.0059 40.6571Z" fill="#2A4368"/>
</g>
<defs>
<clipPath id="clip0">
<rect width="50" height="50" fill="white" transform="translate(0.134766)"/>
</clipPath>
</defs>
</svg>