<svg width="51" height="33" viewBox="0 0 51 33" fill="none" xmlns="http://www.w3.org/2000/svg">
<g clip-path="url(#clip0)">
<path d="M47.151 14.7561C46.4295 14.7561 45.705 14.4802 45.151 13.9311C39.8016 8.61698 32.6908 5.68966 25.134 5.68966C17.5772 5.68966 10.4664 8.61698 5.11695 13.9283C4.00331 15.0378 2.20502 15.0292 1.0999 13.9141C-0.00521043 12.7989 0.00331244 10.9953 1.11695 9.89147C7.5374 3.51336 16.0687 0 25.134 0C34.1993 0 42.7306 3.51336 49.151 9.89147C50.2647 10.9981 50.2732 12.7989 49.1681 13.9141C48.6141 14.4745 47.8812 14.7561 47.151 14.7561Z" fill="#F26A5F"/>
<path d="M39.4865 22.3667C38.7621 22.3667 38.0405 22.0907 37.4865 21.5417C34.1797 18.2559 29.7933 16.4494 25.1343 16.4494C20.4752 16.4494 16.0888 18.2559 12.782 21.5417C11.6712 22.6483 9.8729 22.6426 8.76494 21.5246C7.65983 20.4094 7.66835 18.6115 8.78199 17.502C13.157 13.1551 18.9666 10.7598 25.1343 10.7598C31.3019 10.7598 37.1115 13.1551 41.4865 17.5048C42.6002 18.6115 42.6087 20.4123 41.5036 21.5274C40.9496 22.0879 40.2195 22.3667 39.4865 22.3667Z" fill="#F26A5F"/>
<path d="M31.8225 29.9781C31.0924 29.9781 30.3622 29.6965 29.8083 29.1389C27.3395 26.6496 22.9304 26.6496 20.4617 29.1389C19.3566 30.2512 17.5583 30.2597 16.4446 29.1531C15.331 28.0436 15.3253 26.2428 16.4304 25.1277C18.7372 22.8006 21.8281 21.5176 25.135 21.5176C28.4418 21.5176 31.5327 22.8006 33.8395 25.1277C34.9446 26.2428 34.939 28.0436 33.8253 29.1502C33.2713 29.7021 32.5469 29.9781 31.8225 29.9781Z" fill="#F26A5F"/>
</g>
<defs>
<clipPath id="clip0">
<rect width="50" height="33" fill="white" transform="translate(0.134766)"/>
</clipPath>
</defs>
</svg>